{"glyphs":{"0":{"ha":868,"x_min":43,"x_max":799,"o":"m 406 -28 q 287 -9 340 -28 q 194 42 235 9 q 125 120 154 75 q 78 218 96 165 q 51 330 60 271 q 43 449 43 389 q 52 572 43 509 q 80 692 60 634 q 130 801 99 750 q 203 890 160 852 q 304 949 247 928 q 433 971 361 971 q 553 952 500 971 q 646 901 606 934 q 715 823 686 868 q 763 725 745 778 q 790 613 781 671 q 799 494 799 554 q 790 372 799 434 q 761 251 781 309 q 710 142 741 193 q 636 54 680 92 q 535 -6 592 16 q 406 -28 477 -28 m 421 117 q 477 134 453 117 q 517 178 500 151 q 545 241 534 205 q 562 314 555 277 q 570 388 568 351 q 572 453 572 424 q 569 531 572 489 q 559 614 566 573 q 542 694 553 656 q 513 763 530 733 q 474 810 496 793 q 421 828 451 828 q 364 811 388 828 q 323 767 340 794 q 295 704 306 739 q 279 631 285 668 q 271 557 273 593 q 269 492 269 521 q 272 414 269 456 q 282 330 275 372 q 300 250 289 289 q 328 182 311 212 q 368 134 345 152 q 421 117 391 117 z "},"1":{"ha":591,"x_min":7,"x_max":528,"o":"m 433 920 q 428 824 431 880 q 424 704 426 768 q 420 574 422 640 q 416 447 418 507 q 414 336 415 386 q 414 257 414 287 q 420 196 414 219 q 437 160 426 173 q 465 141 448 146 q 501 132 481 135 l 528 127 l 522 -4 q 444 1 484 -1 q 369 5 410 3 q 290 7 329 7 q 194 5 252 7 q 60 -4 136 4 l 65 127 q 102 132 83 130 q 139 135 119 133 q 178 136 159 136 q 184 215 181 169 q 189 313 186 260 q 192 420 191 365 q 195 527 194 475 q 197 622 196 578 q 197 696 197 666 l 72 632 l 7 754 q 99 812 56 783 q 180 871 142 842 q 250 925 218 899 q 307 971 281 951 l 433 920 z "},"2":{"ha":765,"x_min":1,"x_max":704,"o":"m 311 794 q 271 786 290 794 q 239 763 252 778 q 217 727 225 748 q 210 681 210 706 q 211 664 210 672 q 214 647 212 656 q 174 628 197 635 q 129 621 151 621 q 87 627 107 621 q 52 648 67 634 q 27 682 37 661 q 18 730 18 703 q 45 833 18 788 q 116 908 71 878 q 220 955 161 939 q 343 971 279 971 q 471 954 413 971 q 571 904 529 937 q 636 822 613 871 q 660 708 660 772 q 630 584 660 646 q 547 459 601 523 q 417 326 493 395 q 249 182 341 258 l 396 182 q 471 193 441 182 q 520 221 500 203 q 551 259 539 238 q 572 301 562 280 l 591 343 l 704 325 q 692 240 698 286 q 682 149 686 193 q 672 64 677 104 q 665 0 668 25 l 49 0 l 1 129 q 95 225 47 176 q 190 322 144 273 q 276 418 235 371 q 347 511 317 466 q 396 598 378 556 q 414 676 414 640 q 388 762 414 730 q 311 794 362 794 z "},"3":{"ha":765,"x_min":21,"x_max":703,"o":"m 326 146 q 381 155 356 146 q 426 182 407 164 q 455 227 444 200 q 465 290 465 254 q 456 342 465 319 q 430 382 447 366 q 390 408 414 399 q 338 416 367 416 q 279 409 310 416 q 225 390 249 401 l 182 521 l 257 550 q 307 575 281 559 q 354 610 332 590 q 389 654 375 630 q 403 707 403 679 q 398 734 403 721 q 384 757 394 747 q 360 773 374 767 q 325 779 345 779 q 290 775 310 779 q 248 763 271 772 q 199 738 225 753 q 144 699 173 722 l 61 800 q 129 863 92 833 q 207 918 165 894 q 299 957 250 942 q 408 971 349 971 q 518 956 472 971 q 593 915 564 941 q 637 853 623 889 q 652 774 652 817 q 640 711 652 743 q 609 653 628 680 q 564 603 589 625 q 513 568 539 581 q 587 544 552 562 q 647 497 621 526 q 688 430 673 468 q 703 346 703 391 q 685 245 703 293 q 638 155 668 197 q 567 80 608 114 q 477 22 526 46 q 375 -15 429 -2 q 268 -28 322 -28 q 157 -17 203 -28 q 80 15 110 -5 q 35 63 50 35 q 21 123 21 91 q 42 196 21 164 q 103 249 63 227 q 157 201 131 221 q 209 170 182 182 q 264 152 235 157 q 326 146 292 146 z "},"4":{"ha":828,"x_min":0,"x_max":785,"o":"m 608 257 q 615 196 608 219 q 633 160 621 173 q 662 141 645 146 q 699 132 678 135 l 725 127 l 720 -4 q 637 1 679 -1 q 558 5 601 3 q 478 7 516 7 q 386 5 441 7 q 257 -4 331 4 l 261 127 q 298 132 279 130 q 335 135 315 133 q 375 136 355 136 q 379 196 377 163 q 382 267 380 229 l 0 267 l 4 416 l 493 971 l 631 920 q 625 832 628 888 q 620 709 623 777 q 615 567 617 641 q 611 424 612 492 q 681 428 650 426 q 736 431 713 430 q 785 435 763 433 l 739 267 l 608 267 l 608 257 m 179 408 q 281 409 228 408 q 387 412 334 410 q 391 537 389 478 q 392 639 392 597 l 179 408 z "},"5":{"ha":750,"x_min":-9,"x_max":705,"o":"m 290 146 q 346 155 319 146 q 392 185 372 165 q 424 236 412 205 q 436 310 436 267 q 427 361 436 336 q 399 406 418 387 q 350 437 380 425 q 279 449 320 449 q 225 444 253 449 q 178 433 197 439 l 110 519 l 163 943 l 429 943 q 478 946 458 943 q 513 957 498 949 q 541 979 528 964 q 568 1017 553 993 l 589 1050 l 705 1000 q 688 944 696 975 q 671 879 680 912 q 654 811 663 845 q 636 747 645 777 l 293 747 l 272 587 q 326 598 298 595 q 383 602 354 602 q 490 588 437 602 q 584 544 543 574 q 651 468 625 514 q 676 355 676 421 q 661 254 676 302 q 616 162 645 205 q 547 85 587 120 q 459 25 507 50 q 354 -14 410 0 q 237 -28 298 -28 q 126 -17 173 -28 q 49 15 79 -5 q 5 63 19 35 q -9 123 -9 91 q 12 196 -9 164 q 72 249 33 227 q 126 201 100 221 q 178 170 152 182 q 232 152 204 157 q 290 146 259 146 z "},"6":{"ha":782,"x_min":33,"x_max":720,"o":"m 669 850 q 566 797 616 827 q 472 728 516 766 q 390 645 427 690 q 325 550 353 600 q 386 565 355 559 q 450 570 416 570 q 545 555 497 570 q 632 509 593 540 q 695 429 671 477 q 720 313 720 380 q 690 170 720 233 q 612 63 661 106 q 502 -4 564 19 q 375 -28 439 -28 q 242 -5 304 -28 q 133 61 180 18 q 60 170 87 105 q 33 318 33 234 q 56 468 33 397 q 117 602 78 539 q 211 721 157 665 q 330 822 266 776 q 466 906 395 869 q 612 971 538 943 l 669 850 m 366 428 q 316 423 339 428 q 271 410 292 418 q 262 359 265 385 q 260 307 260 334 q 269 227 260 261 q 294 169 278 192 q 332 135 310 146 q 379 123 353 123 q 424 134 404 123 q 460 163 445 144 q 483 211 475 182 q 492 278 492 240 q 486 337 492 310 q 465 385 479 365 q 426 416 450 405 q 366 428 401 428 z "},"7":{"ha":718,"x_min":5,"x_max":717,"o":"m 92 87 q 203 258 151 180 q 302 411 254 336 q 397 568 350 487 q 494 747 444 648 l 285 747 q 232 743 253 747 q 198 728 212 738 q 175 705 184 719 q 158 673 166 691 l 131 615 l 5 635 q 42 790 25 716 q 74 943 59 864 l 664 943 l 717 869 q 598 617 653 736 q 495 388 544 498 q 401 175 446 278 q 310 -28 355 72 l 92 87 z "},"8":{"ha":793,"x_min":36,"x_max":722,"o":"m 700 754 q 689 681 700 714 q 661 620 679 648 q 618 566 642 591 q 566 517 593 541 q 625 462 597 490 q 675 403 653 433 q 709 339 696 372 q 722 268 722 305 q 691 144 722 199 q 607 51 659 89 q 488 -7 555 13 q 349 -28 420 -28 q 238 -13 294 -28 q 137 31 182 1 q 64 106 92 61 q 36 214 36 152 q 51 302 36 262 q 90 379 65 343 q 148 445 115 414 q 218 504 181 476 q 166 554 191 528 q 124 606 142 579 q 95 663 106 633 q 85 725 85 692 q 98 802 85 767 q 135 864 111 837 q 189 912 158 892 q 257 945 220 932 q 332 965 293 958 q 411 971 372 971 q 518 958 466 971 q 611 917 570 944 q 675 850 651 890 q 700 754 700 809 m 476 220 q 464 270 476 245 q 432 318 452 294 q 386 365 412 342 q 329 412 359 389 q 284 373 305 394 q 248 330 264 352 q 223 283 232 307 q 214 233 214 258 q 224 178 214 202 q 254 138 235 154 q 298 113 273 121 q 353 104 323 104 q 402 112 379 104 q 441 134 425 119 q 467 171 458 149 q 476 220 476 192 m 326 761 q 336 724 326 743 q 363 685 346 705 q 403 646 380 666 q 453 606 427 627 q 483 633 469 619 q 507 663 496 647 q 524 696 518 678 q 530 734 530 713 q 522 779 530 760 q 499 812 513 799 q 465 833 484 826 q 422 840 445 840 q 388 836 405 840 q 357 821 370 831 q 335 797 343 812 q 326 761 326 782 z "},"9":{"ha":782,"x_min":36,"x_max":721,"o":"m 85 93 q 189 146 138 115 q 283 215 239 177 q 364 298 327 254 q 429 393 401 343 q 306 374 369 374 q 211 389 259 374 q 124 435 163 404 q 60 514 85 466 q 36 631 36 563 q 65 773 36 710 q 143 881 95 837 q 254 948 192 924 q 380 971 316 971 q 514 948 452 971 q 622 882 576 926 q 694 773 668 838 q 721 625 721 709 q 699 475 721 547 q 637 341 677 404 q 543 223 597 278 q 425 121 489 168 q 288 37 360 75 q 142 -28 216 0 l 85 93 m 390 515 q 484 532 439 515 q 492 584 489 558 q 494 636 494 610 q 486 716 494 682 q 461 773 477 751 q 423 808 445 796 q 375 819 401 819 q 331 809 351 819 q 296 780 311 799 q 272 731 281 760 q 264 665 264 703 q 270 606 264 633 q 291 558 276 578 q 330 527 306 538 q 390 515 354 515 z "}," ":{"ha":310,"x_min":0,"x_max":0,"o":""},"!":{"ha":424,"x_min":87,"x_max":349,"o":"m 87 110 q 98 164 87 141 q 124 201 108 186 q 162 222 140 216 q 205 229 183 229 q 249 222 227 229 q 287 201 270 216 q 313 164 303 186 q 323 110 323 141 q 314 58 323 81 q 289 18 305 35 q 252 -8 273 1 q 205 -17 231 -17 q 159 -8 180 -17 q 122 18 138 1 q 97 58 106 35 q 87 110 87 81 m 349 943 q 333 832 340 887 q 320 726 326 778 q 309 627 314 674 q 299 538 303 579 q 282 355 289 441 l 146 355 q 141 538 144 441 q 138 627 140 579 q 133 726 136 674 q 128 832 131 778 q 121 943 125 887 q 139 942 127 943 q 166 941 151 941 q 199 940 181 941 q 235 940 216 940 q 271 940 253 940 q 303 941 288 941 q 330 942 318 941 q 349 943 342 943 z "},"\"":{"ha":570,"x_min":77,"x_max":534,"o":"m 222 640 l 113 640 l 77 1006 l 283 1006 l 222 640 m 475 640 l 364 640 l 329 1006 l 534 1006 l 475 640 z "},"#":{"ha":1063,"x_min":28,"x_max":1010,"o":"m 472 696 l 648 696 l 693 943 l 852 943 l 808 696 l 1010 696 l 1004 579 l 943 579 q 874 579 914 579 q 787 578 835 578 l 751 368 l 945 368 l 940 252 l 881 252 q 814 251 852 252 q 730 250 777 251 l 686 0 l 526 0 l 571 249 l 393 245 l 350 0 l 191 0 l 232 240 q 120 235 172 238 q 28 229 68 233 l 32 368 l 256 368 l 290 568 q 181 563 231 566 q 93 557 132 560 l 97 696 l 313 696 l 357 943 l 516 943 l 472 696 m 452 574 l 415 368 l 591 368 l 628 576 l 452 574 z "},"$":{"ha":839,"x_min":45,"x_max":774,"o":"m 416 815 q 335 793 366 815 q 304 732 304 772 q 314 693 304 711 q 339 660 323 675 q 379 629 356 644 q 428 600 401 614 l 546 538 q 630 489 589 515 q 703 428 671 462 q 754 350 735 393 q 774 252 774 307 q 758 165 774 209 q 708 85 743 122 q 620 20 674 48 q 489 -20 566 -7 l 489 -164 l 317 -164 l 325 -26 q 246 -21 285 -25 q 171 -13 207 -18 q 103 -2 135 -8 q 45 11 71 4 l 54 315 l 211 315 l 214 293 q 225 237 217 267 q 254 184 234 208 q 311 143 275 159 q 404 127 347 127 q 494 149 460 127 q 528 208 528 170 q 519 244 528 228 q 494 276 510 261 q 454 306 477 292 q 401 336 431 321 l 269 407 q 189 456 227 429 q 122 515 151 482 q 76 590 93 549 q 58 685 58 632 q 71 778 58 731 q 118 864 84 825 q 209 930 151 903 q 357 966 267 958 l 357 1069 l 529 1069 l 522 968 q 652 953 590 962 q 760 932 713 943 l 741 628 l 583 628 l 581 646 q 569 701 576 671 q 544 756 562 730 q 497 798 527 781 q 416 815 467 815 z "},"%":{"ha":1096,"x_min":56,"x_max":1046,"o":"m 176 46 l 737 817 q 649 782 700 795 q 526 768 597 768 l 498 768 q 506 731 503 751 q 509 692 509 711 q 489 583 509 633 q 436 495 469 532 q 360 435 404 457 q 269 414 317 414 q 169 432 210 414 q 103 483 128 451 q 67 556 78 514 q 56 644 56 598 q 73 746 56 697 q 122 832 90 795 q 198 893 153 870 q 297 916 242 916 q 360 908 332 916 q 412 888 389 901 q 470 873 433 880 q 558 867 506 867 q 640 871 602 867 q 709 882 678 876 q 765 897 740 888 q 807 913 789 905 l 859 982 l 946 908 l 264 -28 l 176 46 m 593 231 q 610 332 593 283 q 659 419 627 381 q 735 479 691 456 q 835 501 780 501 q 929 484 889 501 q 995 437 968 467 q 1033 366 1021 407 q 1046 278 1046 326 q 1026 169 1046 220 q 974 80 1006 118 q 898 21 941 43 q 807 0 854 0 q 707 19 747 0 q 641 69 666 37 q 604 142 615 100 q 593 231 593 184 m 215 664 q 234 584 215 613 q 282 555 254 555 q 330 584 311 555 q 349 664 349 613 q 330 744 349 715 q 282 774 311 774 q 234 744 254 774 q 215 664 215 715 m 753 250 q 772 170 753 199 q 819 142 791 142 q 867 170 848 142 q 886 250 886 199 q 867 330 886 301 q 819 359 848 359 q 772 330 791 359 q 753 250 753 301 z "},"&":{"ha":1051,"x_min":53,"x_max":1048,"o":"m 880 433 q 833 421 853 433 q 793 386 813 410 q 751 327 774 362 q 697 243 729 291 q 783 177 743 203 q 859 139 823 151 q 931 129 896 127 q 1004 144 966 130 l 1048 58 q 1006 24 1029 40 q 958 -3 983 9 q 904 -21 932 -15 q 847 -28 876 -28 q 703 0 768 -28 q 579 82 639 27 q 468 2 529 32 q 330 -28 408 -28 q 220 -10 271 -28 q 132 41 169 7 q 74 123 95 75 q 53 232 53 171 q 67 324 53 283 q 107 400 82 366 q 164 463 132 435 q 232 517 197 492 q 204 601 214 559 q 195 681 195 643 q 214 797 195 744 q 268 889 233 850 q 353 949 303 928 q 465 971 403 971 q 549 957 511 971 q 612 916 586 942 q 652 856 638 890 q 667 779 667 821 q 647 694 667 732 q 597 624 628 656 q 528 564 566 592 q 450 509 489 536 q 480 463 463 487 q 516 415 497 439 q 554 368 534 391 q 591 329 573 346 q 633 405 614 368 q 672 476 653 443 q 710 537 690 509 q 752 585 729 565 q 803 617 775 606 q 865 628 830 628 q 919 618 896 628 q 958 594 943 609 q 981 559 973 578 q 989 519 989 539 q 987 498 989 510 q 980 471 985 486 q 966 442 975 457 q 943 412 958 427 q 911 428 924 423 q 880 433 898 433 m 375 132 q 427 142 401 132 q 475 172 454 153 q 381 278 427 221 q 301 393 336 336 q 264 339 277 368 q 252 272 252 311 q 259 218 252 243 q 283 174 267 193 q 321 143 298 155 q 375 132 345 132 m 372 725 q 393 623 372 677 q 453 686 430 653 q 476 760 476 719 q 466 805 476 787 q 435 822 456 822 q 408 814 420 822 q 389 792 397 806 q 376 761 380 779 q 372 725 372 744 z "},"'":{"ha":317,"x_min":77,"x_max":282,"o":"m 222 640 l 111 640 l 77 1006 l 282 1006 l 222 640 z "},"(":{"ha":529,"x_min":40,"x_max":538,"o":"m 538 921 q 305 664 379 806 q 231 357 231 522 q 242 204 231 275 q 284 65 254 133 q 365 -68 314 -2 q 494 -205 416 -135 l 435 -293 q 267 -167 340 -235 q 143 -18 193 -98 q 66 156 93 62 q 40 357 40 249 q 73 556 40 458 q 164 738 106 653 q 304 892 223 823 q 481 1007 385 961 l 538 921 z "},")":{"ha":529,"x_min":-9,"x_max":488,"o":"m -9 -207 q 223 50 149 -92 q 297 357 297 193 q 285 510 297 438 q 243 649 273 581 q 163 782 214 716 q 33 920 112 848 l 93 1007 q 261 881 187 949 q 385 732 334 812 q 461 558 435 651 q 488 357 488 465 q 455 158 488 255 q 363 -24 422 61 q 224 -178 304 -109 q 47 -293 143 -248 l -9 -207 z "},"*":{"ha":636,"x_min":31,"x_max":581,"o":"m 35 771 q 74 829 58 802 q 103 884 90 855 l 261 770 l 248 966 q 272 964 262 965 q 290 963 282 963 q 303 962 297 962 q 315 962 309 962 q 339 963 326 962 q 379 966 352 963 l 353 766 q 394 794 372 779 q 439 825 416 810 q 482 854 461 840 q 521 880 503 869 q 548 825 534 852 q 581 768 562 799 l 399 689 q 488 645 443 668 q 574 603 534 622 q 557 580 568 595 q 537 548 547 565 q 517 516 527 532 q 503 493 508 501 l 347 612 q 353 510 349 562 q 358 412 356 458 q 345 413 353 412 q 326 413 336 413 q 307 413 316 413 q 294 414 298 414 q 281 413 290 414 q 262 413 272 413 q 242 413 252 413 q 229 412 233 412 l 258 610 l 90 494 q 79 518 87 503 q 61 551 71 534 q 44 584 52 568 q 31 607 35 599 l 215 689 l 35 771 z "},"+":{"ha":745,"x_min":54,"x_max":693,"o":"m 693 372 l 437 372 l 437 117 l 310 117 l 310 372 l 54 372 l 54 500 l 310 500 l 310 755 l 437 755 l 437 500 l 693 500 l 693 372 z "},",":{"ha":372,"x_min":47,"x_max":296,"o":"m 47 -125 q 97 -61 79 -98 q 115 11 115 -24 q 100 62 115 37 q 50 107 85 87 q 58 152 50 130 q 81 192 66 174 q 119 219 96 209 q 171 229 142 229 q 218 220 196 229 q 258 193 241 212 q 286 147 275 175 q 296 82 296 119 q 288 18 296 54 q 260 -56 280 -18 q 206 -134 240 -94 q 119 -208 172 -173 l 47 -125 z "},"-":{"ha":526,"x_min":69,"x_max":456,"o":"m 456 419 l 452 264 l 69 264 l 74 419 l 456 419 z "},".":{"ha":367,"x_min":56,"x_max":292,"o":"m 56 110 q 66 164 56 141 q 92 201 76 186 q 130 222 109 216 q 174 229 151 229 q 217 222 195 229 q 255 201 238 216 q 281 164 271 186 q 292 110 292 141 q 282 58 292 81 q 257 18 273 35 q 220 -8 241 1 q 174 -17 199 -17 q 127 -8 149 -17 q 90 18 106 1 q 65 58 74 35 q 56 110 56 81 z "},"/":{"ha":825,"x_min":41,"x_max":783,"o":"m 783 999 l 186 -241 l 41 -241 l 639 999 l 783 999 z "},":":{"ha":386,"x_min":65,"x_max":315,"o":"m 65 110 q 75 164 65 141 q 102 201 85 186 q 139 222 118 216 q 183 229 161 229 q 226 222 205 229 q 264 201 248 216 q 291 164 281 186 q 301 110 301 141 q 292 58 301 81 q 267 18 283 35 q 230 -8 252 1 q 183 -17 208 -17 q 137 -8 158 -17 q 99 18 115 1 q 74 58 83 35 q 65 110 65 81 m 79 509 q 90 562 79 540 q 116 599 100 585 q 154 621 132 614 q 197 628 175 628 q 240 621 219 628 q 278 599 262 614 q 305 562 295 585 q 315 509 315 540 q 306 457 315 480 q 281 417 297 434 q 244 391 265 400 q 197 382 222 382 q 151 391 172 382 q 114 417 130 400 q 89 457 98 434 q 79 509 79 480 z "},";":{"ha":390,"x_min":57,"x_max":315,"o":"m 79 509 q 90 562 79 540 q 116 599 100 585 q 154 621 132 614 q 197 628 175 628 q 240 621 219 628 q 278 599 262 614 q 305 562 295 585 q 315 509 315 540 q 306 457 315 480 q 281 417 297 434 q 244 391 265 400 q 197 382 222 382 q 151 391 172 382 q 114 417 130 400 q 89 457 98 434 q 79 509 79 480 m 57 -125 q 106 -61 88 -98 q 125 11 125 -24 q 110 62 125 37 q 60 107 94 87 q 68 152 60 130 q 91 192 76 174 q 129 219 106 209 q 180 229 151 229 q 228 220 205 229 q 268 193 251 212 q 296 147 286 175 q 306 82 306 119 q 298 18 306 54 q 270 -56 290 -18 q 216 -134 250 -94 q 129 -208 182 -173 l 57 -125 z "},"<":{"ha":755,"x_min":50,"x_max":684,"o":"m 50 472 l 628 765 l 684 657 l 231 428 l 684 200 l 628 92 l 50 383 l 50 472 z "},"=":{"ha":793,"x_min":78,"x_max":717,"o":"m 717 500 l 78 500 l 78 628 l 717 628 l 717 500 m 717 250 l 78 250 l 78 378 l 717 378 l 717 250 z "},">":{"ha":754,"x_min":74,"x_max":707,"o":"m 707 383 l 129 92 l 74 200 l 524 428 l 74 657 l 129 765 l 707 472 l 707 383 z "},"?":{"ha":553,"x_min":64,"x_max":517,"o":"m 237 707 q 203 699 220 701 q 172 697 187 697 q 94 722 124 697 q 64 796 64 747 q 83 868 64 836 q 133 923 102 900 q 204 959 165 946 q 286 971 244 971 q 384 956 341 971 q 456 915 427 941 q 501 854 486 888 q 517 782 517 820 q 505 705 517 739 q 474 644 493 671 q 431 595 455 616 q 380 558 406 574 q 330 528 355 541 q 287 503 306 515 q 256 481 268 492 q 244 460 244 471 q 256 439 244 447 q 294 431 267 431 q 353 436 330 431 q 403 450 377 441 l 403 446 q 395 389 403 418 q 372 338 388 361 q 330 300 355 315 q 268 285 304 285 q 215 294 239 285 q 174 321 191 303 q 147 364 157 338 q 138 422 138 390 q 149 497 138 463 q 180 563 160 532 q 230 625 201 595 q 293 686 258 655 q 315 707 304 696 q 334 730 326 718 q 348 756 342 742 q 353 787 353 770 q 350 806 353 797 q 340 823 347 815 q 323 834 334 830 q 297 839 312 839 q 273 834 285 839 q 252 818 261 829 q 237 791 243 808 q 232 753 232 775 q 233 731 232 743 q 237 707 234 720 m 142 110 q 152 164 142 141 q 178 201 162 186 q 216 222 195 216 q 260 229 237 229 q 303 222 281 229 q 341 201 324 216 q 368 164 357 186 q 378 110 378 141 q 369 58 378 81 q 343 18 359 35 q 306 -8 328 1 q 260 -17 285 -17 q 213 -8 235 -17 q 176 18 192 1 q 151 58 160 35 q 142 110 142 81 z "},"@":{"ha":1044,"x_min":40,"x_max":989,"o":"m 745 168 q 804 195 778 175 q 849 246 831 216 q 878 315 868 277 q 888 396 888 353 q 869 504 888 452 q 811 597 850 557 q 712 663 772 638 q 572 688 653 688 q 415 656 488 688 q 289 568 342 624 q 203 434 235 511 q 172 265 172 357 q 196 111 172 182 q 267 -11 220 40 q 385 -92 314 -62 q 550 -121 456 -121 q 625 -116 589 -121 q 699 -101 662 -111 q 773 -77 735 -92 q 851 -41 810 -62 l 884 -114 q 699 -191 786 -166 q 525 -216 611 -216 q 336 -182 425 -216 q 182 -86 248 -148 q 78 62 116 -24 q 40 250 40 147 q 59 394 40 326 q 113 520 78 462 q 196 626 147 579 q 306 707 245 673 q 436 759 366 741 q 582 777 505 777 q 748 750 673 777 q 877 675 823 724 q 959 555 930 625 q 989 396 989 484 q 960 248 989 315 q 880 133 930 180 q 760 58 829 85 q 612 32 692 32 l 571 98 l 600 216 l 593 221 q 549 160 572 191 q 500 104 525 130 q 449 59 475 78 q 399 32 423 40 l 297 65 q 292 87 294 75 q 288 112 290 99 q 284 136 286 124 q 283 157 283 148 q 309 319 283 245 q 374 448 334 394 q 465 533 414 503 q 567 564 515 564 q 612 562 588 564 q 661 556 636 560 q 710 547 686 553 q 758 534 735 542 q 749 351 751 441 q 745 168 747 260 m 610 467 q 582 472 597 470 q 553 475 566 475 q 504 454 525 475 q 468 399 482 433 q 445 318 453 364 q 437 222 437 273 q 437 201 437 212 q 439 179 437 191 q 483 199 456 180 q 535 252 509 219 q 582 330 561 286 q 608 427 602 375 l 610 467 z "},"A":{"ha":1002,"x_min":-21,"x_max":1007,"o":"m 856 289 q 887 218 872 245 q 916 176 901 191 q 944 152 930 160 q 975 139 959 144 l 1007 127 l 1002 -4 q 900 3 957 0 q 779 7 843 7 q 649 3 711 7 q 536 -4 587 0 l 542 127 q 603 134 577 132 q 654 136 629 136 l 611 277 q 472 272 550 275 q 309 264 393 269 q 295 222 299 240 q 290 189 290 203 q 305 149 290 161 q 347 132 320 136 l 374 127 l 368 -4 q 318 1 347 -1 q 257 5 293 3 q 172 7 220 7 q 129 6 149 7 q 89 5 110 6 q 42 2 68 4 q -21 -4 16 0 l -16 127 q 5 131 -7 129 q 30 134 15 132 q 65 136 45 135 l 424 943 l 597 971 l 856 289 m 366 431 l 564 431 l 484 692 l 456 692 l 366 431 z "},"B":{"ha":942,"x_min":49,"x_max":897,"o":"m 187 686 q 181 747 187 724 q 164 783 176 770 q 138 802 153 796 q 102 811 122 808 l 72 815 l 77 947 q 127 943 98 945 q 189 940 152 941 q 273 939 225 939 q 399 944 341 939 q 511 949 457 949 q 651 932 591 949 q 751 884 711 915 q 812 811 791 854 q 832 715 832 768 q 825 652 832 683 q 806 593 818 621 q 778 545 793 566 q 746 509 762 523 q 807 474 779 494 q 855 425 835 454 q 886 360 875 397 q 897 277 897 323 q 874 160 897 214 q 806 68 851 107 q 696 8 762 30 q 547 -14 631 -14 q 471 -11 509 -14 q 395 -3 433 -7 q 320 4 357 1 q 249 7 283 7 q 155 4 202 7 q 49 -4 107 2 l 54 127 q 91 132 72 130 q 127 135 107 133 q 167 136 147 136 q 172 214 170 169 q 177 310 175 259 q 181 415 179 361 q 184 519 183 469 q 186 613 186 570 q 187 686 187 656 m 647 275 q 637 327 647 303 q 608 367 628 350 q 556 392 587 383 q 481 401 524 401 q 440 400 462 401 q 404 397 418 399 l 400 165 q 428 152 412 157 q 460 142 444 146 q 491 138 477 139 q 514 136 506 136 q 565 145 541 136 q 608 170 589 153 q 636 213 626 187 q 647 275 647 239 m 478 549 q 525 548 501 549 q 571 546 548 548 q 599 594 587 566 q 611 653 611 623 q 600 714 611 687 q 569 759 589 741 q 521 788 549 778 q 457 798 492 798 q 439 798 452 798 q 421 796 427 798 q 417 710 419 753 q 413 629 415 673 q 410 547 411 586 q 425 548 416 548 q 444 549 434 549 q 463 549 454 549 q 478 549 472 549 z "},"C":{"ha":953,"x_min":53,"x_max":905,"o":"m 724 637 q 718 701 724 668 q 693 760 711 733 q 643 804 675 787 q 555 821 610 821 q 460 799 507 821 q 378 736 414 778 q 320 631 342 694 q 298 485 298 568 q 328 323 298 389 q 408 217 358 258 q 521 157 457 176 q 652 139 585 139 q 714 141 683 139 q 772 148 745 144 q 824 157 800 152 q 867 168 848 162 l 904 31 q 833 8 872 19 q 752 -10 795 -2 q 663 -23 709 -18 q 571 -28 617 -28 q 358 3 454 -28 q 195 96 262 35 q 90 247 127 157 q 53 454 53 336 q 93 673 53 576 q 205 835 133 769 q 379 936 277 901 q 603 971 480 971 q 699 968 656 971 q 777 959 741 964 q 844 946 813 954 q 905 932 876 939 l 895 628 l 724 628 l 724 637 z "},"D":{"ha":1099,"x_min":49,"x_max":1051,"o":"m 167 136 q 172 223 170 176 q 176 322 174 271 q 180 426 178 374 q 183 526 182 478 q 185 615 184 574 q 186 686 186 656 q 180 747 186 724 q 162 783 174 770 q 135 802 151 796 q 98 811 119 808 l 72 815 l 78 947 q 140 941 109 943 q 195 936 165 938 q 249 935 225 935 q 327 937 289 935 q 405 942 366 939 q 487 948 445 945 q 575 950 528 950 q 775 918 686 950 q 925 826 863 886 q 1019 680 986 766 q 1051 488 1051 594 q 1042 383 1051 439 q 1009 273 1032 328 q 947 167 986 218 q 848 77 907 116 q 708 15 789 38 q 518 -8 626 -8 q 450 -6 484 -8 q 381 -1 416 -3 q 310 4 346 2 q 235 7 273 7 q 204 6 224 7 q 158 4 184 5 q 104 1 133 3 q 49 -4 76 -1 l 54 127 q 77 131 66 130 q 102 133 89 132 q 131 135 115 134 q 167 136 147 136 m 418 799 q 411 562 414 659 q 406 401 408 465 q 402 304 404 338 q 401 253 401 269 q 400 233 400 237 q 400 229 400 230 q 406 191 400 206 q 428 165 412 175 q 471 151 444 155 q 543 147 499 147 q 594 153 566 147 q 651 175 622 159 q 707 215 680 190 q 756 279 734 240 q 790 371 777 317 q 803 494 803 424 q 798 558 803 524 q 782 627 793 593 q 749 693 770 661 q 697 749 728 725 q 623 788 666 774 q 522 803 580 803 q 464 802 493 803 q 418 799 435 801 z "},"E":{"ha":939,"x_min":49,"x_max":884,"o":"m 561 157 q 627 171 601 159 q 671 202 654 182 q 699 253 688 222 q 718 325 710 283 l 880 325 l 840 -14 q 607 1 729 -4 q 357 5 486 5 q 279 5 317 5 q 204 3 241 4 q 128 0 166 2 q 49 -4 90 -1 l 54 127 q 95 132 75 130 q 132 135 113 133 q 167 136 151 136 q 172 214 170 169 q 176 310 174 259 q 180 415 178 361 q 183 519 182 469 q 185 613 184 570 q 186 686 186 656 q 180 747 186 724 q 162 783 174 770 q 135 802 151 796 q 98 811 119 808 l 72 815 l 78 947 q 162 941 120 943 q 250 936 205 938 q 343 933 294 934 q 446 932 391 932 q 656 936 547 932 q 884 947 765 940 l 863 628 l 705 628 l 701 665 q 691 711 698 691 q 671 746 684 732 q 637 770 658 761 q 587 782 617 779 l 421 799 l 412 546 l 681 557 l 673 389 l 407 407 l 399 147 l 561 157 z "},"F":{"ha":873,"x_min":49,"x_max":869,"o":"m 400 257 q 407 196 400 219 q 425 160 413 173 q 453 141 437 146 q 490 132 470 135 l 517 127 l 511 -4 q 445 1 481 -1 q 373 5 414 3 q 283 7 332 7 q 179 5 237 7 q 49 -4 122 4 l 54 127 q 91 132 72 130 q 127 135 107 133 q 167 136 147 136 q 172 223 170 176 q 176 322 174 271 q 180 426 178 374 q 183 526 182 478 q 185 615 184 574 q 186 686 186 656 q 180 747 186 724 q 162 783 174 770 q 135 802 151 796 q 98 811 119 808 l 72 815 l 78 947 q 162 941 120 943 q 248 936 204 938 q 339 933 292 934 q 439 932 386 932 q 645 936 538 932 q 869 947 751 940 l 848 628 l 692 628 l 688 665 q 677 712 684 691 q 657 747 670 732 q 624 771 644 762 q 574 783 604 780 l 421 799 l 408 518 l 681 529 l 673 361 l 404 379 l 400 257 l 400 257 z "},"G":{"ha":1078,"x_min":52,"x_max":1059,"o":"m 707 153 q 709 215 709 194 q 711 245 710 236 q 711 256 711 254 q 711 258 711 257 q 705 311 711 291 q 686 343 698 332 q 658 361 674 355 q 623 370 642 366 l 595 374 l 600 505 q 677 500 638 503 q 748 496 710 498 q 819 494 786 494 q 875 495 848 494 q 931 496 903 495 q 991 499 960 497 q 1059 505 1023 502 l 1053 374 q 1015 370 1034 372 q 979 367 999 368 q 940 366 960 366 l 929 31 q 856 8 897 19 q 769 -10 814 -2 q 681 -23 724 -18 q 603 -28 637 -28 q 385 3 486 -28 q 210 96 284 35 q 94 247 136 157 q 52 456 52 338 q 94 675 52 579 q 213 837 137 771 q 392 937 288 903 q 619 971 496 971 q 713 968 669 971 q 794 959 756 964 q 865 946 832 954 q 929 932 899 939 l 918 628 l 747 628 l 747 637 q 740 700 747 668 q 713 759 733 732 q 659 803 694 786 q 567 821 623 821 q 470 800 518 821 q 384 738 422 780 q 322 631 345 695 q 298 479 298 567 q 321 332 298 398 q 381 220 343 267 q 471 149 420 174 q 579 123 522 123 q 650 130 618 123 q 707 153 683 137 z "},"H":{"ha":1186,"x_min":49,"x_max":1146,"o":"m 684 947 q 749 941 713 944 q 821 938 780 939 q 911 936 863 936 q 1016 937 958 936 q 1146 947 1073 939 l 1140 815 q 1103 811 1122 813 q 1067 808 1087 810 q 1028 807 1048 807 q 1023 719 1025 767 q 1019 620 1021 671 q 1015 517 1017 569 q 1011 417 1013 465 q 1009 328 1010 370 q 1008 257 1008 287 q 1015 196 1008 219 q 1032 160 1021 173 q 1059 141 1043 146 q 1096 132 1076 135 l 1122 127 l 1117 -4 q 1050 1 1086 -1 q 978 5 1019 3 q 889 7 937 7 q 785 5 842 7 q 654 -4 728 4 l 660 127 q 696 132 677 130 q 733 135 713 133 q 772 136 753 136 q 779 264 776 193 q 785 408 783 335 q 716 408 757 408 q 625 406 675 407 q 518 402 574 404 q 404 396 462 399 q 403 318 403 354 q 403 257 403 283 q 409 196 403 219 q 426 160 415 173 q 454 141 437 146 q 490 132 470 135 l 517 127 l 511 -4 q 445 1 481 -1 q 373 5 414 3 q 283 7 332 7 q 179 5 237 7 q 49 -4 122 4 l 54 127 q 91 132 72 130 q 127 135 107 133 q 167 136 147 136 q 172 223 170 176 q 176 322 174 271 q 180 426 178 374 q 183 526 182 478 q 185 615 184 574 q 186 686 186 656 q 180 747 186 724 q 162 783 174 770 q 135 802 151 796 q 98 811 119 808 l 72 815 l 78 947 q 144 941 108 944 q 216 938 174 939 q 306 936 257 936 q 410 937 353 936 q 541 947 467 939 l 534 815 q 498 811 517 813 q 462 808 481 810 q 422 807 442 807 l 410 562 l 790 562 q 791 631 791 599 q 791 686 791 663 q 785 747 791 724 q 768 783 779 770 q 741 802 757 796 q 704 811 724 808 l 677 815 l 684 947 z "},"I":{"ha":582,"x_min":49,"x_max":541,"o":"m 78 947 q 144 941 108 944 q 216 938 174 939 q 306 936 257 936 q 410 937 353 936 q 541 947 467 939 l 534 815 q 498 811 517 813 q 462 808 481 810 q 422 807 442 807 q 417 719 420 767 q 413 620 415 671 q 409 517 411 569 q 406 417 407 465 q 404 328 404 370 q 403 257 403 287 q 409 196 403 219 q 426 160 415 173 q 454 141 437 146 q 490 132 470 135 l 517 127 l 511 -4 q 445 1 481 -1 q 373 5 414 3 q 283 7 332 7 q 179 5 237 7 q 49 -4 122 4 l 54 127 q 91 132 72 130 q 127 135 107 133 q 167 136 147 136 q 172 223 170 176 q 176 322 174 271 q 180 426 178 374 q 183 526 182 478 q 185 615 184 574 q 186 686 186 656 q 180 747 186 724 q 162 783 174 770 q 135 802 151 796 q 98 811 119 808 l 72 815 l 78 947 z "},"J":{"ha":542,"x_min":-77,"x_max":524,"o":"m 61 947 q 127 941 90 944 q 199 938 157 939 q 289 936 241 936 q 393 937 336 936 q 524 947 450 939 l 518 815 q 481 811 500 813 q 445 808 465 810 q 406 807 425 807 q 401 743 404 783 q 397 652 399 703 q 393 545 395 602 q 389 430 391 488 q 385 315 387 372 q 381 209 382 258 q 378 120 380 159 q 376 57 377 81 q 356 -47 374 5 q 295 -154 338 -100 q 181 -265 252 -208 q 4 -380 111 -321 l -77 -254 q 24 -158 -22 -208 q 62 -113 43 -137 q 97 -62 81 -88 q 125 -10 113 -37 q 140 43 136 16 q 149 130 145 77 q 157 244 153 182 q 162 371 160 306 q 166 497 165 437 q 169 607 168 557 q 170 686 170 656 q 163 747 170 724 q 146 783 157 770 q 119 802 135 796 q 82 811 102 808 l 56 815 l 61 947 l 61 947 z "},"K":{"ha":1057,"x_min":49,"x_max":1042,"o":"m 78 947 q 144 941 108 944 q 216 938 174 939 q 306 936 257 936 q 410 937 353 936 q 541 947 467 939 l 534 815 q 498 811 517 813 q 462 808 481 810 q 422 807 442 807 q 417 719 420 767 q 413 620 415 671 q 409 517 411 569 q 406 417 407 465 q 404 328 404 370 q 403 257 403 287 q 409 196 403 219 q 426 160 415 173 q 454 141 437 146 q 490 132 470 135 l 517 127 l 511 -4 q 445 1 481 -1 q 373 5 414 3 q 283 7 332 7 q 179 5 237 7 q 49 -4 122 4 l 54 127 q 91 132 72 130 q 127 135 107 133 q 167 136 147 136 q 172 223 170 176 q 176 322 174 271 q 180 426 178 374 q 183 526 182 478 q 185 615 184 574 q 186 686 186 656 q 180 747 186 724 q 162 783 174 770 q 135 802 151 796 q 98 811 119 808 l 72 815 l 78 947 m 618 947 q 697 940 648 943 q 810 937 746 937 q 919 940 865 937 q 1013 947 972 942 l 1006 817 l 989 814 q 905 783 948 810 q 810 696 863 756 l 667 533 l 779 371 q 840 285 810 327 q 902 208 870 243 q 968 149 934 174 q 1042 115 1002 125 l 1038 11 q 999 -4 1019 -1 q 961 -8 980 -8 q 858 5 907 -8 q 764 46 809 18 q 678 118 720 74 q 596 225 636 163 l 453 447 l 454 493 l 697 808 q 669 810 684 810 q 642 812 654 811 q 612 815 627 814 l 618 947 z "},"L":{"ha":896,"x_min":47,"x_max":879,"o":"m 53 127 q 90 132 71 130 q 126 135 106 133 q 165 136 146 136 q 170 223 168 176 q 175 322 172 271 q 179 426 177 374 q 182 526 180 478 q 184 615 183 574 q 184 686 184 656 q 178 747 184 724 q 161 783 172 770 q 134 802 150 796 q 97 811 117 808 l 71 815 l 77 947 q 142 941 106 944 q 214 938 173 939 q 304 936 256 936 q 409 937 351 936 q 539 947 466 939 l 533 815 q 496 811 515 813 q 460 808 480 810 q 421 807 441 807 q 411 591 416 757 q 399 151 406 425 l 546 163 q 611 176 585 165 q 654 207 637 187 q 683 256 671 227 q 703 325 694 285 l 879 325 l 839 -14 q 620 1 733 -4 q 376 5 507 5 q 212 3 294 5 q 47 -4 129 1 l 53 127 z "},"M":{"ha":1333,"x_min":5,"x_max":1305,"o":"m 224 943 l 412 971 l 657 387 l 685 387 l 903 943 l 1125 971 l 1190 257 q 1200 196 1194 219 q 1218 160 1207 173 q 1243 141 1228 146 q 1279 132 1259 135 l 1305 127 l 1301 -4 q 1241 1 1274 -1 q 1173 5 1213 3 q 1084 7 1133 7 q 982 4 1038 7 q 852 -4 926 2 l 859 127 q 895 132 876 130 q 931 135 911 133 q 971 136 951 136 l 936 576 l 908 576 l 696 37 l 559 37 l 339 576 l 311 576 q 308 440 309 496 q 305 348 306 385 q 303 291 304 311 q 303 261 303 271 q 302 249 302 252 q 302 245 302 247 q 309 191 302 212 q 326 158 315 170 q 353 140 337 146 q 389 132 369 135 l 416 127 l 411 -4 q 350 1 382 -1 q 284 5 321 3 q 204 7 247 7 q 160 6 180 7 q 118 4 140 5 q 69 1 96 3 q 5 -4 42 -1 l 11 127 q 47 132 28 130 q 84 135 64 133 q 123 136 104 136 l 224 943 z "},"N":{"ha":1118,"x_min":36,"x_max":1086,"o":"m 806 669 q 797 738 804 712 q 777 779 789 764 q 746 801 764 794 q 705 811 728 808 l 673 815 l 679 947 q 743 941 711 944 q 806 938 772 939 q 872 936 840 936 q 918 936 895 936 q 966 938 941 937 q 1021 941 991 939 q 1086 947 1050 943 l 1080 817 q 1051 812 1067 814 q 1020 810 1038 811 q 983 808 1003 808 l 966 378 q 963 263 964 315 q 961 168 962 212 q 960 83 960 124 q 960 1 960 43 l 819 -28 l 329 575 l 304 571 l 317 275 q 325 206 318 233 q 345 164 332 180 q 376 142 358 149 q 416 132 393 136 l 449 127 l 443 -4 q 379 1 412 -1 q 317 5 351 3 q 250 7 283 7 q 204 6 227 7 q 156 5 181 6 q 102 2 131 4 q 36 -4 73 -1 l 41 127 q 72 132 55 130 q 104 135 85 133 q 142 136 122 136 l 157 572 q 163 757 161 677 q 165 897 165 836 l 165 943 l 300 971 l 791 368 l 817 372 l 806 669 z "},"O":{"ha":1082,"x_min":52,"x_max":1038,"o":"m 52 467 q 88 664 52 572 q 193 824 125 756 q 358 932 261 892 q 575 971 455 971 q 774 932 688 971 q 919 826 860 892 q 1007 673 977 760 q 1038 492 1038 587 q 1020 354 1038 420 q 971 231 1003 288 q 895 125 940 173 q 795 43 850 77 q 677 -9 741 9 q 543 -28 613 -28 q 325 12 417 -28 q 171 118 232 51 q 81 276 111 186 q 52 467 52 366 m 536 821 q 431 791 476 821 q 357 716 387 762 q 313 612 328 669 q 298 498 298 555 q 316 354 298 422 q 367 235 334 286 q 446 154 399 184 q 550 123 492 123 q 655 152 610 123 q 729 228 700 181 q 773 332 759 274 q 787 447 787 389 q 770 590 787 522 q 720 709 753 658 q 641 790 688 760 q 536 821 595 821 z "},"P":{"ha":896,"x_min":49,"x_max":880,"o":"m 421 794 q 416 708 418 755 q 412 611 414 661 q 408 511 410 562 q 405 414 406 460 q 404 327 404 368 q 403 257 403 287 q 409 196 403 219 q 426 160 415 173 q 454 141 437 146 q 490 132 470 135 l 517 127 l 511 -4 q 445 1 481 -1 q 373 5 414 3 q 283 7 332 7 q 179 5 237 7 q 49 -4 122 4 l 54 127 q 91 132 72 130 q 127 135 107 133 q 167 136 147 136 q 172 223 170 176 q 176 322 174 271 q 180 426 178 374 q 183 526 182 478 q 185 615 184 574 q 186 686 186 656 q 180 747 186 724 q 162 783 174 770 q 135 802 151 796 q 98 811 119 808 l 72 815 l 78 947 q 140 943 108 945 q 198 940 167 941 q 260 939 230 939 q 346 940 309 939 q 414 944 383 942 q 474 947 446 945 q 534 949 503 949 q 684 929 619 949 q 792 873 749 910 q 858 785 836 837 q 880 667 880 732 q 866 571 880 614 q 826 492 851 527 q 767 431 800 457 q 695 388 733 405 q 616 361 656 370 q 536 353 575 353 q 463 361 498 353 l 469 509 q 488 506 482 506 q 503 505 494 505 q 554 515 530 505 q 595 545 578 526 q 623 591 613 564 q 633 653 633 618 q 588 760 633 723 q 465 798 543 798 q 441 797 454 798 q 421 794 429 795 z "},"Q":{"ha":1082,"x_min":52,"x_max":1038,"o":"m 233 -126 q 273 -106 251 -116 q 319 -87 295 -96 q 370 -73 344 -79 q 422 -68 396 -68 q 500 -77 463 -68 q 574 -100 538 -86 q 642 -132 609 -115 q 704 -164 675 -149 q 760 -192 734 -180 q 808 -207 786 -203 l 928 -170 l 985 -288 q 939 -329 964 -309 q 886 -365 914 -349 q 825 -389 857 -380 q 760 -397 793 -397 q 686 -386 722 -397 q 616 -356 650 -374 q 552 -317 583 -338 q 494 -274 521 -295 q 445 -236 467 -254 q 407 -211 423 -219 l 278 -249 l 233 -126 m 52 467 q 88 664 52 572 q 193 824 125 756 q 358 932 261 892 q 575 971 455 971 q 774 932 688 971 q 919 826 860 892 q 1007 673 977 760 q 1038 492 1038 587 q 1020 354 1038 420 q 971 231 1003 288 q 895 125 940 173 q 795 43 850 77 q 677 -9 741 9 q 543 -28 613 -28 q 325 12 417 -28 q 171 118 232 51 q 81 276 111 186 q 52 467 52 366 m 536 821 q 431 791 476 821 q 357 716 387 762 q 313 612 328 669 q 298 498 298 555 q 316 354 298 422 q 367 235 334 286 q 446 154 399 184 q 550 123 492 123 q 655 152 610 123 q 729 228 700 181 q 773 332 759 274 q 787 447 787 389 q 770 590 787 522 q 720 709 753 658 q 641 790 688 760 q 536 821 595 821 z "},"R":{"ha":997,"x_min":49,"x_max":981,"o":"m 404 257 q 410 196 404 219 q 427 160 416 173 q 454 141 438 146 q 490 132 470 135 l 517 127 l 511 -4 q 445 1 481 -1 q 373 5 414 3 q 283 7 332 7 q 179 5 237 7 q 49 -4 122 4 l 54 127 q 91 132 72 130 q 127 135 107 133 q 167 136 147 136 q 172 223 170 176 q 176 322 174 271 q 180 426 178 374 q 183 526 182 478 q 185 615 184 574 q 186 686 186 656 q 180 747 186 724 q 162 783 174 770 q 135 802 151 796 q 98 811 119 808 l 72 815 l 78 947 q 143 943 111 945 q 204 940 172 941 q 267 939 237 939 q 328 940 295 939 q 395 944 360 942 q 464 947 429 945 q 533 949 499 949 q 683 929 618 949 q 792 873 748 909 q 858 784 836 836 q 880 665 880 731 q 868 579 880 618 q 834 509 856 541 q 782 454 812 478 q 715 414 752 431 l 777 302 q 830 220 802 256 q 884 162 857 185 q 935 127 910 138 q 981 115 960 115 l 975 0 q 952 -4 965 -2 q 925 -7 941 -5 q 889 -8 909 -8 q 797 3 840 -8 q 713 41 753 14 q 636 110 673 67 q 567 216 600 153 l 488 366 q 473 364 480 364 q 458 364 466 364 q 429 365 444 364 q 406 366 415 366 q 404 306 404 336 q 404 257 404 277 m 425 796 q 421 740 423 772 q 416 671 418 708 q 413 592 414 633 q 410 509 411 551 q 433 506 421 506 q 458 505 445 505 q 588 543 541 505 q 635 653 635 581 q 621 719 635 692 q 584 764 608 747 q 530 789 561 781 q 463 798 498 798 q 443 798 452 798 q 425 796 433 798 z "},"S":{"ha":850,"x_min":64,"x_max":793,"o":"m 436 815 q 354 793 385 815 q 323 732 323 772 q 333 693 323 711 q 359 660 342 675 q 398 629 375 644 q 447 600 420 614 l 566 538 q 650 489 609 515 q 722 428 690 462 q 773 350 754 393 q 793 252 793 307 q 772 152 793 202 q 704 62 751 102 q 582 -3 657 22 q 399 -28 507 -28 q 306 -25 353 -28 q 216 -17 259 -22 q 133 -4 172 -12 q 64 11 94 3 l 74 315 l 231 315 l 233 293 q 244 237 236 267 q 274 184 253 208 q 330 143 294 159 q 424 127 366 127 q 513 149 479 127 q 547 208 547 170 q 538 244 547 228 q 513 276 530 261 q 474 306 497 292 q 421 336 450 321 l 289 407 q 209 456 247 429 q 142 515 171 482 q 95 590 113 549 q 78 685 78 632 q 85 753 78 719 q 108 819 92 787 q 151 878 124 850 q 219 927 178 906 q 316 959 260 947 q 447 971 372 971 q 540 968 494 971 q 629 960 586 965 q 710 947 672 954 q 779 932 749 940 l 760 628 l 603 628 l 600 646 q 589 701 596 671 q 564 756 581 730 q 516 798 547 781 q 436 815 486 815 z "},"T":{"ha":939,"x_min":37,"x_max":936,"o":"m 783 628 l 778 665 q 767 708 774 691 q 746 734 760 724 q 713 749 733 744 q 663 757 692 753 l 597 764 q 591 645 593 705 q 586 530 588 585 q 583 425 584 474 q 581 339 581 376 q 579 277 580 301 q 579 245 579 252 q 585 191 579 212 q 603 158 591 170 q 630 140 614 146 q 665 132 646 135 l 694 127 l 690 -4 q 624 1 660 -1 q 552 5 593 3 q 463 7 511 7 q 358 5 416 7 q 228 -4 301 4 l 232 127 q 269 132 250 130 q 306 135 286 133 q 346 136 326 136 q 351 222 348 176 q 355 319 353 269 q 359 419 357 369 q 363 516 361 470 q 365 603 364 563 q 366 673 366 644 l 366 787 q 319 791 336 790 q 294 793 302 793 q 282 794 286 794 q 278 794 279 794 q 241 788 258 794 q 211 766 224 781 q 188 725 197 751 q 174 661 178 700 l 170 628 l 37 628 l 47 947 q 178 941 111 944 q 239 939 207 940 q 305 938 271 939 q 373 936 338 937 q 440 936 408 936 q 585 936 520 936 q 707 938 649 937 q 820 942 764 939 q 936 951 875 945 l 916 628 l 783 628 z "},"U":{"ha":1080,"x_min":39,"x_max":1086,"o":"m 930 346 q 815 70 916 165 q 525 -26 715 -26 q 365 -3 436 -26 q 245 63 294 20 q 169 167 195 106 q 142 304 142 229 q 142 351 142 320 q 144 421 143 382 q 147 501 146 459 q 150 580 149 543 q 152 646 151 617 q 153 686 153 674 q 146 747 153 724 q 129 783 140 770 q 102 802 118 796 q 65 811 85 808 l 39 815 l 45 947 q 108 941 73 944 q 178 938 138 939 q 267 936 218 936 q 371 937 313 936 q 501 947 428 939 l 496 815 q 459 811 477 813 q 424 808 443 810 q 385 807 404 807 q 374 493 377 604 q 371 349 371 381 q 386 246 371 289 q 428 176 401 203 q 491 136 455 149 q 568 123 527 123 q 652 139 616 123 q 713 182 689 154 q 750 250 738 210 q 764 339 763 290 q 766 486 765 426 q 767 585 766 546 q 768 646 768 624 q 768 677 768 667 q 768 689 768 687 q 768 692 768 691 q 762 749 768 727 q 744 784 755 771 q 716 802 732 796 q 681 811 701 808 l 653 815 l 659 947 q 711 941 681 944 q 774 938 737 939 q 860 936 811 936 q 908 936 883 936 q 960 938 932 937 q 1019 941 987 939 q 1086 947 1050 943 l 1080 815 q 1044 811 1063 813 q 1007 808 1027 810 q 968 807 987 807 l 930 346 z "},"V":{"ha":1032,"x_min":1,"x_max":1060,"o":"m 684 640 q 706 711 697 681 q 715 760 715 741 q 712 781 715 772 q 702 796 709 790 q 684 805 694 802 q 659 811 673 808 l 631 815 l 636 947 q 687 941 658 944 q 748 938 712 939 q 833 936 785 936 q 881 936 857 936 q 933 938 906 937 q 992 941 961 939 q 1060 947 1023 943 l 1054 815 q 1017 811 1036 813 q 981 808 1001 810 q 942 807 962 807 l 583 0 l 410 -28 l 136 696 q 111 753 123 732 q 86 787 98 774 q 59 804 73 799 q 28 811 45 808 l 1 815 l 7 947 q 73 941 37 944 q 146 938 104 939 q 236 936 188 936 q 340 937 283 936 q 471 947 397 939 l 465 815 q 429 811 448 813 q 392 808 412 810 q 353 807 372 807 l 524 253 l 551 253 l 684 640 z "},"W":{"ha":1371,"x_min":14,"x_max":1404,"o":"m 1074 650 q 1092 721 1085 695 q 1099 764 1099 746 q 1086 795 1099 785 q 1046 810 1073 804 l 1010 815 l 1015 947 q 1113 939 1060 942 q 1223 936 1166 936 q 1275 937 1252 936 q 1320 939 1299 937 q 1362 943 1341 941 q 1404 947 1383 945 l 1398 815 q 1380 812 1388 813 q 1365 809 1373 810 q 1348 808 1357 808 q 1328 807 1339 808 l 1008 0 l 822 -29 l 703 427 l 682 427 l 538 0 l 346 -28 l 142 705 q 121 758 133 738 q 95 790 109 779 q 66 806 81 801 q 35 812 50 810 l 14 815 l 20 947 q 122 940 64 943 q 244 936 180 936 q 370 940 313 936 q 478 947 427 943 l 472 815 q 422 810 446 811 q 374 807 397 808 l 468 311 l 496 311 l 660 829 l 817 854 l 964 311 l 986 311 l 1074 650 z "},"X":{"ha":1064,"x_min":28,"x_max":1040,"o":"m 180 733 q 149 769 163 755 q 123 791 135 783 q 99 804 111 800 q 75 811 87 808 l 54 815 l 60 947 q 158 939 104 942 q 273 936 212 936 q 397 939 339 936 q 507 947 456 942 l 501 815 q 454 810 481 812 q 406 807 427 808 l 564 612 l 618 681 q 650 730 642 711 q 659 764 659 748 q 644 795 659 785 q 604 810 629 806 l 572 815 l 578 947 q 683 939 623 942 q 810 936 744 936 q 936 939 876 936 q 1040 947 996 942 l 1035 815 q 1002 811 1015 812 q 970 808 988 810 l 653 503 l 892 210 q 924 173 910 188 q 951 150 939 159 q 976 137 964 141 q 1000 131 987 132 l 1021 127 l 1015 -4 q 917 3 970 0 q 802 7 863 7 q 677 4 736 7 q 568 -4 619 2 l 574 127 q 621 133 593 130 q 669 136 648 135 l 504 334 l 447 257 q 429 231 436 241 q 417 211 422 220 q 411 195 413 202 q 410 179 410 187 q 423 147 410 157 q 460 132 437 136 l 489 127 l 484 -4 q 379 3 439 0 q 254 7 320 7 q 130 4 189 7 q 28 -4 72 1 l 33 127 q 52 131 43 130 q 69 133 60 132 q 86 134 77 134 q 107 135 96 134 l 412 443 l 180 733 z "},"Y":{"ha":979,"x_min":9,"x_max":1006,"o":"m 639 672 q 667 727 659 705 q 676 765 676 749 q 663 796 676 786 q 627 810 650 806 l 595 815 l 600 947 q 692 939 645 942 q 798 936 740 936 q 908 939 854 936 q 1006 947 962 942 l 1000 817 q 981 813 989 814 q 964 811 972 812 q 948 809 956 810 q 928 808 939 809 l 606 346 q 605 313 605 326 q 604 292 604 301 q 604 276 604 283 q 604 257 604 268 q 610 196 604 219 q 628 160 616 173 q 655 141 639 146 q 692 132 671 135 l 718 127 l 713 -4 q 647 1 683 -1 q 575 5 616 3 q 486 7 534 7 q 381 5 439 7 q 250 -4 323 4 l 256 127 q 292 132 273 130 q 329 135 309 133 q 368 136 349 136 q 370 172 369 151 q 373 218 372 193 q 375 269 374 242 q 378 321 376 295 l 129 729 q 102 768 115 752 q 77 793 89 783 q 53 807 64 802 q 29 812 41 811 l 9 815 l 16 947 q 121 940 60 943 q 244 936 181 936 q 370 940 313 936 q 479 947 428 943 l 472 815 q 411 810 437 811 q 359 807 385 808 l 524 519 l 550 519 l 639 672 z "},"Z":{"ha":935,"x_min":41,"x_max":885,"o":"m 85 608 l 97 947 q 294 939 199 942 q 489 936 389 936 q 586 937 538 936 q 682 939 634 937 q 779 943 730 941 q 879 947 827 945 l 869 785 l 335 151 l 542 165 q 613 176 591 167 q 653 204 635 186 q 685 251 671 222 q 709 325 699 281 l 885 325 l 845 -14 q 654 -1 757 -6 q 449 3 565 2 q 247 3 333 4 q 121 -1 161 1 q 41 -4 81 -3 l 47 144 l 578 793 l 372 779 q 329 769 345 778 q 300 741 312 760 q 280 689 289 721 q 260 608 271 656 l 85 608 z "},"[":{"ha":467,"x_min":90,"x_max":454,"o":"m 411 -241 l 256 -241 l 90 -241 l 134 999 l 454 999 l 453 882 l 298 882 l 262 -125 l 416 -125 l 411 -241 z "},"\\":{"ha":917,"x_min":86,"x_max":829,"o":"m 829 -241 l 685 -241 l 86 999 l 231 999 l 829 -241 z "},"]":{"ha":469,"x_min":11,"x_max":379,"o":"m 171 -125 l 205 882 l 52 882 l 56 999 l 379 999 l 335 -241 l 164 -241 l 11 -241 l 16 -125 l 171 -125 z "},"^":{"ha":610,"x_min":41,"x_max":568,"o":"m 186 595 l 41 595 l 265 943 l 345 943 l 568 595 l 425 595 l 306 781 l 186 595 z "},"_":{"ha":1053,"x_min":102,"x_max":907,"o":"m 102 -205 l 907 -205 l 907 -272 l 102 -272 l 102 -205 z "},"`":{"ha":444,"x_min":69,"x_max":375,"o":"m 300 741 l 69 951 q 98 975 81 960 q 133 1006 115 989 q 167 1037 151 1022 q 192 1061 183 1053 l 375 808 l 300 741 z "},"a":{"ha":725,"x_min":37,"x_max":733,"o":"m 733 57 q 659 3 700 23 q 568 -17 617 -17 q 477 12 511 -17 q 431 87 443 41 q 394 47 414 66 q 347 14 373 28 q 290 -9 321 -1 q 220 -17 258 -17 q 139 -3 173 -17 q 82 33 104 10 q 48 85 60 56 q 37 144 37 114 q 56 225 37 191 q 104 284 74 259 q 173 325 134 309 q 254 350 212 340 q 335 362 295 359 q 410 367 376 366 q 411 382 411 376 q 411 395 411 388 q 389 451 411 432 q 329 471 368 471 q 296 467 314 471 q 261 454 278 463 q 229 427 243 444 q 205 383 214 410 q 165 385 189 383 q 119 395 142 387 q 81 422 97 404 q 65 473 65 441 q 77 522 65 500 q 108 561 88 543 q 155 590 128 578 q 212 611 182 603 q 273 624 241 620 q 334 628 304 628 q 447 617 396 628 q 533 580 497 606 q 588 513 568 555 q 607 411 607 471 q 605 359 607 391 q 600 294 602 327 q 595 232 597 260 q 593 191 593 203 q 597 166 593 176 q 608 150 602 156 q 624 141 615 144 q 640 139 632 139 q 660 141 652 139 q 679 149 669 143 l 733 57 m 395 253 q 344 249 372 253 q 292 234 316 244 q 250 209 267 224 q 233 172 233 194 q 247 141 233 153 q 286 129 260 129 q 325 136 305 129 q 361 158 345 143 q 389 197 377 173 q 406 253 401 220 l 395 253 z "},"b":{"ha":732,"x_min":8,"x_max":699,"o":"m 399 447 q 339 437 369 447 q 286 411 310 427 l 278 136 q 312 127 294 131 q 351 123 330 123 q 406 139 381 123 q 450 181 431 154 q 478 244 468 208 q 489 323 489 281 q 464 414 489 380 q 399 447 439 447 m 261 497 q 365 594 309 560 q 488 628 420 628 q 585 606 545 628 q 650 547 625 583 q 687 466 675 511 q 699 372 699 420 q 685 255 699 309 q 646 158 671 201 q 589 82 622 115 q 517 27 556 50 q 436 -6 479 5 q 351 -17 394 -17 q 283 -14 319 -17 q 211 -2 248 -10 q 138 20 175 6 q 66 54 102 33 q 77 184 72 116 q 86 321 82 252 q 94 457 90 390 q 99 585 97 525 q 103 696 102 646 q 104 782 104 747 q 101 828 104 805 q 86 869 97 851 q 57 900 75 888 q 8 913 38 911 l 12 1022 q 94 1028 50 1023 q 181 1039 138 1032 q 264 1053 225 1045 q 332 1069 304 1061 l 261 497 z "},"c":{"ha":643,"x_min":26,"x_max":614,"o":"m 608 81 q 480 8 553 34 q 322 -17 407 -17 q 199 3 254 -17 q 106 62 144 24 q 47 154 68 100 q 26 275 26 208 q 51 412 26 348 q 122 525 76 477 q 233 600 168 572 q 378 628 298 628 q 471 615 428 628 q 546 581 514 603 q 596 530 578 559 q 614 468 614 501 q 564 369 614 402 q 418 336 515 336 q 413 390 416 364 q 400 436 409 416 q 378 468 392 456 q 342 479 363 479 q 298 467 317 479 q 264 432 278 455 q 243 377 251 409 q 236 304 236 345 q 248 230 236 261 q 283 178 260 198 q 337 148 305 157 q 407 138 368 138 q 485 145 441 138 q 567 168 528 153 l 608 81 z "},"d":{"ha":751,"x_min":25,"x_max":746,"o":"m 452 469 l 422 469 q 352 455 386 469 q 292 414 318 440 q 250 350 266 387 q 235 267 235 312 q 243 212 235 236 q 266 173 252 189 q 296 149 279 157 q 330 140 313 140 q 389 153 359 140 q 440 191 418 165 l 452 469 m 463 782 q 440 877 463 846 q 367 913 417 908 l 371 1022 q 452 1028 408 1023 q 539 1039 496 1032 q 623 1053 583 1045 q 690 1069 663 1061 q 667 798 676 920 q 651 576 657 676 q 644 393 646 475 q 642 241 642 311 q 668 146 642 178 q 746 110 695 114 l 742 0 l 732 0 q 661 -2 693 0 q 600 -7 629 -3 q 543 -15 570 -10 q 485 -28 515 -20 l 511 115 q 469 65 493 90 q 415 23 446 41 q 349 -6 385 5 q 268 -17 312 -17 q 173 -1 218 -17 q 96 47 129 14 q 44 130 63 79 q 25 249 25 180 q 58 405 25 335 q 149 524 92 475 q 281 601 205 574 q 441 628 357 628 l 458 628 q 460 676 459 655 q 461 715 461 697 q 462 749 462 733 q 463 782 463 764 z "},"e":{"ha":685,"x_min":26,"x_max":629,"o":"m 231 253 q 248 207 235 228 q 282 170 261 185 q 332 146 303 155 q 399 138 361 138 q 476 144 433 138 q 558 165 519 150 l 602 81 q 476 8 546 34 q 322 -17 407 -17 q 196 4 252 -17 q 103 64 141 26 q 46 157 66 103 q 26 275 26 211 q 48 410 26 346 q 112 523 70 474 q 214 600 153 571 q 353 628 275 628 q 471 609 419 628 q 557 557 522 591 q 611 477 593 524 q 629 375 629 431 q 627 336 629 356 q 623 299 625 316 q 618 261 621 279 q 522 253 577 255 q 403 250 466 250 q 359 251 382 250 q 313 251 336 251 q 269 252 290 252 q 231 253 248 252 m 347 479 q 313 473 330 479 q 281 452 296 466 q 255 416 266 437 q 237 366 243 395 q 295 369 264 366 q 353 374 326 372 q 399 379 380 377 q 421 383 418 382 l 421 393 q 402 455 421 431 q 347 479 384 479 z "},"f":{"ha":541,"x_min":8,"x_max":596,"o":"m 134 611 l 138 694 q 157 787 140 741 q 202 875 175 833 q 265 952 230 916 q 338 1014 300 988 q 413 1055 376 1040 q 484 1069 451 1069 q 566 1043 536 1069 q 596 966 596 1017 q 592 931 596 947 q 581 904 588 916 q 564 880 574 891 q 545 859 555 869 q 500 880 522 872 q 453 888 479 888 q 373 854 398 888 q 343 755 347 821 l 335 611 q 395 614 364 612 q 454 618 427 616 q 504 624 482 621 q 538 628 526 626 l 510 467 q 435 468 470 467 q 374 470 404 469 q 326 472 343 471 q 324 421 325 448 q 323 366 323 394 q 323 312 323 338 q 323 262 323 286 q 329 203 323 231 q 346 155 334 176 q 375 123 357 135 q 418 110 393 111 l 414 0 l 399 0 q 237 -5 309 0 q 96 -28 164 -11 q 115 208 106 78 q 131 493 123 337 q 97 496 117 494 q 56 500 76 498 q 8 505 33 503 l 12 611 l 134 611 z "},"g":{"ha":799,"x_min":12,"x_max":799,"o":"m 629 465 q 631 442 631 456 q 632 419 632 428 q 608 321 632 364 q 542 248 583 278 q 444 202 500 218 q 326 186 389 186 l 309 186 q 299 167 302 178 q 298 144 295 155 q 311 123 300 133 q 346 111 322 114 l 517 90 q 640 44 600 78 q 679 -54 679 10 q 662 -132 679 -93 q 615 -207 645 -171 q 542 -273 585 -242 q 449 -327 500 -304 q 340 -362 398 -349 q 221 -375 282 -375 q 66 -338 120 -375 q 12 -235 12 -302 q 23 -177 12 -203 q 53 -129 34 -151 q 96 -86 72 -106 q 149 -47 121 -66 q 127 -37 138 -43 q 106 -20 116 -31 q 91 4 97 -10 q 85 40 85 19 q 95 86 85 64 q 119 129 104 109 q 152 167 134 149 q 186 201 170 185 q 124 233 149 214 q 84 276 99 252 q 62 327 68 300 q 56 382 56 354 q 78 477 56 433 q 140 554 100 522 q 236 605 180 587 q 359 624 292 624 q 445 617 408 624 q 510 601 482 611 q 557 578 538 591 q 587 554 576 566 q 611 580 598 568 q 639 603 624 593 q 671 618 654 612 q 708 624 688 624 q 774 602 750 624 q 799 541 799 580 q 788 490 799 512 q 761 453 778 467 q 723 471 743 465 q 679 476 703 476 q 652 474 665 476 q 629 465 640 471 m 253 -66 q 222 -110 234 -84 q 210 -161 210 -135 q 214 -190 210 -176 q 229 -212 218 -203 q 257 -228 240 -222 q 300 -233 274 -233 q 349 -227 322 -233 q 399 -208 376 -220 q 437 -178 422 -196 q 453 -138 453 -161 q 451 -122 453 -130 q 440 -106 448 -114 q 417 -92 432 -98 q 376 -82 401 -85 l 253 -66 m 343 486 q 308 477 322 486 q 285 455 294 469 q 272 426 276 442 q 268 395 268 410 q 272 366 268 381 q 286 338 276 351 q 311 317 296 325 q 350 309 327 309 q 383 316 369 309 q 406 336 397 324 q 418 364 414 349 q 422 395 422 379 q 418 424 422 408 q 404 454 414 440 q 379 477 395 468 q 343 486 364 486 z "},"h":{"ha":782,"x_min":8,"x_max":768,"o":"m 261 493 q 311 545 285 520 q 368 588 338 569 q 433 617 398 606 q 507 628 467 628 q 581 614 548 628 q 638 572 614 600 q 674 504 661 545 q 686 410 686 463 q 684 360 686 387 q 680 307 682 332 q 675 260 677 281 q 673 229 673 239 q 679 182 673 204 q 696 144 684 161 q 726 119 708 128 q 768 110 744 110 l 764 0 l 750 0 q 662 -2 701 0 q 586 -7 622 -3 q 517 -16 551 -10 q 446 -31 483 -22 q 462 73 454 18 q 474 178 469 127 q 482 273 479 229 q 485 345 485 317 q 465 424 485 401 q 407 447 446 447 q 347 437 376 447 q 297 414 318 427 q 294 373 296 399 q 291 315 292 348 q 288 244 289 283 q 288 165 288 206 q 290 82 288 124 q 296 0 292 40 q 224 -3 257 0 q 162 -10 191 -5 q 108 -20 134 -15 q 58 -31 83 -26 q 76 92 68 26 q 88 229 83 158 q 96 372 93 299 q 101 516 100 445 q 104 655 103 588 q 104 782 104 722 q 82 877 104 846 q 8 913 59 908 l 12 1022 q 94 1028 50 1023 q 181 1039 138 1032 q 264 1053 225 1045 q 332 1069 304 1061 l 261 493 z "},"i":{"ha":418,"x_min":18,"x_max":400,"o":"m 111 838 q 121 891 111 869 q 148 929 132 914 q 185 950 164 943 q 229 957 207 957 q 272 950 251 957 q 310 929 294 943 q 337 891 327 914 q 347 838 347 869 q 338 786 347 809 q 313 746 329 763 q 276 721 297 730 q 229 711 254 711 q 183 721 204 711 q 145 746 161 730 q 120 786 130 763 q 111 838 111 809 m 396 0 l 380 0 q 217 -5 291 0 q 75 -28 144 -11 q 89 65 82 20 q 102 156 96 111 q 111 245 107 201 q 114 336 114 290 q 91 435 114 404 q 18 471 68 467 l 22 581 q 195 597 115 584 q 345 628 275 610 q 318 431 330 531 q 306 239 306 331 q 332 140 306 171 q 400 110 358 110 l 396 0 z "},"j":{"ha":401,"x_min":-114,"x_max":346,"o":"m 110 838 q 120 891 110 869 q 146 929 130 914 q 184 950 163 943 q 228 957 205 957 q 271 950 250 957 q 309 929 292 943 q 336 891 326 914 q 346 838 346 869 q 337 786 346 809 q 312 746 328 763 q 274 721 296 730 q 228 711 253 711 q 181 721 203 711 q 144 746 160 730 q 119 786 128 763 q 110 838 110 809 m 343 628 q 319 385 326 522 q 309 86 312 248 l 307 14 q 292 -80 306 -33 q 254 -171 277 -127 q 200 -251 231 -214 q 136 -316 170 -288 q 66 -359 102 -343 q -1 -375 31 -375 q -84 -349 -54 -375 q -114 -272 -114 -323 q -110 -237 -114 -252 q -99 -209 -106 -222 q -82 -186 -92 -197 q -62 -164 -73 -175 q -18 -185 -39 -178 q 29 -193 3 -193 q 80 -160 66 -193 q 98 -61 95 -126 q 106 84 103 20 q 110 197 109 149 q 112 280 112 245 q 113 336 113 314 q 90 435 113 404 q 17 471 67 467 l 21 581 q 194 597 113 584 q 343 628 274 610 z "},"k":{"ha":739,"x_min":8,"x_max":684,"o":"m 279 359 q 340 467 310 417 q 402 552 370 516 q 472 608 435 587 q 554 628 509 628 q 605 618 583 628 q 642 592 627 608 q 665 554 657 576 q 673 510 673 533 q 663 455 673 482 q 629 404 652 428 q 600 417 616 412 q 562 421 583 421 q 484 406 523 421 q 418 355 446 391 l 498 252 q 548 190 525 217 q 594 144 572 163 q 638 112 616 124 q 684 94 660 100 l 677 0 q 631 -12 654 -8 q 585 -16 608 -16 q 523 -8 554 -16 q 459 17 491 -1 q 397 62 428 34 q 336 132 366 90 l 281 210 q 278 126 279 168 q 278 58 278 85 l 278 0 q 155 -8 207 0 q 61 -28 104 -17 q 79 194 71 81 q 93 413 87 307 q 101 615 98 520 q 104 782 104 710 q 82 877 104 846 q 8 913 59 908 l 12 1022 q 94 1028 50 1023 q 181 1039 138 1032 q 264 1053 225 1045 q 332 1069 304 1061 l 279 359 z "},"l":{"ha":399,"x_min":8,"x_max":380,"o":"m 286 256 q 292 203 286 229 q 309 156 297 177 q 338 123 320 136 q 380 110 355 110 l 376 0 l 361 0 q 276 -1 316 0 q 199 -6 236 -3 q 127 -14 162 -9 q 58 -28 93 -20 q 84 216 75 99 q 98 436 94 333 q 103 627 102 540 q 104 782 104 715 q 82 877 104 846 q 8 913 59 908 l 12 1022 q 94 1028 50 1023 q 181 1039 138 1032 q 264 1053 225 1045 q 332 1069 304 1061 q 304 799 313 922 q 291 575 295 676 q 287 395 287 475 q 286 256 286 315 z "},"m":{"ha":1131,"x_min":14,"x_max":1117,"o":"m 1117 110 l 1113 0 l 1099 0 q 1010 -1 1050 0 q 935 -6 970 -3 q 866 -14 900 -9 q 795 -28 832 -20 q 811 75 804 21 q 824 180 818 129 q 832 274 829 231 q 836 376 835 317 q 821 426 836 406 q 775 447 806 447 q 751 444 764 447 q 725 437 738 441 q 700 426 712 432 q 677 414 688 420 q 674 370 675 399 q 671 306 672 342 q 669 228 669 269 q 668 145 668 186 q 670 66 669 104 q 676 0 672 28 q 611 -2 644 0 q 547 -8 578 -5 q 490 -17 517 -12 q 444 -28 464 -22 q 455 70 450 16 q 465 179 460 124 q 472 286 469 234 q 475 376 475 337 q 460 427 475 407 q 414 447 446 447 q 390 445 403 447 q 363 438 376 442 q 337 428 350 434 q 313 414 323 422 q 308 342 310 380 q 305 264 306 304 q 304 184 304 224 q 305 110 304 144 q 308 46 306 75 q 311 0 309 18 q 245 -2 279 0 q 179 -8 211 -5 q 121 -17 148 -12 q 74 -28 94 -22 q 89 74 83 21 q 100 176 96 127 q 107 267 105 224 q 110 336 110 309 q 87 435 110 404 q 14 471 64 467 l 18 581 q 94 586 55 582 q 169 597 132 591 q 240 612 206 604 q 301 628 273 620 l 275 493 q 398 595 334 563 q 519 628 463 628 q 566 623 544 628 q 608 605 589 617 q 642 572 627 593 q 667 522 656 552 q 705 557 684 538 q 753 591 727 576 q 807 617 779 607 q 867 628 836 628 q 939 616 907 628 q 991 579 970 605 q 1024 511 1013 553 q 1035 410 1035 469 q 1028 295 1034 355 q 1023 227 1023 236 q 1028 182 1023 204 q 1045 144 1034 161 q 1075 119 1057 128 q 1117 110 1093 110 z "},"n":{"ha":798,"x_min":14,"x_max":783,"o":"m 275 493 q 325 544 298 519 q 383 587 352 568 q 449 617 414 606 q 525 628 485 628 q 656 572 612 628 q 701 410 701 517 q 699 360 701 387 q 695 307 697 332 q 691 260 693 281 q 689 229 689 239 q 694 182 689 204 q 712 144 700 161 q 741 119 724 128 q 783 110 759 110 l 779 0 l 765 0 q 676 -1 716 0 q 602 -6 637 -3 q 532 -14 566 -9 q 461 -28 498 -20 q 477 75 470 21 q 489 180 484 129 q 497 274 494 231 q 500 345 500 317 q 495 393 500 374 q 480 425 490 413 q 456 442 471 437 q 422 447 441 447 q 363 437 392 447 q 313 414 334 427 q 310 373 311 399 q 307 315 309 348 q 305 244 306 283 q 305 165 304 206 q 306 82 305 124 q 310 0 307 40 q 238 -2 271 0 q 176 -8 205 -5 q 122 -17 148 -12 q 74 -28 97 -22 q 89 74 83 21 q 100 176 96 127 q 107 267 105 224 q 110 336 110 309 q 105 391 110 367 q 89 432 100 415 q 60 459 78 449 q 14 471 41 469 l 18 581 q 170 597 100 584 q 301 628 241 611 l 275 493 z "},"o":{"ha":713,"x_min":26,"x_max":681,"o":"m 26 281 q 51 411 26 348 q 122 522 76 473 q 233 599 168 570 q 378 628 298 628 q 514 606 457 628 q 608 545 571 584 q 663 454 646 507 q 681 342 681 402 q 653 201 681 267 q 577 87 625 135 q 467 11 530 39 q 335 -17 404 -17 q 190 7 249 -17 q 95 72 131 31 q 42 167 58 113 q 26 281 26 221 m 236 304 q 245 234 236 265 q 270 180 254 202 q 307 145 286 157 q 351 134 328 134 q 398 145 376 134 q 436 180 420 157 q 461 234 452 202 q 471 304 471 265 q 461 377 471 345 q 436 432 452 410 q 398 467 420 455 q 351 479 376 479 q 307 467 328 479 q 270 432 286 455 q 245 377 254 410 q 236 304 236 345 z "},"p":{"ha":753,"x_min":12,"x_max":720,"o":"m 289 -77 q 292 -130 288 -102 q 307 -181 296 -158 q 336 -219 317 -204 q 383 -235 355 -234 l 379 -345 l 364 -345 q 200 -351 274 -345 q 58 -375 127 -358 q 78 -178 69 -278 q 94 16 87 -78 q 105 192 101 110 q 109 336 109 275 q 87 433 109 400 q 12 471 66 467 l 17 581 q 92 586 54 582 q 166 597 130 591 q 236 612 203 604 q 297 628 269 620 l 272 497 q 334 560 303 534 q 395 600 365 585 q 456 622 426 615 q 514 628 486 628 q 607 607 568 628 q 671 551 646 586 q 708 471 696 516 q 720 379 720 427 q 689 206 720 280 q 608 82 659 132 q 494 8 558 33 q 363 -17 430 -17 q 347 -17 357 -17 q 327 -16 337 -16 q 307 -15 317 -16 q 290 -14 297 -14 l 289 -77 m 419 447 q 361 437 390 447 q 310 414 333 427 q 303 322 306 371 q 298 231 300 273 q 294 134 296 182 q 335 126 315 128 q 375 123 355 123 q 427 139 403 123 q 470 182 452 155 q 499 247 488 210 q 510 328 510 284 q 485 416 510 385 q 419 447 460 447 z "},"q":{"ha":715,"x_min":25,"x_max":725,"o":"m 669 589 q 653 409 660 502 q 641 226 646 316 q 633 54 635 136 q 631 -92 631 -28 q 636 -143 631 -118 q 653 -189 642 -169 q 682 -221 665 -209 q 725 -235 700 -234 l 721 -345 l 703 -345 q 541 -351 613 -345 q 400 -375 469 -358 q 411 -274 406 -323 q 421 -175 416 -224 q 429 -74 425 -125 q 436 35 433 -22 q 366 -2 407 13 q 277 -17 326 -17 q 180 -2 226 -17 q 100 45 134 14 q 45 127 65 77 q 25 245 25 177 q 57 400 25 330 q 145 521 90 471 q 275 600 201 572 q 435 628 350 628 q 569 617 510 628 q 669 589 629 606 m 452 471 l 427 471 q 354 456 389 471 q 292 415 319 441 q 250 350 266 388 q 235 265 235 312 q 243 210 235 233 q 267 171 252 186 q 300 149 281 156 q 339 142 319 142 q 390 155 365 142 q 440 189 415 168 l 452 471 z "},"r":{"ha":608,"x_min":14,"x_max":595,"o":"m 314 418 q 311 380 313 404 q 308 325 309 355 q 306 258 307 294 q 304 186 304 222 q 305 94 304 141 q 311 0 306 46 q 178 -8 239 0 q 74 -28 117 -17 q 89 74 83 21 q 100 176 96 127 q 107 267 105 224 q 110 336 110 309 q 87 435 110 404 q 14 471 64 467 l 18 581 q 94 586 55 582 q 169 597 132 591 q 240 612 206 604 q 301 628 273 620 l 275 493 q 321 549 296 524 q 371 591 345 574 q 423 618 397 609 q 475 628 449 628 q 563 596 532 628 q 595 505 595 564 q 579 437 595 463 q 538 389 563 410 q 512 407 527 398 q 481 422 498 415 q 448 432 465 429 q 414 436 431 436 q 389 435 403 436 q 361 432 375 434 q 334 426 347 429 q 314 418 322 422 z "},"s":{"ha":625,"x_min":25,"x_max":589,"o":"m 236 232 q 151 271 188 252 q 90 313 115 290 q 54 362 66 335 q 41 427 41 390 q 58 497 41 461 q 112 562 75 532 q 208 609 149 591 q 353 628 267 628 q 448 620 405 628 q 523 594 492 611 q 571 553 554 577 q 589 496 589 528 q 564 419 589 454 q 494 374 539 385 q 452 412 475 391 q 406 449 430 432 q 355 478 381 467 q 301 489 328 489 q 267 479 279 489 q 254 454 254 470 q 264 435 254 444 q 291 418 275 426 q 327 402 307 410 q 366 387 347 395 l 383 380 q 476 338 438 359 q 538 293 514 317 q 572 243 562 270 q 583 182 583 216 q 565 109 583 145 q 507 45 546 73 q 407 0 467 18 q 265 -17 347 -17 q 167 -8 212 -17 q 91 18 123 1 q 42 61 60 35 q 25 119 25 86 q 51 193 25 164 q 123 235 77 222 q 154 200 136 219 q 197 163 172 180 q 251 134 221 146 q 315 122 281 122 q 355 133 338 122 q 371 161 371 144 q 358 181 371 172 q 325 199 345 191 q 281 216 304 208 q 236 232 257 224 z "},"t":{"ha":530,"x_min":0,"x_max":500,"o":"m 258 -18 q 172 -1 205 -18 q 122 44 140 16 q 100 108 105 72 q 94 183 94 144 q 96 240 94 206 q 100 315 98 275 q 105 402 102 356 q 111 494 109 448 l 0 505 l 4 611 l 115 611 q 116 656 116 635 q 117 695 117 676 q 118 734 117 715 q 118 775 118 753 l 340 828 q 326 718 332 772 q 317 611 321 664 q 363 613 339 612 q 410 617 387 615 q 454 622 433 619 q 493 628 475 625 l 471 467 l 307 472 q 300 350 302 410 q 297 243 297 290 q 304 200 297 217 q 321 174 311 184 q 344 161 332 165 q 368 157 357 157 q 410 164 390 157 q 444 182 431 172 l 500 89 q 449 45 477 65 q 389 12 420 26 q 323 -11 357 -3 q 258 -18 290 -18 z "},"u":{"ha":803,"x_min":12,"x_max":785,"o":"m 681 241 q 708 146 681 178 q 785 110 734 114 l 781 0 l 771 0 q 700 -2 732 0 q 638 -7 667 -3 q 582 -15 610 -10 q 524 -28 554 -20 l 550 114 q 502 67 532 90 q 436 25 473 44 q 359 -5 400 6 q 278 -17 319 -17 q 203 -4 237 -17 q 143 35 168 9 q 103 100 117 61 q 89 192 89 139 q 94 280 89 237 q 98 359 98 323 q 93 399 98 380 q 77 432 87 418 q 50 456 66 447 q 12 468 34 466 l 17 578 q 104 584 62 579 q 184 595 146 589 q 257 611 222 602 q 328 628 293 619 q 314 532 320 584 q 302 429 307 480 q 293 330 296 377 q 290 248 290 282 q 297 208 290 224 q 315 182 304 192 q 343 168 327 172 q 379 164 359 164 q 434 174 408 164 q 479 196 460 184 q 481 234 480 210 q 483 288 482 258 q 485 353 484 318 q 485 422 485 387 q 485 509 485 465 q 481 597 484 553 q 613 607 552 597 q 717 628 674 617 q 699 509 706 568 q 688 398 692 450 q 682 305 684 346 q 681 241 681 264 z "},"v":{"ha":697,"x_min":7,"x_max":660,"o":"m 244 611 q 274 494 260 549 q 303 387 288 440 q 334 278 317 334 q 370 158 350 222 q 406 229 390 193 q 432 299 421 265 q 448 365 442 334 q 453 419 453 395 q 440 505 453 468 q 406 575 427 543 q 436 598 422 589 q 466 615 451 608 q 497 625 481 622 q 534 628 514 628 q 629 595 597 628 q 660 498 660 562 q 645 398 660 454 q 598 279 629 342 q 520 145 568 216 q 407 0 472 75 l 205 0 q 164 155 185 79 q 119 307 143 231 q 68 458 96 382 q 7 611 41 534 l 244 611 z "},"w":{"ha":1002,"x_min":7,"x_max":964,"o":"m 233 611 l 313 221 l 449 611 l 570 611 l 697 170 q 741 286 724 224 q 757 407 757 347 q 704 575 757 492 q 734 598 720 588 q 764 614 749 608 q 796 625 779 621 q 835 628 813 628 q 887 618 863 628 q 928 590 911 608 q 954 545 945 572 q 964 484 964 518 q 950 387 964 439 q 909 274 937 334 q 834 145 880 214 q 724 0 789 77 l 566 -28 l 469 282 l 371 0 l 187 -28 q 145 140 167 54 q 101 308 123 225 q 55 468 78 391 q 7 611 31 545 l 233 611 z "},"x":{"ha":696,"x_min":9,"x_max":686,"o":"m 9 611 l 277 611 q 342 501 308 557 q 406 399 376 446 q 419 415 414 406 q 429 435 425 425 q 435 456 433 446 q 437 476 437 467 q 428 528 437 502 q 396 583 419 555 q 459 616 425 604 q 534 628 494 628 q 589 618 566 628 q 627 593 612 609 q 649 556 642 577 q 656 514 656 536 q 641 448 656 478 q 602 390 627 417 q 546 338 578 362 q 479 292 514 314 q 541 204 515 241 q 590 136 567 168 q 635 72 612 104 q 686 0 658 41 l 416 0 q 354 107 384 54 q 289 214 323 159 q 261 175 272 195 q 250 127 250 155 q 260 77 250 100 q 293 28 270 53 q 230 -4 264 9 q 155 -17 196 -17 q 66 15 96 -17 q 37 102 37 46 q 52 165 37 134 q 90 224 66 196 q 147 277 115 253 q 215 321 179 302 l 9 611 z "},"y":{"ha":708,"x_min":-56,"x_max":664,"o":"m 248 611 q 267 531 256 574 q 292 440 279 487 q 318 347 304 393 q 345 258 332 300 q 369 180 357 216 q 389 122 380 145 q 409 174 398 144 q 429 236 420 203 q 444 302 438 269 q 450 367 450 336 q 438 481 450 427 q 400 575 425 535 q 464 614 433 601 q 534 628 495 628 q 587 620 563 628 q 628 596 610 612 q 654 553 645 579 q 664 492 664 528 q 643 365 664 435 q 584 212 623 294 q 488 37 545 130 q 358 -157 431 -56 q 293 -239 328 -199 q 221 -309 258 -278 q 145 -357 184 -339 q 66 -375 106 -375 q 14 -367 37 -375 q -25 -343 -9 -358 q -48 -307 -40 -328 q -56 -261 -56 -286 q -51 -227 -56 -244 q -38 -195 -46 -210 q -20 -167 -31 -180 q 3 -146 -9 -154 q 49 -171 26 -163 q 98 -179 71 -179 q 149 -170 125 -179 q 192 -146 172 -161 q 226 -114 211 -132 q 252 -78 241 -96 q 133 267 198 91 q 1 611 67 442 l 248 611 z "},"z":{"ha":700,"x_min":28,"x_max":659,"o":"m 28 103 q 124 201 74 148 q 221 306 174 254 q 307 406 268 358 q 370 489 346 454 q 283 479 319 489 q 221 451 248 469 q 177 410 195 434 q 143 359 158 387 q 112 376 129 364 q 81 405 96 388 q 57 444 67 422 q 47 490 47 465 q 59 547 47 522 q 91 590 70 572 q 142 618 112 608 q 210 628 172 628 q 273 625 239 628 q 338 617 306 621 q 400 609 370 612 q 452 606 429 606 q 517 610 482 606 q 589 628 552 614 l 659 496 q 577 418 618 461 q 497 327 537 374 q 417 231 457 280 q 336 136 377 182 q 428 144 390 136 q 492 166 465 152 q 537 202 519 181 q 572 248 556 222 q 604 223 589 237 q 630 191 619 208 q 648 154 642 174 q 654 114 654 135 q 643 60 654 84 q 611 19 632 36 q 560 -8 590 1 q 493 -17 530 -17 q 430 -13 460 -17 q 369 -4 399 -9 q 308 5 339 1 q 243 9 277 9 q 186 5 212 9 q 141 -5 160 1 q 111 -14 122 -10 q 98 -17 100 -18 l 28 103 z "},"{":{"ha":467,"x_min":26,"x_max":467,"o":"m 220 357 q 277 308 255 335 q 312 249 300 280 q 329 183 325 217 q 334 114 334 149 q 329 23 334 69 q 325 -71 325 -22 q 327 -100 325 -86 q 334 -126 328 -113 q 350 -149 339 -138 q 379 -170 361 -160 l 428 -195 l 392 -292 q 266 -249 317 -277 q 185 -184 216 -222 q 142 -102 155 -147 q 129 -8 129 -58 q 133 65 129 25 q 138 147 138 105 q 136 190 138 171 q 128 225 134 210 q 110 254 122 241 q 77 277 98 267 l 26 301 l 29 418 l 82 440 q 121 467 107 450 q 143 513 136 484 q 152 585 150 542 q 154 690 154 628 q 168 795 154 745 q 214 886 181 845 q 301 958 246 927 q 437 1006 355 989 l 467 908 l 414 882 q 380 857 392 871 q 361 824 368 843 q 354 778 355 804 q 353 714 353 751 l 353 660 q 349 577 353 620 q 332 494 345 534 q 292 419 319 454 q 220 357 265 383 z "},"|":{"ha":314,"x_min":89,"x_max":225,"o":"m 89 1054 l 225 1054 l 225 -272 l 89 -272 l 89 1054 z "},"}":{"ha":467,"x_min":-3,"x_max":437,"o":"m 244 357 q 187 406 209 378 q 152 466 165 434 q 135 531 140 497 q 131 600 131 566 q 135 691 131 645 q 139 785 139 736 q 137 813 139 800 q 130 840 136 827 q 114 863 125 852 q 85 884 103 874 l 36 908 l 72 1006 q 198 963 147 990 q 279 898 248 935 q 322 817 309 861 q 335 722 335 772 q 331 649 335 688 q 326 567 326 609 q 328 523 326 543 q 336 488 330 504 q 354 460 342 473 q 387 437 366 448 l 437 412 l 435 296 l 382 273 q 342 246 357 263 q 321 201 328 229 q 312 129 314 172 q 310 24 310 86 q 296 -81 310 -31 q 250 -172 283 -131 q 163 -244 218 -214 q 26 -292 109 -275 l -3 -195 l 50 -168 q 83 -143 71 -157 q 102 -110 96 -130 q 110 -63 108 -90 q 111 0 111 -37 l 111 54 q 115 137 111 94 q 132 220 119 180 q 172 295 145 260 q 244 357 198 331 z "},"~":{"ha":694,"x_min":41,"x_max":653,"o":"m 493 435 q 525 446 508 435 q 555 471 541 457 q 586 507 571 487 l 653 454 q 622 398 640 428 q 581 343 604 369 q 532 301 558 318 q 475 285 505 285 q 405 296 442 285 q 332 322 368 308 q 262 348 296 336 q 203 359 229 359 q 171 348 187 359 q 142 322 155 336 q 111 285 126 305 l 41 338 q 73 394 54 363 q 114 450 92 424 q 164 493 137 475 q 221 510 191 510 q 291 498 254 510 q 364 472 328 486 q 434 447 400 458 q 493 435 467 435 z "},"":{"ha":310,"x_min":0,"x_max":0,"o":""},"":{"ha":376,"x_min":52,"x_max":313,"o":"m 313 501 q 302 447 313 470 q 276 410 292 425 q 238 389 260 395 q 195 382 217 382 q 152 389 173 382 q 114 410 130 395 q 87 447 97 425 q 77 501 77 470 q 86 553 77 530 q 111 593 95 576 q 148 619 126 610 q 195 628 170 628 q 241 619 220 628 q 278 593 262 610 q 303 553 294 576 q 313 501 313 530 m 52 -346 q 67 -235 60 -290 q 80 -126 74 -179 q 92 -25 86 -74 q 101 66 97 24 q 118 256 111 166 l 254 256 q 259 66 256 166 q 262 -25 260 24 q 267 -126 264 -74 q 272 -235 269 -179 q 279 -346 275 -290 q 261 -345 273 -345 q 234 -344 250 -345 q 201 -343 219 -344 q 165 -343 184 -343 q 130 -343 147 -343 q 97 -344 112 -344 q 70 -345 81 -345 q 52 -346 58 -345 z "},"":{"ha":643,"x_min":26,"x_max":614,"o":"m 608 81 q 510 20 564 43 q 393 -11 456 -3 l 393 -157 l 236 -157 l 244 -8 q 153 26 193 2 q 84 86 113 50 q 41 170 56 122 q 26 275 26 218 q 43 388 26 334 q 91 487 60 442 q 167 564 122 531 q 268 612 212 596 l 268 745 l 425 745 l 416 625 q 495 606 459 621 q 558 571 532 592 q 599 524 584 551 q 614 468 614 498 q 564 369 614 402 q 418 336 515 336 q 413 390 416 364 q 400 436 409 416 q 378 468 392 456 q 342 479 363 479 q 298 467 317 479 q 264 432 278 455 q 243 377 251 409 q 236 304 236 345 q 248 230 236 261 q 283 178 260 198 q 337 148 305 157 q 407 138 368 138 q 485 145 441 138 q 567 168 528 153 l 608 81 z "},"":{"ha":785,"x_min":28,"x_max":771,"o":"m 150 595 q 144 621 146 609 q 139 645 141 633 q 136 669 137 656 q 135 696 135 682 q 152 776 135 739 q 198 844 169 813 q 266 898 227 874 q 349 938 304 922 q 440 963 393 954 q 533 971 488 971 q 681 933 633 971 q 729 829 729 895 q 690 733 729 768 q 581 696 652 699 q 566 753 576 726 q 539 800 556 780 q 499 831 523 820 q 446 843 476 843 q 399 833 418 843 q 368 806 380 823 q 351 767 357 789 q 346 718 346 744 q 349 657 346 690 q 358 595 352 625 q 435 596 395 595 q 510 599 475 597 q 573 603 545 601 q 615 608 601 605 l 561 443 q 469 439 519 439 q 429 439 450 439 q 386 440 408 439 q 389 413 388 425 q 390 392 390 402 q 381 326 390 357 q 357 265 372 294 q 324 210 342 236 q 288 163 306 184 q 323 182 304 174 q 360 195 339 189 q 406 201 382 201 q 461 194 433 201 q 515 178 489 186 q 565 161 542 169 q 608 154 589 154 q 654 166 632 154 q 703 200 675 178 l 771 104 q 730 64 753 85 q 682 25 708 43 q 624 -5 655 7 q 558 -17 593 -17 q 478 -3 517 -17 q 401 27 439 11 q 326 58 363 44 q 254 72 290 72 q 224 67 239 72 q 200 56 210 63 l 117 -28 l 28 68 q 103 156 73 113 q 150 241 133 199 q 174 327 167 283 q 180 419 180 371 q 180 438 180 429 q 178 457 179 448 l 79 468 l 83 595 l 150 595 z "},"":{"ha":979,"x_min":41,"x_max":911,"o":"m 102 473 q 118 584 102 531 q 164 684 134 637 l 41 806 l 150 914 l 272 791 q 367 838 316 821 q 473 854 418 854 q 583 838 531 854 q 681 791 635 821 l 803 914 l 911 806 l 789 684 q 836 584 819 637 q 852 473 852 531 q 837 367 852 418 q 791 271 821 315 l 911 153 l 803 45 l 686 161 q 586 113 640 130 q 473 96 532 96 q 363 113 416 96 q 267 161 311 131 l 150 45 l 41 153 l 161 271 q 117 367 133 315 q 102 473 102 418 m 256 478 q 273 390 256 431 q 320 318 290 349 q 391 269 351 287 q 476 250 431 250 q 563 269 523 250 q 634 318 604 287 q 681 390 664 349 q 699 478 699 431 q 681 567 699 525 q 634 639 664 608 q 563 688 604 670 q 476 707 523 707 q 391 688 431 707 q 320 639 351 670 q 273 567 290 608 q 256 478 256 525 z "},"":{"ha":1072,"x_min":28,"x_max":1023,"o":"m 657 672 q 686 727 677 705 q 694 765 694 749 q 681 796 694 786 q 644 810 667 806 l 612 815 l 618 947 q 710 939 663 942 q 815 936 758 936 q 926 939 872 936 q 1023 947 979 942 l 1018 817 q 999 813 1007 814 q 982 811 990 812 q 966 809 975 810 q 946 808 958 809 l 775 564 l 917 564 l 913 447 q 842 446 880 446 q 771 446 810 446 q 692 444 732 446 l 624 347 l 909 347 l 905 231 q 823 230 868 230 q 733 229 785 229 q 623 228 682 229 q 632 182 625 199 q 651 155 640 165 q 677 140 662 144 q 710 132 692 135 l 736 127 l 730 -4 q 665 1 701 -1 q 593 5 635 3 q 504 7 552 7 q 399 5 457 7 q 268 -4 342 4 l 273 127 q 310 132 291 130 q 346 135 326 133 q 386 136 366 136 l 392 222 q 242 216 314 220 q 115 208 171 212 l 121 347 l 379 347 l 325 437 q 220 432 272 435 q 125 425 169 429 l 131 564 l 248 564 l 147 729 q 120 768 133 752 q 95 793 107 783 q 71 807 83 802 q 47 812 60 811 l 28 815 l 33 947 q 138 940 78 943 q 262 936 199 936 q 388 940 330 936 q 497 947 446 943 l 490 815 q 429 810 454 811 q 378 807 403 808 l 542 519 l 568 519 l 657 672 z "},"":{"ha":332,"x_min":97,"x_max":235,"o":"m 97 1054 l 235 1054 l 235 582 l 97 582 l 97 1054 m 97 200 l 235 200 l 235 -272 l 97 -272 l 97 200 z "},"":{"ha":635,"x_min":32,"x_max":578,"o":"m 435 24 q 440 63 439 43 q 441 106 441 84 q 432 183 441 146 q 408 257 423 221 q 373 325 393 292 q 334 389 354 358 q 268 487 297 444 q 217 562 239 529 q 182 621 196 595 q 163 669 169 646 q 157 630 158 650 q 155 587 155 609 q 164 510 155 547 q 189 436 174 472 q 224 368 204 401 q 264 304 243 335 q 329 206 300 248 q 379 131 358 164 q 415 73 401 98 q 435 24 429 47 m 262 -178 q 301 -161 286 -178 q 317 -114 317 -144 q 309 -60 317 -87 q 286 -6 301 -34 q 250 54 271 22 q 201 123 229 85 q 130 228 161 180 q 77 325 98 276 q 43 428 55 374 q 32 549 32 481 q 42 641 32 592 q 71 736 52 689 q 118 825 90 783 q 182 901 146 868 q 264 952 219 933 q 361 971 309 971 q 431 963 401 971 q 480 940 460 954 q 509 905 499 925 q 518 861 518 884 q 512 827 518 845 q 490 793 505 809 q 448 766 474 778 q 385 750 422 754 q 374 798 381 779 q 358 829 368 817 q 338 847 349 842 q 317 852 328 852 q 301 849 309 852 q 287 839 293 846 q 276 823 280 832 q 272 802 272 814 q 297 723 272 766 q 367 623 323 680 q 445 516 407 570 q 512 407 483 463 q 560 292 542 351 q 578 170 578 233 q 567 69 578 122 q 534 -36 555 16 q 481 -135 512 -87 q 409 -217 450 -182 q 320 -274 369 -253 q 215 -296 271 -296 q 145 -287 175 -296 q 96 -264 116 -279 q 67 -229 77 -249 q 57 -184 57 -208 q 64 -150 57 -168 q 87 -116 71 -132 q 130 -87 103 -100 q 196 -71 156 -75 q 206 -121 199 -101 q 223 -154 214 -142 q 242 -172 232 -167 q 262 -178 253 -178 z "},"":{"ha":590,"x_min":69,"x_max":521,"o":"m 164 747 q 127 754 144 747 q 97 774 110 761 q 77 807 84 787 q 69 852 69 827 q 76 895 69 875 q 96 931 83 916 q 127 955 109 946 q 168 964 145 964 q 204 957 187 964 q 234 937 221 950 q 254 905 247 924 q 261 861 261 886 q 255 818 261 838 q 236 781 248 797 q 205 756 224 766 q 164 747 187 747 m 422 747 q 387 754 404 747 q 357 774 370 761 q 336 807 344 787 q 329 852 329 827 q 336 895 329 875 q 356 931 342 916 q 387 955 369 946 q 429 964 406 964 q 465 957 448 964 q 494 937 481 950 q 514 905 507 924 q 521 861 521 886 q 514 818 521 838 q 495 781 508 797 q 464 756 482 766 q 422 747 446 747 z "},"":{"ha":1099,"x_min":54,"x_max":1050,"o":"m 103 472 q 119 353 103 410 q 165 246 136 296 q 235 155 194 196 q 327 84 277 113 q 434 39 376 55 q 553 22 491 22 q 671 39 614 22 q 779 84 728 55 q 870 155 829 113 q 940 246 911 196 q 985 353 969 296 q 1002 472 1002 410 q 985 591 1002 534 q 940 699 969 649 q 870 790 911 749 q 779 861 829 831 q 671 906 728 890 q 553 922 614 922 q 434 906 491 922 q 327 861 376 890 q 235 790 277 831 q 165 699 194 749 q 119 591 136 649 q 103 472 103 534 m 54 472 q 72 604 54 541 q 122 723 90 668 q 200 824 155 779 q 301 902 246 869 q 420 952 357 935 q 553 970 484 970 q 685 952 621 970 q 804 902 749 935 q 905 824 859 869 q 982 723 950 779 q 1032 604 1015 668 q 1050 472 1050 541 q 1032 340 1050 404 q 982 221 1015 276 q 905 121 950 166 q 804 43 859 75 q 685 -7 749 10 q 553 -25 621 -25 q 420 -7 484 -25 q 301 43 357 10 q 200 121 246 75 q 122 221 155 166 q 72 340 90 276 q 54 472 54 404 m 659 574 q 655 611 659 592 q 643 644 652 629 q 614 668 633 659 q 562 677 595 677 q 507 665 533 677 q 460 629 480 653 q 427 568 439 604 q 415 485 415 532 q 433 391 415 429 q 480 329 451 353 q 546 295 509 306 q 619 285 583 285 q 692 289 657 285 q 750 301 727 294 l 772 220 q 729 207 753 213 q 680 195 706 200 q 626 188 654 191 q 571 184 598 184 q 449 203 506 184 q 350 257 392 221 q 283 345 307 292 q 258 467 258 398 q 284 594 258 538 q 354 689 309 650 q 459 748 398 728 q 590 768 519 768 q 647 766 621 768 q 694 761 672 764 q 735 754 716 758 q 772 746 754 750 l 768 568 l 659 568 l 659 574 z "},"":{"ha":597,"x_min":79,"x_max":618,"o":"m 618 627 q 560 586 592 601 q 490 570 528 570 q 419 593 446 570 q 384 651 393 615 q 355 620 371 634 q 319 594 339 605 q 275 576 299 583 q 220 570 250 570 q 157 581 184 570 q 114 609 131 591 q 88 649 96 626 q 79 695 79 671 q 93 758 79 731 q 131 803 107 784 q 184 834 154 822 q 247 854 214 847 q 310 864 279 861 q 368 867 341 867 q 368 879 368 875 q 368 889 368 884 q 352 932 368 918 q 304 947 335 947 q 279 945 293 947 q 252 935 265 942 q 227 914 239 927 q 210 880 216 901 q 178 881 197 880 q 143 889 160 882 q 113 910 125 896 q 100 949 100 924 q 110 987 100 970 q 134 1017 119 1004 q 170 1040 149 1031 q 214 1057 191 1050 q 261 1066 237 1063 q 309 1069 286 1069 q 396 1061 357 1069 q 463 1032 435 1052 q 505 980 490 1013 q 520 901 520 948 q 518 861 520 886 q 514 810 516 836 q 511 762 513 785 q 509 731 509 740 q 513 712 509 720 q 521 699 516 704 q 533 693 526 694 q 546 691 540 691 q 561 692 555 691 q 576 699 568 694 l 618 627 m 356 779 q 317 776 338 779 q 276 765 295 772 q 244 745 257 757 q 231 717 231 733 q 241 692 231 702 q 272 683 252 683 q 301 688 286 683 q 329 705 317 694 q 351 735 342 717 q 364 779 361 754 l 356 779 z "},"":{"ha":675,"x_min":28,"x_max":608,"o":"m 595 160 l 549 115 l 314 355 l 564 595 l 608 550 l 481 355 l 595 160 m 433 98 l 374 40 l 28 355 l 393 671 l 453 612 l 248 355 l 433 98 z "},"":{"ha":750,"x_min":74,"x_max":671,"o":"m 671 220 l 543 220 l 543 372 l 74 372 l 74 500 l 671 500 l 671 220 z "},"":{"ha":526,"x_min":69,"x_max":456,"o":"m 456 419 l 452 264 l 69 264 l 74 419 l 456 419 z "},"":{"ha":739,"x_min":58,"x_max":697,"o":"m 58 650 q 83 774 58 716 q 152 876 109 833 q 253 945 195 920 q 378 970 311 970 q 502 945 444 970 q 604 876 560 920 q 672 774 647 833 q 697 650 697 716 q 672 525 697 583 q 604 424 647 467 q 502 355 560 380 q 378 330 444 330 q 253 355 311 330 q 152 424 195 380 q 83 525 109 467 q 58 650 58 583 m 97 648 q 119 540 97 591 q 179 451 141 489 q 269 390 218 412 q 376 368 319 368 q 486 390 435 368 q 575 451 537 412 q 636 540 614 489 q 659 648 659 591 q 636 757 659 706 q 575 847 614 808 q 486 907 537 885 q 376 929 435 929 q 269 907 319 929 q 179 847 218 885 q 119 757 141 808 q 97 648 97 706 m 338 575 q 340 552 338 561 q 347 538 342 543 q 359 531 352 533 q 374 526 366 528 l 383 524 l 380 472 q 354 474 368 473 q 326 475 342 475 q 290 476 309 476 q 249 476 271 476 q 197 472 227 475 l 200 524 q 214 526 207 524 q 229 527 220 526 q 244 528 237 528 q 247 581 245 551 q 249 642 248 612 q 251 701 250 673 q 252 746 252 728 q 249 769 252 760 q 242 783 247 778 q 231 790 238 787 q 216 794 224 792 l 207 798 l 208 848 q 235 847 222 848 q 259 846 246 846 q 283 846 272 846 q 334 848 307 846 q 389 850 361 850 q 492 820 457 850 q 528 737 528 790 q 509 675 528 700 q 461 637 490 651 l 486 593 q 528 538 506 556 q 567 519 550 519 l 564 473 q 555 472 559 473 q 544 471 551 471 q 530 471 538 471 q 461 490 492 471 q 403 559 430 509 l 371 618 l 339 618 q 338 595 338 606 q 338 575 338 583 m 346 789 q 343 739 345 770 q 340 675 342 709 q 349 673 345 673 q 359 673 354 673 q 411 688 392 673 q 431 732 431 703 q 410 776 431 763 q 361 789 389 789 l 346 789 z "},"":{"ha":802,"x_min":178,"x_max":566,"o":"m 566 879 l 561 751 l 178 751 l 182 879 l 566 879 z "},"":{"ha":498,"x_min":69,"x_max":456,"o":"m 178 781 q 201 719 178 744 q 265 694 224 694 q 298 701 283 694 q 323 719 313 707 q 340 747 334 731 q 347 781 347 762 q 323 840 347 817 q 265 864 300 864 q 201 840 224 864 q 178 781 178 817 m 69 781 q 84 856 69 821 q 125 916 99 890 q 187 957 151 942 q 265 971 223 971 q 340 957 305 971 q 401 916 375 942 q 441 856 427 890 q 456 781 456 821 q 441 703 456 739 q 401 641 427 667 q 340 600 375 614 q 265 585 305 585 q 187 600 223 585 q 125 641 151 614 q 84 703 99 667 q 69 781 69 739 z "},"":{"ha":785,"x_min":71,"x_max":710,"o":"m 710 40 l 71 40 l 71 168 l 710 168 l 710 40 m 710 500 l 454 500 l 454 244 l 326 244 l 326 500 l 71 500 l 71 628 l 326 628 l 326 884 l 454 884 l 454 628 l 710 628 l 710 500 z "},"":{"ha":484,"x_min":54,"x_max":432,"o":"m 220 975 q 181 958 197 975 q 165 914 165 941 q 166 905 165 909 q 168 896 167 901 q 146 884 159 888 q 122 880 134 880 q 80 895 98 880 q 62 940 62 909 q 77 995 62 970 q 115 1035 91 1019 q 171 1061 139 1052 q 237 1069 203 1069 q 306 1060 275 1069 q 359 1034 337 1051 q 394 989 382 1016 q 407 928 407 962 q 391 862 407 895 q 347 794 376 829 q 277 723 317 760 q 186 644 236 686 l 265 644 q 306 650 290 644 q 332 665 321 656 q 348 687 342 675 q 359 710 354 699 l 371 732 l 432 722 q 425 676 429 701 q 419 627 422 652 q 414 582 416 603 q 410 547 412 561 l 79 547 l 54 616 q 130 694 91 654 q 201 772 169 734 q 254 846 233 810 q 275 911 275 881 q 262 957 275 939 q 220 975 248 975 z "},"":{"ha":458,"x_min":62,"x_max":424,"o":"m 224 633 q 277 652 256 633 q 297 710 297 671 q 279 759 297 741 q 231 777 261 777 q 199 772 216 777 q 171 762 183 768 l 147 832 l 187 847 q 214 860 200 852 q 239 879 227 868 q 258 902 250 889 q 265 930 265 916 q 255 957 265 945 q 224 968 245 968 q 183 960 208 968 q 127 926 158 951 l 83 979 q 119 1013 100 996 q 161 1041 138 1029 q 210 1062 184 1054 q 268 1069 237 1069 q 325 1062 301 1069 q 365 1040 349 1054 q 389 1007 381 1026 q 396 965 396 988 q 390 932 396 949 q 373 901 383 916 q 350 876 363 887 q 322 857 336 864 q 362 844 343 854 q 394 820 380 835 q 416 784 408 804 q 424 739 424 764 q 404 661 424 697 q 352 598 385 625 q 278 556 319 571 q 193 541 237 541 q 94 563 125 541 q 62 621 62 586 q 74 659 62 642 q 106 688 85 676 q 134 663 121 673 q 162 646 148 652 q 191 636 176 640 q 224 633 206 633 z "},"":{"ha":436,"x_min":69,"x_max":367,"o":"m 69 804 l 240 1061 q 267 1037 250 1052 q 302 1006 283 1022 q 338 978 321 991 q 367 960 356 965 l 143 741 l 69 804 z "},"":{"ha":789,"x_min":46,"x_max":771,"o":"m 179 41 q 178 18 178 29 q 178 -4 178 6 q 187 -113 178 -68 q 213 -187 196 -157 q 252 -233 229 -216 q 302 -260 275 -250 q 285 -298 296 -278 q 258 -336 274 -319 q 220 -364 241 -353 q 174 -375 199 -375 q 126 -368 149 -375 q 85 -345 103 -361 q 57 -299 68 -328 q 46 -227 46 -271 q 53 -91 46 -170 q 67 77 59 -12 q 81 261 75 167 q 87 441 87 355 q 83 597 87 520 q 213 607 155 597 q 314 628 271 617 q 300 532 307 584 q 288 430 293 481 q 280 332 283 378 q 277 250 277 285 q 300 183 277 203 q 366 164 323 164 q 420 174 394 164 q 465 196 446 184 q 467 234 466 210 q 469 288 468 258 q 470 353 470 318 q 471 422 471 387 q 470 509 471 465 q 467 597 470 553 q 599 607 538 597 q 703 628 660 617 q 688 529 694 579 q 676 429 681 478 q 669 332 672 380 q 667 241 667 285 q 693 146 667 178 q 771 110 720 114 l 766 0 l 757 0 q 686 -2 718 0 q 625 -7 654 -3 q 568 -15 595 -10 q 510 -28 540 -20 l 536 114 q 493 67 518 90 q 438 25 468 44 q 376 -5 409 6 q 310 -17 344 -17 q 232 -1 264 -17 q 179 41 200 16 z "},"":{"ha":789,"x_min":20,"x_max":724,"o":"m 579 -349 l 444 -349 l 484 793 l 395 793 l 354 -349 l 220 -349 l 250 525 l 228 525 q 131 543 171 525 q 67 589 92 560 q 31 653 42 617 q 20 725 20 688 q 33 806 20 766 q 73 876 45 845 q 142 925 100 906 q 243 943 184 943 q 371 940 302 943 q 517 936 439 936 q 616 938 565 936 q 724 947 668 941 l 718 802 q 690 798 703 800 q 665 796 677 797 q 642 794 653 795 q 618 793 631 793 l 579 -349 z "},"":{"ha":361,"x_min":65,"x_max":301,"o":"m 65 486 q 75 540 65 517 q 102 577 85 563 q 139 599 118 592 q 183 606 161 606 q 226 599 205 606 q 264 577 248 592 q 291 540 281 563 q 301 486 301 517 q 292 435 301 458 q 267 395 283 412 q 230 369 252 378 q 183 359 208 359 q 137 369 158 359 q 99 395 115 378 q 74 435 83 412 q 65 486 65 458 z "},"":{"ha":410,"x_min":69,"x_max":340,"o":"m 131 -131 q 149 -48 141 -89 q 161 24 157 -7 l 254 24 l 240 -49 q 279 -62 260 -54 q 311 -84 297 -71 q 332 -115 324 -97 q 340 -158 340 -134 q 327 -219 340 -191 q 288 -268 313 -248 q 230 -301 263 -289 q 158 -313 197 -313 q 92 -292 114 -313 q 69 -241 69 -272 q 77 -207 69 -224 q 106 -172 84 -190 q 148 -200 122 -187 q 201 -214 174 -214 q 229 -205 219 -214 q 239 -182 239 -197 q 231 -159 239 -169 q 208 -143 222 -150 q 174 -134 193 -137 q 131 -131 154 -131 z "},"":{"ha":397,"x_min":58,"x_max":347,"o":"m 286 688 q 290 655 286 668 q 299 635 293 643 q 313 625 304 628 q 332 621 321 622 l 347 619 l 345 547 q 298 551 321 549 q 256 553 279 552 q 216 554 234 554 q 164 553 198 554 q 86 547 130 553 l 90 627 q 110 629 100 627 q 129 630 119 629 q 150 631 139 631 q 154 695 152 656 q 157 775 155 734 q 159 853 159 816 q 160 916 160 891 l 96 880 l 58 954 q 151 1017 111 985 q 218 1069 192 1048 l 297 1043 q 294 997 295 1025 q 291 933 292 968 q 289 863 290 899 q 288 792 288 826 q 287 731 287 759 q 286 688 286 703 z "},"":{"ha":597,"x_min":71,"x_max":558,"o":"m 71 799 q 89 900 71 851 q 142 986 108 949 q 224 1047 176 1024 q 332 1069 273 1069 q 433 1052 390 1069 q 503 1005 475 1035 q 545 934 531 975 q 558 846 558 893 q 537 737 558 787 q 480 649 516 686 q 398 590 445 611 q 300 568 351 568 q 193 587 237 568 q 122 637 149 606 q 83 710 95 669 q 71 799 71 752 m 243 818 q 263 739 243 767 q 315 710 283 710 q 366 739 346 710 q 386 818 386 767 q 366 899 386 869 q 315 928 346 928 q 263 899 283 928 q 243 818 243 869 z "},"":{"ha":675,"x_min":64,"x_max":646,"o":"m 79 551 l 125 596 l 359 355 l 110 117 l 64 161 l 193 355 l 79 551 m 240 612 l 300 671 l 646 355 l 281 40 l 221 98 l 427 355 l 240 612 z "},"":{"ha":1017,"x_min":64,"x_max":960,"o":"m 292 562 q 295 530 292 543 q 304 510 298 517 q 318 499 310 503 q 337 495 327 496 l 353 494 l 350 422 q 304 425 326 423 q 262 428 284 427 q 222 429 239 429 q 170 428 203 429 q 92 422 136 427 l 96 501 q 115 503 105 502 q 134 505 124 504 q 155 505 144 505 q 159 570 157 531 q 162 649 161 608 q 165 728 164 690 q 165 790 165 766 l 101 755 l 64 829 q 157 891 116 859 q 224 944 197 923 l 302 918 q 299 871 300 900 q 297 808 298 842 q 295 737 296 774 q 293 667 294 701 q 292 606 292 633 q 292 562 292 578 m 111 46 l 790 982 l 878 908 l 198 -28 l 111 46 m 638 227 q 689 227 663 227 q 741 229 715 228 q 742 289 741 260 q 743 340 743 319 l 638 227 m 928 0 q 882 3 905 1 q 840 6 863 5 q 800 7 818 7 q 748 6 782 7 q 672 0 715 5 l 675 79 q 694 81 684 80 q 713 83 703 82 q 734 83 724 83 q 739 146 736 109 l 538 146 l 540 227 l 801 522 l 882 496 q 879 449 880 478 q 876 384 877 419 q 873 309 874 348 q 871 233 872 270 q 907 236 891 235 q 935 238 923 237 q 960 240 948 239 l 935 146 l 870 146 l 870 140 q 873 109 870 121 q 883 91 877 98 q 899 80 890 83 q 918 75 907 77 l 932 72 l 928 0 z "},"":{"ha":1047,"x_min":64,"x_max":1000,"o":"m 292 562 q 295 530 292 543 q 304 510 298 517 q 318 499 310 503 q 337 495 327 496 l 353 494 l 350 422 q 304 425 326 423 q 262 428 284 427 q 222 429 239 429 q 170 428 203 429 q 92 422 136 427 l 96 501 q 115 503 105 502 q 134 505 124 504 q 155 505 144 505 q 159 570 157 531 q 162 649 161 608 q 165 728 164 690 q 165 790 165 766 l 101 755 l 64 829 q 157 891 116 859 q 224 944 197 923 l 302 918 q 299 871 300 900 q 297 808 298 842 q 295 737 296 774 q 293 667 294 701 q 292 606 292 633 q 292 562 292 578 m 111 46 l 790 982 l 878 908 l 198 -28 l 111 46 m 788 429 q 749 412 765 429 q 734 368 734 395 q 734 358 734 362 q 736 349 735 355 q 714 338 727 342 q 690 334 702 334 q 649 348 667 334 q 631 393 631 363 q 645 448 631 424 q 683 489 659 472 q 739 514 707 505 q 806 523 771 523 q 874 514 843 523 q 928 487 905 505 q 963 443 950 469 q 975 381 975 416 q 960 315 975 348 q 915 248 944 282 q 845 176 886 213 q 754 98 804 139 l 833 98 q 874 103 858 98 q 900 119 890 109 q 916 140 910 128 q 928 163 922 152 l 939 185 l 1000 176 q 994 130 997 155 q 987 81 990 105 q 982 35 985 56 q 978 1 980 14 l 648 1 l 623 70 q 698 148 659 108 q 769 225 737 187 q 823 299 802 264 q 844 364 844 334 q 830 411 844 393 q 788 429 817 429 z "},"":{"ha":1059,"x_min":62,"x_max":1002,"o":"m 224 507 q 277 526 256 507 q 297 584 297 545 q 279 632 297 614 q 231 650 261 650 q 199 646 216 650 q 171 636 183 642 l 147 706 l 187 721 q 214 734 200 726 q 239 752 227 742 q 258 776 250 763 q 265 804 265 789 q 255 830 265 819 q 224 842 245 842 q 183 833 208 842 q 127 800 158 825 l 83 853 q 119 886 100 870 q 161 915 138 903 q 210 936 184 928 q 268 943 237 943 q 325 936 301 943 q 365 914 349 928 q 389 881 381 900 q 396 839 396 862 q 390 806 396 823 q 373 775 383 789 q 350 749 363 761 q 322 731 336 738 q 362 718 343 728 q 394 693 380 709 q 416 658 408 678 q 424 613 424 637 q 404 535 424 571 q 352 472 385 498 q 278 430 319 445 q 193 414 237 414 q 94 437 125 414 q 62 494 62 460 q 74 533 62 516 q 106 562 85 550 q 134 536 121 547 q 162 520 148 526 q 191 510 176 513 q 224 507 206 507 m 157 46 l 837 982 l 924 908 l 245 -28 l 157 46 m 681 227 q 732 228 705 227 q 784 230 758 229 q 785 290 784 260 q 785 341 785 319 l 681 227 m 971 1 q 925 4 947 2 q 883 6 905 5 q 842 7 861 7 q 791 7 825 7 q 715 1 758 6 l 718 80 q 737 82 727 81 q 756 83 746 83 q 777 84 766 84 q 781 146 779 110 l 581 146 l 583 227 l 844 523 l 924 496 q 921 449 923 479 q 918 384 920 420 q 916 310 917 349 q 914 234 915 271 q 950 236 934 235 q 977 239 966 237 q 1002 241 991 240 l 977 146 l 913 146 l 913 141 q 916 110 913 121 q 926 91 920 98 q 941 81 932 84 q 960 76 950 78 l 975 73 l 971 1 z "},"":{"ha":538,"x_min":22,"x_max":475,"o":"m 397 501 q 387 447 397 470 q 361 410 377 425 q 323 389 345 395 q 279 382 302 382 q 236 389 258 382 q 198 410 215 395 q 172 447 182 425 q 161 501 161 470 q 171 553 161 530 q 195 593 180 576 q 233 619 211 610 q 279 628 254 628 q 326 619 304 628 q 363 593 347 610 q 388 553 379 576 q 397 501 397 530 m 301 -96 q 335 -88 319 -90 q 367 -86 352 -86 q 445 -111 415 -86 q 475 -184 475 -136 q 456 -257 475 -224 q 406 -312 437 -289 q 334 -347 374 -334 q 253 -359 294 -359 q 155 -344 198 -359 q 83 -303 113 -329 q 38 -243 54 -277 q 22 -171 22 -209 q 42 -72 22 -114 q 93 0 62 -31 q 158 53 123 31 q 224 92 193 75 q 274 122 254 109 q 294 151 294 136 q 283 172 294 164 q 244 180 272 180 q 212 179 227 180 q 185 175 198 178 q 161 170 173 173 q 136 161 149 166 l 136 167 q 144 222 136 194 q 168 274 151 251 q 209 312 184 297 q 271 326 235 326 q 323 317 299 326 q 365 291 347 308 q 392 248 382 273 q 401 189 401 222 q 390 115 401 149 q 359 48 379 80 q 310 -14 338 16 q 245 -75 281 -44 q 224 -96 235 -85 q 204 -119 213 -106 q 191 -145 196 -131 q 186 -176 186 -159 q 199 -212 186 -195 q 241 -228 212 -228 q 266 -223 254 -228 q 287 -207 278 -218 q 302 -180 296 -197 q 307 -142 307 -164 q 306 -120 307 -131 q 301 -96 304 -109 z "},"":{"ha":1002,"x_min":-21,"x_max":1007,"o":"m 856 289 q 887 218 872 245 q 916 176 901 191 q 944 152 930 160 q 975 139 959 144 l 1007 127 l 1002 -4 q 900 3 957 0 q 779 7 843 7 q 649 3 711 7 q 536 -4 587 0 l 542 127 q 603 134 577 132 q 654 136 629 136 l 611 277 q 472 272 550 275 q 309 264 393 269 q 295 222 299 240 q 290 189 290 203 q 305 149 290 161 q 347 132 320 136 l 374 127 l 368 -4 q 318 1 347 -1 q 257 5 293 3 q 172 7 220 7 q 129 6 149 7 q 89 5 110 6 q 42 2 68 4 q -21 -4 16 0 l -16 127 q 5 131 -7 129 q 30 134 15 132 q 65 136 45 135 l 424 943 l 597 971 l 856 289 m 366 431 l 564 431 l 484 692 l 456 692 l 366 431 m 566 1019 l 293 1175 q 314 1204 301 1185 q 341 1242 328 1222 q 367 1280 355 1262 q 387 1308 380 1298 l 624 1104 l 566 1019 z "},"":{"ha":1002,"x_min":-21,"x_max":1007,"o":"m 856 289 q 887 218 872 245 q 916 176 901 191 q 944 152 930 160 q 975 139 959 144 l 1007 127 l 1002 -4 q 900 3 957 0 q 779 7 843 7 q 649 3 711 7 q 536 -4 587 0 l 542 127 q 603 134 577 132 q 654 136 629 136 l 611 277 q 472 272 550 275 q 309 264 393 269 q 295 222 299 240 q 290 189 290 203 q 305 149 290 161 q 347 132 320 136 l 374 127 l 368 -4 q 318 1 347 -1 q 257 5 293 3 q 172 7 220 7 q 129 6 149 7 q 89 5 110 6 q 42 2 68 4 q -21 -4 16 0 l -16 127 q 5 131 -7 129 q 30 134 15 132 q 65 136 45 135 l 424 943 l 597 971 l 856 289 m 366 431 l 564 431 l 484 692 l 456 692 l 366 431 m 473 1097 l 694 1312 q 715 1283 702 1301 q 743 1246 728 1265 q 772 1211 758 1227 q 796 1187 787 1195 l 532 1019 l 473 1097 z "},"":{"ha":1002,"x_min":-21,"x_max":1007,"o":"m 856 289 q 887 218 872 245 q 916 176 901 191 q 944 152 930 160 q 975 139 959 144 l 1007 127 l 1002 -4 q 900 3 957 0 q 779 7 843 7 q 649 3 711 7 q 536 -4 587 0 l 542 127 q 603 134 577 132 q 654 136 629 136 l 611 277 q 472 272 550 275 q 309 264 393 269 q 295 222 299 240 q 290 189 290 203 q 305 149 290 161 q 347 132 320 136 l 374 127 l 368 -4 q 318 1 347 -1 q 257 5 293 3 q 172 7 220 7 q 129 6 149 7 q 89 5 110 6 q 42 2 68 4 q -21 -4 16 0 l -16 127 q 5 131 -7 129 q 30 134 15 132 q 65 136 45 135 l 424 943 l 597 971 l 856 289 m 366 431 l 564 431 l 484 692 l 456 692 l 366 431 m 375 1019 l 307 1089 l 543 1331 l 739 1089 l 668 1019 l 528 1132 l 375 1019 z "},"":{"ha":1002,"x_min":-21,"x_max":1007,"o":"m 856 289 q 887 218 872 245 q 916 176 901 191 q 944 152 930 160 q 975 139 959 144 l 1007 127 l 1002 -4 q 900 3 957 0 q 779 7 843 7 q 649 3 711 7 q 536 -4 587 0 l 542 127 q 603 134 577 132 q 654 136 629 136 l 611 277 q 472 272 550 275 q 309 264 393 269 q 295 222 299 240 q 290 189 290 203 q 305 149 290 161 q 347 132 320 136 l 374 127 l 368 -4 q 318 1 347 -1 q 257 5 293 3 q 172 7 220 7 q 129 6 149 7 q 89 5 110 6 q 42 2 68 4 q -21 -4 16 0 l -16 127 q 5 131 -7 129 q 30 134 15 132 q 65 136 45 135 l 424 943 l 597 971 l 856 289 m 366 431 l 564 431 l 484 692 l 456 692 l 366 431 m 646 1198 q 676 1210 661 1198 q 704 1234 692 1221 q 732 1271 718 1251 l 799 1218 q 767 1162 785 1192 q 727 1107 749 1133 q 677 1065 704 1082 q 621 1048 651 1048 q 565 1060 593 1048 q 511 1086 537 1072 q 463 1112 485 1100 q 425 1124 441 1124 q 395 1112 410 1124 q 368 1086 380 1100 q 340 1048 353 1069 l 271 1101 q 302 1157 283 1127 q 343 1213 321 1187 q 393 1256 366 1239 q 450 1274 420 1274 q 506 1262 477 1274 q 560 1236 534 1250 q 608 1210 586 1222 q 646 1198 630 1198 z "},"":{"ha":1002,"x_min":-21,"x_max":1007,"o":"m 856 289 q 887 218 872 245 q 916 176 901 191 q 944 152 930 160 q 975 139 959 144 l 1007 127 l 1002 -4 q 900 3 957 0 q 779 7 843 7 q 649 3 711 7 q 536 -4 587 0 l 542 127 q 603 134 577 132 q 654 136 629 136 l 611 277 q 472 272 550 275 q 309 264 393 269 q 295 222 299 240 q 290 189 290 203 q 305 149 290 161 q 347 132 320 136 l 374 127 l 368 -4 q 318 1 347 -1 q 257 5 293 3 q 172 7 220 7 q 129 6 149 7 q 89 5 110 6 q 42 2 68 4 q -21 -4 16 0 l -16 127 q 5 131 -7 129 q 30 134 15 132 q 65 136 45 135 l 424 943 l 597 971 l 856 289 m 366 431 l 564 431 l 484 692 l 456 692 l 366 431 m 399 1048 q 362 1055 379 1048 q 332 1075 345 1062 q 311 1108 319 1088 q 304 1154 304 1128 q 311 1197 304 1177 q 330 1232 317 1217 q 361 1256 343 1247 q 403 1265 380 1265 q 439 1259 422 1265 q 469 1239 456 1252 q 489 1206 481 1225 q 496 1162 496 1187 q 489 1119 496 1139 q 471 1082 483 1098 q 440 1058 458 1067 q 399 1048 422 1048 m 657 1048 q 621 1055 638 1048 q 591 1075 604 1062 q 571 1108 578 1088 q 564 1154 564 1128 q 570 1197 564 1177 q 590 1232 577 1217 q 622 1256 604 1247 q 664 1265 640 1265 q 700 1259 683 1265 q 729 1239 716 1252 q 748 1206 741 1225 q 755 1162 755 1187 q 749 1119 755 1139 q 730 1082 743 1098 q 699 1058 717 1067 q 657 1048 680 1048 z "},"":{"ha":1002,"x_min":-21,"x_max":1007,"o":"m 856 289 q 887 218 872 245 q 916 176 901 191 q 944 152 930 160 q 975 139 959 144 l 1007 127 l 1002 -4 q 900 3 957 0 q 779 7 843 7 q 649 3 711 7 q 536 -4 587 0 l 542 127 q 603 134 577 132 q 654 136 629 136 l 611 277 q 472 272 550 275 q 309 264 393 269 q 295 222 299 240 q 290 189 290 203 q 305 149 290 161 q 347 132 320 136 l 374 127 l 368 -4 q 318 1 347 -1 q 257 5 293 3 q 172 7 220 7 q 129 6 149 7 q 89 5 110 6 q 42 2 68 4 q -21 -4 16 0 l -16 127 q 5 131 -7 129 q 30 134 15 132 q 65 136 45 135 l 424 943 l 597 971 l 856 289 m 366 431 l 564 431 l 484 692 l 456 692 l 366 431 m 526 1251 q 476 1229 493 1251 q 458 1175 458 1206 q 463 1148 458 1162 q 475 1124 467 1135 q 496 1107 484 1114 q 528 1100 509 1100 q 577 1119 559 1100 q 594 1175 594 1139 q 590 1201 594 1187 q 578 1226 587 1215 q 557 1244 570 1237 q 526 1251 545 1251 m 353 1164 q 366 1229 353 1198 q 405 1284 380 1260 q 465 1322 429 1308 q 543 1336 500 1336 q 613 1324 584 1336 q 662 1293 643 1313 q 691 1248 682 1274 q 700 1194 700 1223 q 685 1124 700 1156 q 644 1067 670 1091 q 584 1029 618 1043 q 511 1015 550 1015 q 437 1028 467 1015 q 388 1062 407 1041 q 361 1109 370 1083 q 353 1164 353 1136 z "},"":{"ha":1393,"x_min":-37,"x_max":1337,"o":"m 339 261 q 328 219 332 237 q 325 187 325 201 q 337 148 325 160 q 371 132 349 136 l 393 127 l 387 -4 q 337 0 364 -2 q 279 3 309 1 q 219 5 250 4 q 161 5 189 5 q 55 3 104 5 q -37 -4 5 0 l -32 126 q -11 130 -20 128 q 7 132 -2 131 q 25 135 16 134 q 46 136 35 136 l 389 688 q 399 710 396 699 q 403 732 403 722 q 396 761 403 747 q 374 782 389 774 l 296 828 l 301 947 q 368 943 330 945 q 450 939 406 941 q 542 936 494 937 q 637 933 590 935 q 727 932 684 932 q 807 932 771 932 l 900 932 q 1111 936 1002 932 q 1337 947 1219 940 l 1317 628 l 1160 628 l 1156 665 q 1145 711 1152 691 q 1125 746 1139 732 q 1092 770 1112 761 q 1042 782 1072 779 l 875 799 l 867 546 l 1135 557 l 1128 389 l 861 407 l 852 147 l 1015 157 q 1081 169 1055 159 q 1124 200 1107 180 q 1153 251 1141 220 q 1173 325 1164 281 l 1335 325 l 1295 -14 q 1062 1 1183 -4 q 811 5 940 5 q 733 5 771 5 q 658 3 695 4 q 582 0 621 2 q 503 -4 544 -1 l 509 127 q 549 132 529 130 q 586 135 567 133 q 621 136 605 136 q 625 202 623 165 q 628 277 627 239 q 500 271 574 274 q 339 261 426 269 m 429 431 l 635 431 q 638 531 636 480 q 641 628 640 581 q 643 714 642 674 q 644 783 644 754 l 616 783 l 429 431 z "},"":{"ha":953,"x_min":53,"x_max":905,"o":"m 419 -131 q 433 -72 427 -101 q 443 -17 439 -43 q 280 36 353 -2 q 158 133 208 73 q 80 273 107 192 q 53 454 53 353 q 93 673 53 576 q 205 835 133 769 q 379 936 277 901 q 603 971 480 971 q 699 968 656 971 q 777 959 741 964 q 844 946 813 954 q 905 932 876 939 l 895 628 l 724 628 l 724 637 q 718 701 724 668 q 693 760 711 733 q 643 804 675 787 q 555 821 610 821 q 460 799 507 821 q 378 736 414 778 q 320 631 342 694 q 298 485 298 568 q 328 323 298 389 q 408 217 358 258 q 521 157 457 176 q 652 139 585 139 q 714 141 683 139 q 772 148 745 144 q 824 157 800 152 q 867 168 848 162 l 904 31 q 833 8 872 19 q 752 -10 795 -2 q 663 -23 709 -18 q 571 -28 617 -28 q 552 -28 562 -28 q 533 -26 543 -28 l 529 -49 q 568 -62 549 -54 q 600 -84 586 -71 q 621 -115 613 -97 q 629 -158 629 -134 q 615 -219 629 -191 q 577 -268 602 -248 q 519 -301 552 -289 q 447 -313 486 -313 q 380 -292 403 -313 q 358 -241 358 -272 q 366 -207 358 -224 q 395 -172 373 -190 q 437 -200 411 -187 q 490 -214 463 -214 q 518 -205 508 -214 q 528 -182 528 -197 q 519 -159 528 -169 q 497 -143 511 -150 q 462 -134 482 -137 q 419 -131 442 -131 z "},"":{"ha":939,"x_min":49,"x_max":884,"o":"m 561 157 q 627 171 601 159 q 671 202 654 182 q 699 253 688 222 q 718 325 710 283 l 880 325 l 840 -14 q 607 1 729 -4 q 357 5 486 5 q 279 5 317 5 q 204 3 241 4 q 128 0 166 2 q 49 -4 90 -1 l 54 127 q 95 132 75 130 q 132 135 113 133 q 167 136 151 136 q 172 214 170 169 q 176 310 174 259 q 180 415 178 361 q 183 519 182 469 q 185 613 184 570 q 186 686 186 656 q 180 747 186 724 q 162 783 174 770 q 135 802 151 796 q 98 811 119 808 l 72 815 l 78 947 q 162 941 120 943 q 250 936 205 938 q 343 933 294 934 q 446 932 391 932 q 656 936 547 932 q 884 947 765 940 l 863 628 l 705 628 l 701 665 q 691 711 698 691 q 671 746 684 732 q 637 770 658 761 q 587 782 617 779 l 421 799 l 412 546 l 681 557 l 673 389 l 407 407 l 399 147 l 561 157 m 563 1019 l 290 1175 q 312 1204 298 1185 q 338 1242 325 1222 q 365 1280 352 1262 q 384 1308 377 1298 l 621 1104 l 563 1019 z "},"":{"ha":939,"x_min":49,"x_max":884,"o":"m 561 157 q 627 171 601 159 q 671 202 654 182 q 699 253 688 222 q 718 325 710 283 l 880 325 l 840 -14 q 607 1 729 -4 q 357 5 486 5 q 279 5 317 5 q 204 3 241 4 q 128 0 166 2 q 49 -4 90 -1 l 54 127 q 95 132 75 130 q 132 135 113 133 q 167 136 151 136 q 172 214 170 169 q 176 310 174 259 q 180 415 178 361 q 183 519 182 469 q 185 613 184 570 q 186 686 186 656 q 180 747 186 724 q 162 783 174 770 q 135 802 151 796 q 98 811 119 808 l 72 815 l 78 947 q 162 941 120 943 q 250 936 205 938 q 343 933 294 934 q 446 932 391 932 q 656 936 547 932 q 884 947 765 940 l 863 628 l 705 628 l 701 665 q 691 711 698 691 q 671 746 684 732 q 637 770 658 761 q 587 782 617 779 l 421 799 l 412 546 l 681 557 l 673 389 l 407 407 l 399 147 l 561 157 m 383 1097 l 604 1312 q 625 1283 612 1301 q 653 1246 638 1265 q 682 1211 668 1227 q 706 1187 696 1195 l 441 1019 l 383 1097 z "},"":{"ha":939,"x_min":49,"x_max":884,"o":"m 561 157 q 627 171 601 159 q 671 202 654 182 q 699 253 688 222 q 718 325 710 283 l 880 325 l 840 -14 q 607 1 729 -4 q 357 5 486 5 q 279 5 317 5 q 204 3 241 4 q 128 0 166 2 q 49 -4 90 -1 l 54 127 q 95 132 75 130 q 132 135 113 133 q 167 136 151 136 q 172 214 170 169 q 176 310 174 259 q 180 415 178 361 q 183 519 182 469 q 185 613 184 570 q 186 686 186 656 q 180 747 186 724 q 162 783 174 770 q 135 802 151 796 q 98 811 119 808 l 72 815 l 78 947 q 162 941 120 943 q 250 936 205 938 q 343 933 294 934 q 446 932 391 932 q 656 936 547 932 q 884 947 765 940 l 863 628 l 705 628 l 701 665 q 691 711 698 691 q 671 746 684 732 q 637 770 658 761 q 587 782 617 779 l 421 799 l 412 546 l 681 557 l 673 389 l 407 407 l 399 147 l 561 157 m 364 1019 l 296 1089 l 532 1331 l 728 1089 l 657 1019 l 517 1132 l 364 1019 z "},"":{"ha":939,"x_min":49,"x_max":884,"o":"m 561 157 q 627 171 601 159 q 671 202 654 182 q 699 253 688 222 q 718 325 710 283 l 880 325 l 840 -14 q 607 1 729 -4 q 357 5 486 5 q 279 5 317 5 q 204 3 241 4 q 128 0 166 2 q 49 -4 90 -1 l 54 127 q 95 132 75 130 q 132 135 113 133 q 167 136 151 136 q 172 214 170 169 q 176 310 174 259 q 180 415 178 361 q 183 519 182 469 q 185 613 184 570 q 186 686 186 656 q 180 747 186 724 q 162 783 174 770 q 135 802 151 796 q 98 811 119 808 l 72 815 l 78 947 q 162 941 120 943 q 250 936 205 938 q 343 933 294 934 q 446 932 391 932 q 656 936 547 932 q 884 947 765 940 l 863 628 l 705 628 l 701 665 q 691 711 698 691 q 671 746 684 732 q 637 770 658 761 q 587 782 617 779 l 421 799 l 412 546 l 681 557 l 673 389 l 407 407 l 399 147 l 561 157 m 384 1048 q 347 1055 364 1048 q 317 1075 330 1062 q 296 1108 304 1088 q 289 1154 289 1128 q 296 1197 289 1177 q 315 1232 302 1217 q 347 1256 328 1247 q 388 1265 365 1265 q 424 1259 407 1265 q 454 1239 441 1252 q 474 1206 467 1225 q 481 1162 481 1187 q 474 1119 481 1139 q 456 1082 468 1098 q 425 1058 444 1067 q 384 1048 407 1048 m 642 1048 q 606 1055 623 1048 q 576 1075 589 1062 q 556 1108 564 1088 q 549 1154 549 1128 q 555 1197 549 1177 q 575 1232 562 1217 q 607 1256 589 1247 q 649 1265 625 1265 q 685 1259 668 1265 q 714 1239 701 1252 q 733 1206 726 1225 q 741 1162 741 1187 q 734 1119 741 1139 q 715 1082 728 1098 q 684 1058 702 1067 q 642 1048 665 1048 z "},"":{"ha":582,"x_min":49,"x_max":541,"o":"m 78 947 q 144 941 108 944 q 216 938 174 939 q 306 936 257 936 q 410 937 353 936 q 541 947 467 939 l 534 815 q 498 811 517 813 q 462 808 481 810 q 422 807 442 807 q 417 719 420 767 q 413 620 415 671 q 409 517 411 569 q 406 417 407 465 q 404 328 404 370 q 403 257 403 287 q 409 196 403 219 q 426 160 415 173 q 454 141 437 146 q 490 132 470 135 l 517 127 l 511 -4 q 445 1 481 -1 q 373 5 414 3 q 283 7 332 7 q 179 5 237 7 q 49 -4 122 4 l 54 127 q 91 132 72 130 q 127 135 107 133 q 167 136 147 136 q 172 223 170 176 q 176 322 174 271 q 180 426 178 374 q 183 526 182 478 q 185 615 184 574 q 186 686 186 656 q 180 747 186 724 q 162 783 174 770 q 135 802 151 796 q 98 811 119 808 l 72 815 l 78 947 m 366 1019 l 93 1175 q 114 1204 101 1185 q 141 1242 127 1222 q 167 1280 155 1262 q 186 1308 180 1298 l 424 1104 l 366 1019 z "},"":{"ha":582,"x_min":49,"x_max":541,"o":"m 78 947 q 144 941 108 944 q 216 938 174 939 q 306 936 257 936 q 410 937 353 936 q 541 947 467 939 l 534 815 q 498 811 517 813 q 462 808 481 810 q 422 807 442 807 q 417 719 420 767 q 413 620 415 671 q 409 517 411 569 q 406 417 407 465 q 404 328 404 370 q 403 257 403 287 q 409 196 403 219 q 426 160 415 173 q 454 141 437 146 q 490 132 470 135 l 517 127 l 511 -4 q 445 1 481 -1 q 373 5 414 3 q 283 7 332 7 q 179 5 237 7 q 49 -4 122 4 l 54 127 q 91 132 72 130 q 127 135 107 133 q 167 136 147 136 q 172 223 170 176 q 176 322 174 271 q 180 426 178 374 q 183 526 182 478 q 185 615 184 574 q 186 686 186 656 q 180 747 186 724 q 162 783 174 770 q 135 802 151 796 q 98 811 119 808 l 72 815 l 78 947 m 207 1097 l 428 1312 q 449 1283 435 1301 q 477 1246 462 1265 q 506 1211 492 1227 q 530 1187 520 1195 l 265 1019 l 207 1097 z "},"":{"ha":582,"x_min":49,"x_max":541,"o":"m 78 947 q 144 941 108 944 q 216 938 174 939 q 306 936 257 936 q 410 937 353 936 q 541 947 467 939 l 534 815 q 498 811 517 813 q 462 808 481 810 q 422 807 442 807 q 417 719 420 767 q 413 620 415 671 q 409 517 411 569 q 406 417 407 465 q 404 328 404 370 q 403 257 403 287 q 409 196 403 219 q 426 160 415 173 q 454 141 437 146 q 490 132 470 135 l 517 127 l 511 -4 q 445 1 481 -1 q 373 5 414 3 q 283 7 332 7 q 179 5 237 7 q 49 -4 122 4 l 54 127 q 91 132 72 130 q 127 135 107 133 q 167 136 147 136 q 172 223 170 176 q 176 322 174 271 q 180 426 178 374 q 183 526 182 478 q 185 615 184 574 q 186 686 186 656 q 180 747 186 724 q 162 783 174 770 q 135 802 151 796 q 98 811 119 808 l 72 815 l 78 947 m 161 1019 l 93 1089 l 330 1331 l 525 1089 l 454 1019 l 314 1132 l 161 1019 z "},"":{"ha":582,"x_min":49,"x_max":543,"o":"m 78 947 q 144 941 108 944 q 216 938 174 939 q 306 936 257 936 q 410 937 353 936 q 541 947 467 939 l 534 815 q 498 811 517 813 q 462 808 481 810 q 422 807 442 807 q 417 719 420 767 q 413 620 415 671 q 409 517 411 569 q 406 417 407 465 q 404 328 404 370 q 403 257 403 287 q 409 196 403 219 q 426 160 415 173 q 454 141 437 146 q 490 132 470 135 l 517 127 l 511 -4 q 445 1 481 -1 q 373 5 414 3 q 283 7 332 7 q 179 5 237 7 q 49 -4 122 4 l 54 127 q 91 132 72 130 q 127 135 107 133 q 167 136 147 136 q 172 223 170 176 q 176 322 174 271 q 180 426 178 374 q 183 526 182 478 q 185 615 184 574 q 186 686 186 656 q 180 747 186 724 q 162 783 174 770 q 135 802 151 796 q 98 811 119 808 l 72 815 l 78 947 m 186 1048 q 150 1055 167 1048 q 119 1075 132 1062 q 99 1108 106 1088 q 92 1154 92 1128 q 98 1197 92 1177 q 118 1232 105 1217 q 149 1256 131 1247 q 191 1265 168 1265 q 227 1259 210 1265 q 256 1239 243 1252 q 276 1206 269 1225 q 283 1162 283 1187 q 277 1119 283 1139 q 258 1082 271 1098 q 228 1058 246 1067 q 186 1048 210 1048 m 445 1048 q 409 1055 426 1048 q 379 1075 392 1062 q 359 1108 366 1088 q 351 1154 351 1128 q 358 1197 351 1177 q 378 1232 365 1217 q 410 1256 391 1247 q 452 1265 428 1265 q 487 1259 471 1265 q 516 1239 504 1252 q 536 1206 529 1225 q 543 1162 543 1187 q 537 1119 543 1139 q 517 1082 530 1098 q 486 1058 505 1067 q 445 1048 468 1048 z "},"":{"ha":1099,"x_min":47,"x_max":1051,"o":"m 167 136 q 173 258 170 191 q 179 397 176 326 q 113 393 146 395 q 47 387 80 391 l 54 562 l 184 562 q 186 631 186 599 q 186 686 186 663 q 180 747 186 724 q 162 783 174 770 q 135 802 151 796 q 98 811 119 808 l 72 815 l 78 947 q 140 941 109 943 q 195 936 165 938 q 249 935 225 935 q 327 937 289 935 q 405 942 366 939 q 487 948 445 945 q 575 950 528 950 q 775 918 686 950 q 925 826 863 886 q 1019 680 986 766 q 1051 488 1051 594 q 1042 383 1051 439 q 1009 273 1032 328 q 947 167 986 218 q 848 77 907 116 q 708 15 789 38 q 518 -8 626 -8 q 450 -6 484 -8 q 381 -1 416 -3 q 310 4 346 2 q 235 7 273 7 q 204 6 224 7 q 158 4 184 5 q 104 1 133 3 q 49 -4 76 -1 l 54 127 q 77 131 66 130 q 102 133 89 132 q 131 135 115 134 q 167 136 147 136 m 410 562 l 568 562 l 564 410 q 520 409 545 409 q 470 408 499 408 q 406 407 441 408 q 402 309 404 345 q 401 256 401 273 q 400 234 400 239 q 400 229 400 230 q 406 191 400 206 q 428 165 412 175 q 471 151 444 155 q 543 147 499 147 q 594 153 566 147 q 651 175 622 159 q 707 215 680 190 q 756 279 734 240 q 790 371 777 317 q 803 494 803 424 q 798 558 803 524 q 782 627 793 593 q 749 693 770 661 q 697 749 728 725 q 623 788 666 774 q 522 803 580 803 q 464 802 493 803 q 418 799 435 801 l 410 562 z "},"":{"ha":1118,"x_min":36,"x_max":1086,"o":"m 806 669 q 797 738 804 712 q 777 779 789 764 q 746 801 764 794 q 705 811 728 808 l 673 815 l 679 947 q 743 941 711 944 q 806 938 772 939 q 872 936 840 936 q 918 936 895 936 q 966 938 941 937 q 1021 941 991 939 q 1086 947 1050 943 l 1080 817 q 1051 812 1067 814 q 1020 810 1038 811 q 983 808 1003 808 l 966 378 q 963 263 964 315 q 961 168 962 212 q 960 83 960 124 q 960 1 960 43 l 819 -28 l 329 575 l 304 571 l 317 275 q 325 206 318 233 q 345 164 332 180 q 376 142 358 149 q 416 132 393 136 l 449 127 l 443 -4 q 379 1 412 -1 q 317 5 351 3 q 250 7 283 7 q 204 6 227 7 q 156 5 181 6 q 102 2 131 4 q 36 -4 73 -1 l 41 127 q 72 132 55 130 q 104 135 85 133 q 142 136 122 136 l 157 572 q 163 757 161 677 q 165 897 165 836 l 165 943 l 300 971 l 791 368 l 817 372 l 806 669 m 732 1198 q 763 1210 747 1198 q 790 1234 778 1221 q 818 1271 804 1251 l 885 1218 q 853 1162 871 1192 q 813 1107 836 1133 q 764 1065 790 1082 q 707 1048 737 1048 q 651 1060 679 1048 q 597 1086 623 1072 q 549 1112 571 1100 q 511 1124 527 1124 q 481 1112 496 1124 q 454 1086 466 1100 q 427 1048 439 1069 l 357 1101 q 388 1157 370 1127 q 430 1213 407 1187 q 479 1256 452 1239 q 536 1274 506 1274 q 592 1262 564 1274 q 646 1236 620 1250 q 694 1210 672 1222 q 732 1198 716 1198 z "},"":{"ha":1082,"x_min":52,"x_max":1038,"o":"m 52 467 q 88 664 52 572 q 193 824 125 756 q 358 932 261 892 q 575 971 455 971 q 774 932 688 971 q 919 826 860 892 q 1007 673 977 760 q 1038 492 1038 587 q 1020 354 1038 420 q 971 231 1003 288 q 895 125 940 173 q 795 43 850 77 q 677 -9 741 9 q 543 -28 613 -28 q 325 12 417 -28 q 171 118 232 51 q 81 276 111 186 q 52 467 52 366 m 536 821 q 431 791 476 821 q 357 716 387 762 q 313 612 328 669 q 298 498 298 555 q 316 354 298 422 q 367 235 334 286 q 446 154 399 184 q 550 123 492 123 q 655 152 610 123 q 729 228 700 181 q 773 332 759 274 q 787 447 787 389 q 770 590 787 522 q 720 709 753 658 q 641 790 688 760 q 536 821 595 821 m 650 1019 l 378 1175 q 399 1204 386 1185 q 426 1242 412 1222 q 452 1280 439 1262 q 471 1308 465 1298 l 709 1104 l 650 1019 z "},"":{"ha":1082,"x_min":52,"x_max":1038,"o":"m 52 467 q 88 664 52 572 q 193 824 125 756 q 358 932 261 892 q 575 971 455 971 q 774 932 688 971 q 919 826 860 892 q 1007 673 977 760 q 1038 492 1038 587 q 1020 354 1038 420 q 971 231 1003 288 q 895 125 940 173 q 795 43 850 77 q 677 -9 741 9 q 543 -28 613 -28 q 325 12 417 -28 q 171 118 232 51 q 81 276 111 186 q 52 467 52 366 m 536 821 q 431 791 476 821 q 357 716 387 762 q 313 612 328 669 q 298 498 298 555 q 316 354 298 422 q 367 235 334 286 q 446 154 399 184 q 550 123 492 123 q 655 152 610 123 q 729 228 700 181 q 773 332 759 274 q 787 447 787 389 q 770 590 787 522 q 720 709 753 658 q 641 790 688 760 q 536 821 595 821 m 452 1097 l 673 1312 q 694 1283 681 1301 q 722 1246 707 1265 q 751 1211 737 1227 q 775 1187 766 1195 l 511 1019 l 452 1097 z "},"":{"ha":1082,"x_min":52,"x_max":1038,"o":"m 52 467 q 88 664 52 572 q 193 824 125 756 q 358 932 261 892 q 575 971 455 971 q 774 932 688 971 q 919 826 860 892 q 1007 673 977 760 q 1038 492 1038 587 q 1020 354 1038 420 q 971 231 1003 288 q 895 125 940 173 q 795 43 850 77 q 677 -9 741 9 q 543 -28 613 -28 q 325 12 417 -28 q 171 118 232 51 q 81 276 111 186 q 52 467 52 366 m 536 821 q 431 791 476 821 q 357 716 387 762 q 313 612 328 669 q 298 498 298 555 q 316 354 298 422 q 367 235 334 286 q 446 154 399 184 q 550 123 492 123 q 655 152 610 123 q 729 228 700 181 q 773 332 759 274 q 787 447 787 389 q 770 590 787 522 q 720 709 753 658 q 641 790 688 760 q 536 821 595 821 m 422 1019 l 354 1089 l 591 1331 l 786 1089 l 715 1019 l 575 1132 l 422 1019 z "},"":{"ha":1082,"x_min":52,"x_max":1038,"o":"m 52 467 q 88 664 52 572 q 193 824 125 756 q 358 932 261 892 q 575 971 455 971 q 774 932 688 971 q 919 826 860 892 q 1007 673 977 760 q 1038 492 1038 587 q 1020 354 1038 420 q 971 231 1003 288 q 895 125 940 173 q 795 43 850 77 q 677 -9 741 9 q 543 -28 613 -28 q 325 12 417 -28 q 171 118 232 51 q 81 276 111 186 q 52 467 52 366 m 536 821 q 431 791 476 821 q 357 716 387 762 q 313 612 328 669 q 298 498 298 555 q 316 354 298 422 q 367 235 334 286 q 446 154 399 184 q 550 123 492 123 q 655 152 610 123 q 729 228 700 181 q 773 332 759 274 q 787 447 787 389 q 770 590 787 522 q 720 709 753 658 q 641 790 688 760 q 536 821 595 821 m 694 1198 q 725 1210 710 1198 q 753 1234 741 1221 q 781 1271 767 1251 l 848 1218 q 816 1162 834 1192 q 775 1107 798 1133 q 726 1065 753 1082 q 669 1048 700 1048 q 614 1060 642 1048 q 560 1086 586 1072 q 512 1112 534 1100 q 474 1124 490 1124 q 444 1112 458 1124 q 416 1086 429 1100 q 389 1048 402 1069 l 319 1101 q 351 1157 332 1127 q 392 1213 370 1187 q 442 1256 415 1239 q 499 1274 469 1274 q 554 1262 526 1274 q 609 1236 583 1250 q 657 1210 635 1222 q 694 1198 679 1198 z "},"":{"ha":1082,"x_min":52,"x_max":1038,"o":"m 52 467 q 88 664 52 572 q 193 824 125 756 q 358 932 261 892 q 575 971 455 971 q 774 932 688 971 q 919 826 860 892 q 1007 673 977 760 q 1038 492 1038 587 q 1020 354 1038 420 q 971 231 1003 288 q 895 125 940 173 q 795 43 850 77 q 677 -9 741 9 q 543 -28 613 -28 q 325 12 417 -28 q 171 118 232 51 q 81 276 111 186 q 52 467 52 366 m 536 821 q 431 791 476 821 q 357 716 387 762 q 313 612 328 669 q 298 498 298 555 q 316 354 298 422 q 367 235 334 286 q 446 154 399 184 q 550 123 492 123 q 655 152 610 123 q 729 228 700 181 q 773 332 759 274 q 787 447 787 389 q 770 590 787 522 q 720 709 753 658 q 641 790 688 760 q 536 821 595 821 m 437 1048 q 400 1055 418 1048 q 370 1075 383 1062 q 350 1108 357 1088 q 342 1154 342 1128 q 349 1197 342 1177 q 369 1232 356 1217 q 400 1256 382 1247 q 441 1265 418 1265 q 477 1259 460 1265 q 507 1239 494 1252 q 527 1206 520 1225 q 534 1162 534 1187 q 528 1119 534 1139 q 509 1082 522 1098 q 479 1058 497 1067 q 437 1048 460 1048 m 696 1048 q 660 1055 677 1048 q 630 1075 643 1062 q 610 1108 617 1088 q 602 1154 602 1128 q 609 1197 602 1177 q 629 1232 616 1217 q 661 1256 642 1247 q 703 1265 679 1265 q 738 1259 722 1265 q 767 1239 755 1252 q 787 1206 780 1225 q 794 1162 794 1187 q 788 1119 794 1139 q 768 1082 781 1098 q 737 1058 755 1067 q 696 1048 719 1048 z "},"":{"ha":729,"x_min":66,"x_max":665,"o":"m 66 229 l 277 439 l 66 648 l 157 739 l 367 529 l 575 739 l 665 648 l 456 439 l 665 229 l 575 139 l 367 349 l 157 139 l 66 229 z "},"":{"ha":1082,"x_min":52,"x_max":1038,"o":"m 126 -71 l 221 72 q 146 150 178 106 q 93 244 114 193 q 62 351 72 294 q 52 467 52 407 q 88 664 52 572 q 193 824 125 756 q 358 932 261 892 q 575 971 455 971 q 688 959 636 971 q 786 925 740 947 l 868 1048 l 954 989 l 873 868 q 944 793 913 835 q 996 702 975 751 q 1027 601 1017 654 q 1038 492 1038 547 q 1020 354 1038 420 q 971 231 1003 288 q 895 125 940 173 q 795 43 850 77 q 677 -9 741 9 q 543 -28 613 -28 q 415 -16 474 -28 q 307 18 356 -3 l 210 -127 l 126 -71 m 536 821 q 431 791 476 821 q 357 716 387 762 q 313 612 328 669 q 298 498 298 555 q 311 373 298 433 q 349 265 323 313 l 677 761 q 613 805 648 789 q 536 821 578 821 m 787 447 q 775 566 787 509 q 742 669 764 623 l 414 178 q 476 138 442 152 q 550 123 510 123 q 655 152 610 123 q 729 228 700 181 q 773 332 759 274 q 787 447 787 389 z "},"":{"ha":1080,"x_min":39,"x_max":1086,"o":"m 930 346 q 815 70 916 165 q 525 -26 715 -26 q 365 -3 436 -26 q 245 63 294 20 q 169 167 195 106 q 142 304 142 229 q 142 351 142 320 q 144 421 143 382 q 147 501 146 459 q 150 580 149 543 q 152 646 151 617 q 153 686 153 674 q 146 747 153 724 q 129 783 140 770 q 102 802 118 796 q 65 811 85 808 l 39 815 l 45 947 q 108 941 73 944 q 178 938 138 939 q 267 936 218 936 q 371 937 313 936 q 501 947 428 939 l 496 815 q 459 811 477 813 q 424 808 443 810 q 385 807 404 807 q 374 493 377 604 q 371 349 371 381 q 386 246 371 289 q 428 176 401 203 q 491 136 455 149 q 568 123 527 123 q 652 139 616 123 q 713 182 689 154 q 750 250 738 210 q 764 339 763 290 q 766 486 765 426 q 767 585 766 546 q 768 646 768 624 q 768 677 768 667 q 768 689 768 687 q 768 692 768 691 q 762 749 768 727 q 744 784 755 771 q 716 802 732 796 q 681 811 701 808 l 653 815 l 659 947 q 711 941 681 944 q 774 938 737 939 q 860 936 811 936 q 908 936 883 936 q 960 938 932 937 q 1019 941 987 939 q 1086 947 1050 943 l 1080 815 q 1044 811 1063 813 q 1007 808 1027 810 q 968 807 987 807 l 930 346 m 633 1019 l 361 1175 q 382 1204 369 1185 q 409 1242 395 1222 q 435 1280 422 1262 q 454 1308 448 1298 l 692 1104 l 633 1019 z "},"":{"ha":1080,"x_min":39,"x_max":1086,"o":"m 930 346 q 815 70 916 165 q 525 -26 715 -26 q 365 -3 436 -26 q 245 63 294 20 q 169 167 195 106 q 142 304 142 229 q 142 351 142 320 q 144 421 143 382 q 147 501 146 459 q 150 580 149 543 q 152 646 151 617 q 153 686 153 674 q 146 747 153 724 q 129 783 140 770 q 102 802 118 796 q 65 811 85 808 l 39 815 l 45 947 q 108 941 73 944 q 178 938 138 939 q 267 936 218 936 q 371 937 313 936 q 501 947 428 939 l 496 815 q 459 811 477 813 q 424 808 443 810 q 385 807 404 807 q 374 493 377 604 q 371 349 371 381 q 386 246 371 289 q 428 176 401 203 q 491 136 455 149 q 568 123 527 123 q 652 139 616 123 q 713 182 689 154 q 750 250 738 210 q 764 339 763 290 q 766 486 765 426 q 767 585 766 546 q 768 646 768 624 q 768 677 768 667 q 768 689 768 687 q 768 692 768 691 q 762 749 768 727 q 744 784 755 771 q 716 802 732 796 q 681 811 701 808 l 653 815 l 659 947 q 711 941 681 944 q 774 938 737 939 q 860 936 811 936 q 908 936 883 936 q 960 938 932 937 q 1019 941 987 939 q 1086 947 1050 943 l 1080 815 q 1044 811 1063 813 q 1007 808 1027 810 q 968 807 987 807 l 930 346 m 501 1097 l 722 1312 q 743 1283 730 1301 q 771 1246 756 1265 q 800 1211 786 1227 q 824 1187 814 1195 l 559 1019 l 501 1097 z "},"":{"ha":1080,"x_min":39,"x_max":1086,"o":"m 930 346 q 815 70 916 165 q 525 -26 715 -26 q 365 -3 436 -26 q 245 63 294 20 q 169 167 195 106 q 142 304 142 229 q 142 351 142 320 q 144 421 143 382 q 147 501 146 459 q 150 580 149 543 q 152 646 151 617 q 153 686 153 674 q 146 747 153 724 q 129 783 140 770 q 102 802 118 796 q 65 811 85 808 l 39 815 l 45 947 q 108 941 73 944 q 178 938 138 939 q 267 936 218 936 q 371 937 313 936 q 501 947 428 939 l 496 815 q 459 811 477 813 q 424 808 443 810 q 385 807 404 807 q 374 493 377 604 q 371 349 371 381 q 386 246 371 289 q 428 176 401 203 q 491 136 455 149 q 568 123 527 123 q 652 139 616 123 q 713 182 689 154 q 750 250 738 210 q 764 339 763 290 q 766 486 765 426 q 767 585 766 546 q 768 646 768 624 q 768 677 768 667 q 768 689 768 687 q 768 692 768 691 q 762 749 768 727 q 744 784 755 771 q 716 802 732 796 q 681 811 701 808 l 653 815 l 659 947 q 711 941 681 944 q 774 938 737 939 q 860 936 811 936 q 908 936 883 936 q 960 938 932 937 q 1019 941 987 939 q 1086 947 1050 943 l 1080 815 q 1044 811 1063 813 q 1007 808 1027 810 q 968 807 987 807 l 930 346 m 437 1019 l 369 1089 l 606 1331 l 801 1089 l 730 1019 l 590 1132 l 437 1019 z "},"":{"ha":1080,"x_min":39,"x_max":1086,"o":"m 930 346 q 815 70 916 165 q 525 -26 715 -26 q 365 -3 436 -26 q 245 63 294 20 q 169 167 195 106 q 142 304 142 229 q 142 351 142 320 q 144 421 143 382 q 147 501 146 459 q 150 580 149 543 q 152 646 151 617 q 153 686 153 674 q 146 747 153 724 q 129 783 140 770 q 102 802 118 796 q 65 811 85 808 l 39 815 l 45 947 q 108 941 73 944 q 178 938 138 939 q 267 936 218 936 q 371 937 313 936 q 501 947 428 939 l 496 815 q 459 811 477 813 q 424 808 443 810 q 385 807 404 807 q 374 493 377 604 q 371 349 371 381 q 386 246 371 289 q 428 176 401 203 q 491 136 455 149 q 568 123 527 123 q 652 139 616 123 q 713 182 689 154 q 750 250 738 210 q 764 339 763 290 q 766 486 765 426 q 767 585 766 546 q 768 646 768 624 q 768 677 768 667 q 768 689 768 687 q 768 692 768 691 q 762 749 768 727 q 744 784 755 771 q 716 802 732 796 q 681 811 701 808 l 653 815 l 659 947 q 711 941 681 944 q 774 938 737 939 q 860 936 811 936 q 908 936 883 936 q 960 938 932 937 q 1019 941 987 939 q 1086 947 1050 943 l 1080 815 q 1044 811 1063 813 q 1007 808 1027 810 q 968 807 987 807 l 930 346 m 467 1048 q 430 1055 447 1048 q 399 1075 412 1062 q 379 1108 387 1088 q 372 1154 372 1128 q 378 1197 372 1177 q 398 1232 385 1217 q 429 1256 411 1247 q 471 1265 448 1265 q 507 1259 490 1265 q 536 1239 524 1252 q 556 1206 549 1225 q 564 1162 564 1187 q 557 1119 564 1139 q 538 1082 551 1098 q 508 1058 526 1067 q 467 1048 490 1048 m 725 1048 q 689 1055 706 1048 q 659 1075 672 1062 q 639 1108 646 1088 q 631 1154 631 1128 q 638 1197 631 1177 q 658 1232 645 1217 q 690 1256 671 1247 q 732 1265 708 1265 q 767 1259 751 1265 q 797 1239 784 1252 q 816 1206 809 1225 q 823 1162 823 1187 q 817 1119 823 1139 q 798 1082 810 1098 q 766 1058 785 1067 q 725 1048 748 1048 z "},"":{"ha":979,"x_min":9,"x_max":1006,"o":"m 639 672 q 667 727 659 705 q 676 765 676 749 q 663 796 676 786 q 627 810 650 806 l 595 815 l 600 947 q 692 939 645 942 q 798 936 740 936 q 908 939 854 936 q 1006 947 962 942 l 1000 817 q 981 813 989 814 q 964 811 972 812 q 948 809 956 810 q 928 808 939 809 l 606 346 q 605 313 605 326 q 604 292 604 301 q 604 276 604 283 q 604 257 604 268 q 610 196 604 219 q 628 160 616 173 q 655 141 639 146 q 692 132 671 135 l 718 127 l 713 -4 q 647 1 683 -1 q 575 5 616 3 q 486 7 534 7 q 381 5 439 7 q 250 -4 323 4 l 256 127 q 292 132 273 130 q 329 135 309 133 q 368 136 349 136 q 370 172 369 151 q 373 218 372 193 q 375 269 374 242 q 378 321 376 295 l 129 729 q 102 768 115 752 q 77 793 89 783 q 53 807 64 802 q 29 812 41 811 l 9 815 l 16 947 q 121 940 60 943 q 244 936 181 936 q 370 940 313 936 q 479 947 428 943 l 472 815 q 411 810 437 811 q 359 807 385 808 l 524 519 l 550 519 l 639 672 m 455 1097 l 676 1312 q 697 1283 684 1301 q 725 1246 710 1265 q 754 1211 740 1227 q 778 1187 768 1195 l 513 1019 l 455 1097 z "},"":{"ha":869,"x_min":49,"x_max":843,"o":"m 403 257 q 409 196 403 219 q 426 160 415 173 q 454 141 437 146 q 490 132 470 135 l 517 127 l 511 -4 q 444 1 481 -1 q 372 5 413 3 q 282 7 330 7 q 179 5 235 7 q 49 -4 122 4 l 54 127 q 90 132 72 130 q 126 135 106 133 q 165 136 146 136 q 170 223 168 176 q 175 322 172 271 q 179 426 177 374 q 182 526 180 478 q 184 615 183 574 q 184 686 184 656 q 179 747 184 724 q 162 783 173 770 q 135 802 151 796 q 98 811 119 808 l 72 815 l 78 947 q 143 941 107 944 q 215 938 174 939 q 304 936 256 936 q 409 937 351 936 q 541 947 467 939 l 534 815 q 497 811 516 813 q 461 808 481 810 q 421 807 441 807 l 419 745 q 473 748 446 747 q 526 749 500 749 q 766 684 689 749 q 843 501 843 619 q 815 371 843 426 q 742 280 787 316 q 640 228 696 245 q 528 211 584 211 q 490 213 510 211 q 454 220 471 215 l 461 378 q 479 375 471 376 q 494 375 487 375 q 570 402 545 375 q 596 486 596 429 q 561 560 596 536 q 456 583 526 583 q 431 583 443 583 q 412 581 420 582 q 406 429 408 511 q 403 257 404 347 z "},"":{"ha":946,"x_min":-11,"x_max":950,"o":"m 713 538 q 650 525 670 538 q 629 496 629 513 q 641 474 629 484 q 672 455 652 465 q 716 435 691 446 q 770 411 742 425 q 831 378 799 397 q 889 333 863 359 q 933 274 916 307 q 950 197 950 241 q 932 115 950 154 q 876 47 914 77 q 779 0 838 18 q 637 -17 720 -17 q 539 -8 584 -17 q 462 18 494 1 q 411 61 429 35 q 393 119 393 86 q 419 192 393 164 q 492 232 446 219 q 522 197 504 216 q 565 162 541 178 q 619 135 589 146 q 684 123 649 123 q 723 131 707 123 q 739 158 739 138 q 726 182 739 171 q 693 204 713 194 q 650 224 673 214 q 604 245 626 235 q 522 292 557 269 q 463 341 486 315 q 427 395 439 366 q 415 458 415 424 q 429 535 415 496 q 473 605 442 574 q 553 657 504 637 q 675 677 603 677 q 676 691 675 684 q 677 706 677 699 q 677 721 677 714 q 677 733 677 728 q 639 872 677 823 q 534 921 601 921 q 461 904 494 921 q 402 850 427 886 q 363 759 378 814 q 347 628 349 704 q 344 488 346 559 q 341 348 342 416 q 338 219 340 280 q 335 112 336 159 q 333 36 334 65 q 332 0 332 6 l 107 0 q 115 98 111 50 q 122 201 119 146 q 130 318 126 255 q 136 461 133 382 q 60 450 98 455 q -11 439 22 444 l -4 608 l 139 608 q 177 819 144 731 q 264 962 210 906 q 388 1043 317 1017 q 541 1069 459 1069 q 699 1042 633 1069 q 809 966 766 1014 q 872 855 852 918 q 893 722 893 792 q 883 618 893 671 q 854 513 873 565 q 821 525 839 519 q 783 532 802 530 q 746 536 764 535 q 713 538 728 538 z "},"":{"ha":725,"x_min":37,"x_max":733,"o":"m 733 57 q 659 3 700 23 q 568 -17 617 -17 q 477 12 511 -17 q 431 87 443 41 q 394 47 414 66 q 347 14 373 28 q 290 -9 321 -1 q 220 -17 258 -17 q 139 -3 173 -17 q 82 33 104 10 q 48 85 60 56 q 37 144 37 114 q 56 225 37 191 q 104 284 74 259 q 173 325 134 309 q 254 350 212 340 q 335 362 295 359 q 410 367 376 366 q 411 382 411 376 q 411 395 411 388 q 389 451 411 432 q 329 471 368 471 q 296 467 314 471 q 261 454 278 463 q 229 427 243 444 q 205 383 214 410 q 165 385 189 383 q 119 395 142 387 q 81 422 97 404 q 65 473 65 441 q 77 522 65 500 q 108 561 88 543 q 155 590 128 578 q 212 611 182 603 q 273 624 241 620 q 334 628 304 628 q 447 617 396 628 q 533 580 497 606 q 588 513 568 555 q 607 411 607 471 q 605 359 607 391 q 600 294 602 327 q 595 232 597 260 q 593 191 593 203 q 597 166 593 176 q 608 150 602 156 q 624 141 615 144 q 640 139 632 139 q 660 141 652 139 q 679 149 669 143 l 733 57 m 395 253 q 344 249 372 253 q 292 234 316 244 q 250 209 267 224 q 233 172 233 194 q 247 141 233 153 q 286 129 260 129 q 325 136 305 129 q 361 158 345 143 q 389 197 377 173 q 406 253 401 220 l 395 253 m 376 741 l 146 951 q 175 975 157 960 q 210 1006 192 989 q 244 1037 228 1022 q 269 1061 260 1053 l 452 808 l 376 741 z "},"":{"ha":725,"x_min":37,"x_max":733,"o":"m 733 57 q 659 3 700 23 q 568 -17 617 -17 q 477 12 511 -17 q 431 87 443 41 q 394 47 414 66 q 347 14 373 28 q 290 -9 321 -1 q 220 -17 258 -17 q 139 -3 173 -17 q 82 33 104 10 q 48 85 60 56 q 37 144 37 114 q 56 225 37 191 q 104 284 74 259 q 173 325 134 309 q 254 350 212 340 q 335 362 295 359 q 410 367 376 366 q 411 382 411 376 q 411 395 411 388 q 389 451 411 432 q 329 471 368 471 q 296 467 314 471 q 261 454 278 463 q 229 427 243 444 q 205 383 214 410 q 165 385 189 383 q 119 395 142 387 q 81 422 97 404 q 65 473 65 441 q 77 522 65 500 q 108 561 88 543 q 155 590 128 578 q 212 611 182 603 q 273 624 241 620 q 334 628 304 628 q 447 617 396 628 q 533 580 497 606 q 588 513 568 555 q 607 411 607 471 q 605 359 607 391 q 600 294 602 327 q 595 232 597 260 q 593 191 593 203 q 597 166 593 176 q 608 150 602 156 q 624 141 615 144 q 640 139 632 139 q 660 141 652 139 q 679 149 669 143 l 733 57 m 395 253 q 344 249 372 253 q 292 234 316 244 q 250 209 267 224 q 233 172 233 194 q 247 141 233 153 q 286 129 260 129 q 325 136 305 129 q 361 158 345 143 q 389 197 377 173 q 406 253 401 220 l 395 253 m 254 804 l 425 1061 q 451 1037 434 1052 q 487 1006 468 1022 q 523 978 505 991 q 551 960 541 965 l 328 741 l 254 804 z "},"":{"ha":725,"x_min":37,"x_max":733,"o":"m 733 57 q 659 3 700 23 q 568 -17 617 -17 q 477 12 511 -17 q 431 87 443 41 q 394 47 414 66 q 347 14 373 28 q 290 -9 321 -1 q 220 -17 258 -17 q 139 -3 173 -17 q 82 33 104 10 q 48 85 60 56 q 37 144 37 114 q 56 225 37 191 q 104 284 74 259 q 173 325 134 309 q 254 350 212 340 q 335 362 295 359 q 410 367 376 366 q 411 382 411 376 q 411 395 411 388 q 389 451 411 432 q 329 471 368 471 q 296 467 314 471 q 261 454 278 463 q 229 427 243 444 q 205 383 214 410 q 165 385 189 383 q 119 395 142 387 q 81 422 97 404 q 65 473 65 441 q 77 522 65 500 q 108 561 88 543 q 155 590 128 578 q 212 611 182 603 q 273 624 241 620 q 334 628 304 628 q 447 617 396 628 q 533 580 497 606 q 588 513 568 555 q 607 411 607 471 q 605 359 607 391 q 600 294 602 327 q 595 232 597 260 q 593 191 593 203 q 597 166 593 176 q 608 150 602 156 q 624 141 615 144 q 640 139 632 139 q 660 141 652 139 q 679 149 669 143 l 733 57 m 395 253 q 344 249 372 253 q 292 234 316 244 q 250 209 267 224 q 233 172 233 194 q 247 141 233 153 q 286 129 260 129 q 325 136 305 129 q 361 158 345 143 q 389 197 377 173 q 406 253 401 220 l 395 253 m 207 741 l 138 810 l 369 1061 l 570 810 l 500 741 l 359 864 l 207 741 z "},"":{"ha":725,"x_min":37,"x_max":733,"o":"m 733 57 q 659 3 700 23 q 568 -17 617 -17 q 477 12 511 -17 q 431 87 443 41 q 394 47 414 66 q 347 14 373 28 q 290 -9 321 -1 q 220 -17 258 -17 q 139 -3 173 -17 q 82 33 104 10 q 48 85 60 56 q 37 144 37 114 q 56 225 37 191 q 104 284 74 259 q 173 325 134 309 q 254 350 212 340 q 335 362 295 359 q 410 367 376 366 q 411 382 411 376 q 411 395 411 388 q 389 451 411 432 q 329 471 368 471 q 296 467 314 471 q 261 454 278 463 q 229 427 243 444 q 205 383 214 410 q 165 385 189 383 q 119 395 142 387 q 81 422 97 404 q 65 473 65 441 q 77 522 65 500 q 108 561 88 543 q 155 590 128 578 q 212 611 182 603 q 273 624 241 620 q 334 628 304 628 q 447 617 396 628 q 533 580 497 606 q 588 513 568 555 q 607 411 607 471 q 605 359 607 391 q 600 294 602 327 q 595 232 597 260 q 593 191 593 203 q 597 166 593 176 q 608 150 602 156 q 624 141 615 144 q 640 139 632 139 q 660 141 652 139 q 679 149 669 143 l 733 57 m 395 253 q 344 249 372 253 q 292 234 316 244 q 250 209 267 224 q 233 172 233 194 q 247 141 233 153 q 286 129 260 129 q 325 136 305 129 q 361 158 345 143 q 389 197 377 173 q 406 253 401 220 l 395 253 m 471 890 q 502 902 486 890 q 529 926 517 913 q 557 962 543 942 l 624 909 q 592 854 610 884 q 552 799 574 824 q 503 757 529 774 q 446 741 476 741 q 390 752 418 741 q 336 778 362 764 q 288 804 310 792 q 250 815 266 815 q 220 803 235 815 q 193 778 205 791 q 165 741 178 761 l 96 793 q 127 849 109 819 q 169 905 146 880 q 218 948 191 931 q 275 965 245 965 q 331 954 302 965 q 385 928 359 942 q 433 902 411 913 q 471 890 455 890 z "},"":{"ha":725,"x_min":37,"x_max":733,"o":"m 733 57 q 659 3 700 23 q 568 -17 617 -17 q 477 12 511 -17 q 431 87 443 41 q 394 47 414 66 q 347 14 373 28 q 290 -9 321 -1 q 220 -17 258 -17 q 139 -3 173 -17 q 82 33 104 10 q 48 85 60 56 q 37 144 37 114 q 56 225 37 191 q 104 284 74 259 q 173 325 134 309 q 254 350 212 340 q 335 362 295 359 q 410 367 376 366 q 411 382 411 376 q 411 395 411 388 q 389 451 411 432 q 329 471 368 471 q 296 467 314 471 q 261 454 278 463 q 229 427 243 444 q 205 383 214 410 q 165 385 189 383 q 119 395 142 387 q 81 422 97 404 q 65 473 65 441 q 77 522 65 500 q 108 561 88 543 q 155 590 128 578 q 212 611 182 603 q 273 624 241 620 q 334 628 304 628 q 447 617 396 628 q 533 580 497 606 q 588 513 568 555 q 607 411 607 471 q 605 359 607 391 q 600 294 602 327 q 595 232 597 260 q 593 191 593 203 q 597 166 593 176 q 608 150 602 156 q 624 141 615 144 q 640 139 632 139 q 660 141 652 139 q 679 149 669 143 l 733 57 m 395 253 q 344 249 372 253 q 292 234 316 244 q 250 209 267 224 q 233 172 233 194 q 247 141 233 153 q 286 129 260 129 q 325 136 305 129 q 361 158 345 143 q 389 197 377 173 q 406 253 401 220 l 395 253 m 225 747 q 188 754 205 747 q 158 774 171 761 q 138 807 145 787 q 130 852 130 827 q 137 895 130 875 q 157 931 144 916 q 188 955 170 946 q 229 964 206 964 q 265 957 248 964 q 295 937 282 950 q 315 905 308 924 q 322 861 322 886 q 316 818 322 838 q 297 781 309 797 q 267 756 285 766 q 225 747 248 747 m 484 747 q 448 754 465 747 q 418 774 431 761 q 397 807 405 787 q 390 852 390 827 q 397 895 390 875 q 417 931 404 916 q 448 955 430 946 q 490 964 467 964 q 526 957 509 964 q 555 937 543 950 q 575 905 568 924 q 582 861 582 886 q 575 818 582 838 q 556 781 569 797 q 525 756 543 766 q 484 747 507 747 z "},"":{"ha":725,"x_min":37,"x_max":733,"o":"m 733 57 q 659 3 700 23 q 568 -17 617 -17 q 477 12 511 -17 q 431 87 443 41 q 394 47 414 66 q 347 14 373 28 q 290 -9 321 -1 q 220 -17 258 -17 q 139 -3 173 -17 q 82 33 104 10 q 48 85 60 56 q 37 144 37 114 q 56 225 37 191 q 104 284 74 259 q 173 325 134 309 q 254 350 212 340 q 335 362 295 359 q 410 367 376 366 q 411 382 411 376 q 411 395 411 388 q 389 451 411 432 q 329 471 368 471 q 296 467 314 471 q 261 454 278 463 q 229 427 243 444 q 205 383 214 410 q 165 385 189 383 q 119 395 142 387 q 81 422 97 404 q 65 473 65 441 q 77 522 65 500 q 108 561 88 543 q 155 590 128 578 q 212 611 182 603 q 273 624 241 620 q 334 628 304 628 q 447 617 396 628 q 533 580 497 606 q 588 513 568 555 q 607 411 607 471 q 605 359 607 391 q 600 294 602 327 q 595 232 597 260 q 593 191 593 203 q 597 166 593 176 q 608 150 602 156 q 624 141 615 144 q 640 139 632 139 q 660 141 652 139 q 679 149 669 143 l 733 57 m 395 253 q 344 249 372 253 q 292 234 316 244 q 250 209 267 224 q 233 172 233 194 q 247 141 233 153 q 286 129 260 129 q 325 136 305 129 q 361 158 345 143 q 389 197 377 173 q 406 253 401 220 l 395 253 m 357 977 q 306 954 323 977 q 289 900 289 932 q 293 874 289 887 q 306 850 297 861 q 327 832 314 839 q 358 825 340 825 q 407 844 390 825 q 425 900 425 863 q 421 926 425 912 q 409 950 417 939 q 388 969 401 962 q 357 977 375 977 m 183 889 q 197 954 183 923 q 235 1009 210 985 q 295 1047 260 1033 q 374 1061 330 1061 q 444 1050 414 1061 q 493 1019 473 1038 q 521 973 512 999 q 530 920 530 947 q 515 849 530 882 q 475 792 500 816 q 415 754 449 768 q 342 741 380 741 q 268 753 298 741 q 219 787 237 766 q 192 834 200 808 q 183 889 183 861 z "},"":{"ha":1028,"x_min":37,"x_max":972,"o":"m 583 253 q 602 207 589 228 q 635 170 614 185 q 685 146 656 155 q 751 138 714 138 q 788 139 768 138 q 829 144 808 140 q 871 152 850 147 q 911 165 892 157 l 954 81 q 829 8 899 34 q 675 -17 760 -17 q 581 -4 621 -17 q 512 26 541 8 q 466 64 484 44 q 437 98 448 84 q 349 14 401 44 q 220 -17 296 -17 q 139 -3 173 -17 q 82 33 104 10 q 48 85 60 56 q 37 144 37 114 q 56 225 37 191 q 104 284 74 259 q 173 325 134 309 q 254 350 212 340 q 335 362 295 359 q 410 367 376 366 q 411 382 411 376 q 411 395 411 388 q 389 451 411 432 q 329 471 368 471 q 296 467 314 471 q 261 454 278 463 q 229 427 243 444 q 205 383 214 410 q 165 385 189 383 q 119 395 142 387 q 81 422 97 404 q 65 473 65 441 q 77 522 65 500 q 108 561 88 543 q 155 590 128 578 q 212 611 182 603 q 273 624 241 620 q 334 628 304 628 q 447 616 397 628 q 529 576 496 604 q 611 615 564 602 q 713 628 658 628 q 828 608 779 628 q 909 553 877 587 q 957 472 941 518 q 972 375 972 426 q 970 336 972 356 q 966 299 968 316 q 961 261 964 279 q 869 253 920 255 q 755 250 819 250 q 711 251 734 250 q 666 251 688 251 q 622 252 643 252 q 583 253 600 252 m 703 479 q 668 473 686 479 q 636 452 651 466 q 610 416 622 437 q 593 366 599 395 q 650 369 619 366 q 708 374 682 372 q 754 379 735 377 q 777 383 773 382 l 777 393 q 758 455 777 431 q 703 479 739 479 m 395 253 q 344 249 372 253 q 292 234 316 244 q 250 209 267 224 q 233 172 233 194 q 247 141 233 153 q 286 129 260 129 q 325 136 305 129 q 361 158 345 143 q 389 197 377 173 q 406 253 401 220 l 395 253 z "},"":{"ha":643,"x_min":26,"x_max":614,"o":"m 608 81 q 496 14 559 39 q 358 -16 432 -10 l 353 -49 q 391 -62 373 -54 q 423 -84 410 -71 q 445 -115 437 -97 q 453 -158 453 -134 q 439 -219 453 -191 q 400 -268 425 -248 q 342 -301 376 -289 q 271 -313 309 -313 q 204 -292 227 -313 q 182 -241 182 -272 q 189 -207 182 -224 q 218 -172 197 -190 q 261 -200 235 -187 q 314 -214 287 -214 q 341 -205 332 -214 q 351 -182 351 -197 q 343 -159 351 -169 q 320 -143 335 -150 q 286 -134 306 -137 q 243 -131 266 -131 q 256 -70 250 -100 q 268 -12 262 -40 q 167 18 212 -5 q 91 78 122 41 q 43 165 60 115 q 26 275 26 215 q 51 412 26 348 q 122 525 76 477 q 233 600 168 572 q 378 628 298 628 q 471 615 428 628 q 546 581 514 603 q 596 530 578 559 q 614 468 614 501 q 564 369 614 402 q 418 336 515 336 q 413 390 416 364 q 400 436 409 416 q 378 468 392 456 q 342 479 363 479 q 298 467 317 479 q 264 432 278 455 q 243 377 251 409 q 236 304 236 345 q 248 230 236 261 q 283 178 260 198 q 337 148 305 157 q 407 138 368 138 q 485 145 441 138 q 567 168 528 153 l 608 81 z "},"":{"ha":685,"x_min":26,"x_max":629,"o":"m 231 253 q 248 207 235 228 q 282 170 261 185 q 332 146 303 155 q 399 138 361 138 q 476 144 433 138 q 558 165 519 150 l 602 81 q 476 8 546 34 q 322 -17 407 -17 q 196 4 252 -17 q 103 64 141 26 q 46 157 66 103 q 26 275 26 211 q 48 410 26 346 q 112 523 70 474 q 214 600 153 571 q 353 628 275 628 q 471 609 419 628 q 557 557 522 591 q 611 477 593 524 q 629 375 629 431 q 627 336 629 356 q 623 299 625 316 q 618 261 621 279 q 522 253 577 255 q 403 250 466 250 q 359 251 382 250 q 313 251 336 251 q 269 252 290 252 q 231 253 248 252 m 347 479 q 313 473 330 479 q 281 452 296 466 q 255 416 266 437 q 237 366 243 395 q 295 369 264 366 q 353 374 326 372 q 399 379 380 377 q 421 383 418 382 l 421 393 q 402 455 421 431 q 347 479 384 479 m 382 741 l 151 951 q 180 975 163 960 q 215 1006 197 989 q 249 1037 233 1022 q 274 1061 265 1053 l 457 808 l 382 741 z "},"":{"ha":685,"x_min":26,"x_max":629,"o":"m 231 253 q 248 207 235 228 q 282 170 261 185 q 332 146 303 155 q 399 138 361 138 q 476 144 433 138 q 558 165 519 150 l 602 81 q 476 8 546 34 q 322 -17 407 -17 q 196 4 252 -17 q 103 64 141 26 q 46 157 66 103 q 26 275 26 211 q 48 410 26 346 q 112 523 70 474 q 214 600 153 571 q 353 628 275 628 q 471 609 419 628 q 557 557 522 591 q 611 477 593 524 q 629 375 629 431 q 627 336 629 356 q 623 299 625 316 q 618 261 621 279 q 522 253 577 255 q 403 250 466 250 q 359 251 382 250 q 313 251 336 251 q 269 252 290 252 q 231 253 248 252 m 347 479 q 313 473 330 479 q 281 452 296 466 q 255 416 266 437 q 237 366 243 395 q 295 369 264 366 q 353 374 326 372 q 399 379 380 377 q 421 383 418 382 l 421 393 q 402 455 421 431 q 347 479 384 479 m 265 804 l 436 1061 q 463 1037 446 1052 q 498 1006 479 1022 q 534 978 517 991 q 563 960 552 965 l 339 741 l 265 804 z "},"":{"ha":685,"x_min":26,"x_max":629,"o":"m 231 253 q 248 207 235 228 q 282 170 261 185 q 332 146 303 155 q 399 138 361 138 q 476 144 433 138 q 558 165 519 150 l 602 81 q 476 8 546 34 q 322 -17 407 -17 q 196 4 252 -17 q 103 64 141 26 q 46 157 66 103 q 26 275 26 211 q 48 410 26 346 q 112 523 70 474 q 214 600 153 571 q 353 628 275 628 q 471 609 419 628 q 557 557 522 591 q 611 477 593 524 q 629 375 629 431 q 627 336 629 356 q 623 299 625 316 q 618 261 621 279 q 522 253 577 255 q 403 250 466 250 q 359 251 382 250 q 313 251 336 251 q 269 252 290 252 q 231 253 248 252 m 347 479 q 313 473 330 479 q 281 452 296 466 q 255 416 266 437 q 237 366 243 395 q 295 369 264 366 q 353 374 326 372 q 399 379 380 377 q 421 383 418 382 l 421 393 q 402 455 421 431 q 347 479 384 479 m 210 741 l 141 810 l 372 1061 l 573 810 l 503 741 l 362 864 l 210 741 z "},"":{"ha":685,"x_min":26,"x_max":629,"o":"m 231 253 q 248 207 235 228 q 282 170 261 185 q 332 146 303 155 q 399 138 361 138 q 476 144 433 138 q 558 165 519 150 l 602 81 q 476 8 546 34 q 322 -17 407 -17 q 196 4 252 -17 q 103 64 141 26 q 46 157 66 103 q 26 275 26 211 q 48 410 26 346 q 112 523 70 474 q 214 600 153 571 q 353 628 275 628 q 471 609 419 628 q 557 557 522 591 q 611 477 593 524 q 629 375 629 431 q 627 336 629 356 q 623 299 625 316 q 618 261 621 279 q 522 253 577 255 q 403 250 466 250 q 359 251 382 250 q 313 251 336 251 q 269 252 290 252 q 231 253 248 252 m 347 479 q 313 473 330 479 q 281 452 296 466 q 255 416 266 437 q 237 366 243 395 q 295 369 264 366 q 353 374 326 372 q 399 379 380 377 q 421 383 418 382 l 421 393 q 402 455 421 431 q 347 479 384 479 m 227 747 q 190 754 207 747 q 159 774 172 761 q 139 807 146 787 q 132 852 132 827 q 138 895 132 875 q 158 931 145 916 q 189 955 171 946 q 231 964 208 964 q 267 957 250 964 q 296 937 283 950 q 316 905 309 924 q 323 861 323 886 q 317 818 323 838 q 298 781 311 797 q 268 756 286 766 q 227 747 250 747 m 485 747 q 449 754 466 747 q 419 774 432 761 q 399 807 406 787 q 391 852 391 827 q 398 895 391 875 q 418 931 405 916 q 450 955 431 946 q 492 964 468 964 q 527 957 511 964 q 556 937 544 950 q 576 905 569 924 q 583 861 583 886 q 577 818 583 838 q 557 781 570 797 q 526 756 545 766 q 485 747 508 747 z "},"":{"ha":418,"x_min":-40,"x_max":400,"o":"m 396 0 l 380 0 q 217 -5 291 0 q 75 -28 144 -11 q 89 65 82 20 q 102 156 96 111 q 111 245 107 201 q 114 336 114 290 q 91 435 114 404 q 18 471 68 467 l 22 581 q 195 597 115 584 q 345 628 275 610 q 318 431 330 531 q 306 239 306 331 q 332 140 306 171 q 400 110 358 110 l 396 0 m 191 741 l -40 951 q -11 975 -28 960 q 24 1006 6 989 q 58 1037 42 1022 q 83 1061 74 1053 l 266 808 l 191 741 z "},"":{"ha":418,"x_min":18,"x_max":433,"o":"m 396 0 l 380 0 q 217 -5 291 0 q 75 -28 144 -11 q 89 65 82 20 q 102 156 96 111 q 111 245 107 201 q 114 336 114 290 q 91 435 114 404 q 18 471 68 467 l 22 581 q 195 597 115 584 q 345 628 275 610 q 318 431 330 531 q 306 239 306 331 q 332 140 306 171 q 400 110 358 110 l 396 0 m 136 804 l 307 1061 q 333 1037 316 1052 q 369 1006 350 1022 q 405 978 387 991 q 433 960 422 965 l 210 741 l 136 804 z "},"":{"ha":418,"x_min":13,"x_max":445,"o":"m 396 0 l 380 0 q 217 -5 291 0 q 75 -28 144 -11 q 89 65 82 20 q 102 156 96 111 q 111 245 107 201 q 114 336 114 290 q 91 435 114 404 q 18 471 68 467 l 22 581 q 195 597 115 584 q 345 628 275 610 q 318 431 330 531 q 306 239 306 331 q 332 140 306 171 q 400 110 358 110 l 396 0 m 81 741 l 13 810 l 243 1061 l 445 810 l 374 741 l 234 864 l 81 741 z "},"":{"ha":418,"x_min":7,"x_max":459,"o":"m 396 0 l 380 0 q 217 -5 291 0 q 75 -28 144 -11 q 89 65 82 20 q 102 156 96 111 q 111 245 107 201 q 114 336 114 290 q 91 435 114 404 q 18 471 68 467 l 22 581 q 195 597 115 584 q 345 628 275 610 q 318 431 330 531 q 306 239 306 331 q 332 140 306 171 q 400 110 358 110 l 396 0 m 102 747 q 65 754 83 747 q 35 774 48 761 q 15 807 22 787 q 7 852 7 827 q 14 895 7 875 q 34 931 21 916 q 65 955 47 946 q 106 964 83 964 q 142 957 125 964 q 172 937 159 950 q 192 905 185 924 q 199 861 199 886 q 193 818 199 838 q 174 781 186 797 q 144 756 162 766 q 102 747 125 747 m 361 747 q 325 754 342 747 q 295 774 308 761 q 275 807 282 787 q 267 852 267 827 q 274 895 267 875 q 294 931 281 916 q 326 955 307 946 q 368 964 344 964 q 403 957 387 964 q 432 937 420 950 q 452 905 445 924 q 459 861 459 886 q 453 818 459 838 q 433 781 446 797 q 402 756 420 766 q 361 747 384 747 z "},"":{"ha":728,"x_min":32,"x_max":688,"o":"m 583 838 q 653 671 629 762 q 676 481 676 581 q 653 280 676 372 q 586 122 631 189 q 474 20 541 56 q 319 -17 408 -17 q 198 5 251 -17 q 107 65 144 27 q 51 155 71 104 q 32 262 32 205 q 60 417 32 349 q 137 532 89 485 q 247 603 184 578 q 378 628 309 628 q 412 626 393 628 q 450 623 431 625 q 433 692 443 658 q 407 760 422 727 q 304 710 353 734 q 218 661 256 685 l 224 804 q 250 817 235 810 q 281 831 265 824 q 314 845 297 838 q 345 859 330 852 q 276 918 314 893 q 189 956 237 942 l 193 1069 q 373 1030 290 1069 q 519 922 456 991 q 590 944 555 935 q 654 962 624 954 l 688 876 l 583 838 m 350 140 q 406 164 385 140 q 441 229 428 187 q 459 328 454 271 q 465 452 464 385 q 416 465 444 461 q 366 469 389 469 q 316 458 338 469 q 276 425 293 446 q 251 374 260 404 q 241 309 241 345 q 250 229 241 261 q 274 177 259 197 q 309 149 290 157 q 350 140 328 140 z "},"":{"ha":798,"x_min":14,"x_max":783,"o":"m 275 493 q 325 544 298 519 q 383 587 352 568 q 449 617 414 606 q 525 628 485 628 q 656 572 612 628 q 701 410 701 517 q 699 360 701 387 q 695 307 697 332 q 691 260 693 281 q 689 229 689 239 q 694 182 689 204 q 712 144 700 161 q 741 119 724 128 q 783 110 759 110 l 779 0 l 765 0 q 676 -1 716 0 q 602 -6 637 -3 q 532 -14 566 -9 q 461 -28 498 -20 q 477 75 470 21 q 489 180 484 129 q 497 274 494 231 q 500 345 500 317 q 495 393 500 374 q 480 425 490 413 q 456 442 471 437 q 422 447 441 447 q 363 437 392 447 q 313 414 334 427 q 310 373 311 399 q 307 315 309 348 q 305 244 306 283 q 305 165 304 206 q 306 82 305 124 q 310 0 307 40 q 238 -2 271 0 q 176 -8 205 -5 q 122 -17 148 -12 q 74 -28 97 -22 q 89 74 83 21 q 100 176 96 127 q 107 267 105 224 q 110 336 110 309 q 105 391 110 367 q 89 432 100 415 q 60 459 78 449 q 14 471 41 469 l 18 581 q 170 597 100 584 q 301 628 241 611 l 275 493 m 524 890 q 554 902 539 890 q 582 926 570 913 q 610 962 596 942 l 677 909 q 645 854 663 884 q 605 799 627 824 q 555 757 582 774 q 498 741 529 741 q 443 752 471 741 q 389 778 415 764 q 341 804 363 792 q 303 815 319 815 q 273 803 288 815 q 245 778 258 791 q 218 741 231 761 l 149 793 q 180 849 161 819 q 221 905 199 880 q 271 948 244 931 q 328 965 298 965 q 384 954 355 965 q 438 928 412 942 q 486 902 464 913 q 524 890 508 890 z "},"":{"ha":713,"x_min":26,"x_max":681,"o":"m 26 281 q 51 411 26 348 q 122 522 76 473 q 233 599 168 570 q 378 628 298 628 q 514 606 457 628 q 608 545 571 584 q 663 454 646 507 q 681 342 681 402 q 653 201 681 267 q 577 87 625 135 q 467 11 530 39 q 335 -17 404 -17 q 190 7 249 -17 q 95 72 131 31 q 42 167 58 113 q 26 281 26 221 m 236 304 q 245 234 236 265 q 270 180 254 202 q 307 145 286 157 q 351 134 328 134 q 398 145 376 134 q 436 180 420 157 q 461 234 452 202 q 471 304 471 265 q 461 377 471 345 q 436 432 452 410 q 398 467 420 455 q 351 479 376 479 q 307 467 328 479 q 270 432 286 455 q 245 377 254 410 q 236 304 236 345 m 372 741 l 141 951 q 170 975 153 960 q 205 1006 187 989 q 239 1037 223 1022 q 264 1061 255 1053 l 447 808 l 372 741 z "},"":{"ha":713,"x_min":26,"x_max":681,"o":"m 26 281 q 51 411 26 348 q 122 522 76 473 q 233 599 168 570 q 378 628 298 628 q 514 606 457 628 q 608 545 571 584 q 663 454 646 507 q 681 342 681 402 q 653 201 681 267 q 577 87 625 135 q 467 11 530 39 q 335 -17 404 -17 q 190 7 249 -17 q 95 72 131 31 q 42 167 58 113 q 26 281 26 221 m 236 304 q 245 234 236 265 q 270 180 254 202 q 307 145 286 157 q 351 134 328 134 q 398 145 376 134 q 436 180 420 157 q 461 234 452 202 q 471 304 471 265 q 461 377 471 345 q 436 432 452 410 q 398 467 420 455 q 351 479 376 479 q 307 467 328 479 q 270 432 286 455 q 245 377 254 410 q 236 304 236 345 m 269 804 l 440 1061 q 467 1037 450 1052 q 502 1006 484 1022 q 538 978 521 991 q 567 960 556 965 l 343 741 l 269 804 z "},"":{"ha":713,"x_min":26,"x_max":681,"o":"m 26 281 q 51 411 26 348 q 122 522 76 473 q 233 599 168 570 q 378 628 298 628 q 514 606 457 628 q 608 545 571 584 q 663 454 646 507 q 681 342 681 402 q 653 201 681 267 q 577 87 625 135 q 467 11 530 39 q 335 -17 404 -17 q 190 7 249 -17 q 95 72 131 31 q 42 167 58 113 q 26 281 26 221 m 236 304 q 245 234 236 265 q 270 180 254 202 q 307 145 286 157 q 351 134 328 134 q 398 145 376 134 q 436 180 420 157 q 461 234 452 202 q 471 304 471 265 q 461 377 471 345 q 436 432 452 410 q 398 467 420 455 q 351 479 376 479 q 307 467 328 479 q 270 432 286 455 q 245 377 254 410 q 236 304 236 345 m 233 741 l 165 810 l 395 1061 l 597 810 l 526 741 l 386 864 l 233 741 z "},"":{"ha":713,"x_min":26,"x_max":681,"o":"m 26 281 q 51 411 26 348 q 122 522 76 473 q 233 599 168 570 q 378 628 298 628 q 514 606 457 628 q 608 545 571 584 q 663 454 646 507 q 681 342 681 402 q 653 201 681 267 q 577 87 625 135 q 467 11 530 39 q 335 -17 404 -17 q 190 7 249 -17 q 95 72 131 31 q 42 167 58 113 q 26 281 26 221 m 236 304 q 245 234 236 265 q 270 180 254 202 q 307 145 286 157 q 351 134 328 134 q 398 145 376 134 q 436 180 420 157 q 461 234 452 202 q 471 304 471 265 q 461 377 471 345 q 436 432 452 410 q 398 467 420 455 q 351 479 376 479 q 307 467 328 479 q 270 432 286 455 q 245 377 254 410 q 236 304 236 345 m 484 890 q 515 902 500 890 q 543 926 530 913 q 570 962 557 942 l 637 909 q 606 854 624 884 q 565 799 588 824 q 516 757 543 774 q 459 741 490 741 q 404 752 431 741 q 350 778 376 764 q 301 804 323 792 q 264 815 279 815 q 233 803 248 815 q 206 778 218 791 q 179 741 192 761 l 109 793 q 141 849 122 819 q 182 905 159 880 q 232 948 205 931 q 289 965 258 965 q 344 954 316 965 q 398 928 372 942 q 447 902 425 913 q 484 890 469 890 z "},"":{"ha":713,"x_min":26,"x_max":681,"o":"m 26 281 q 51 411 26 348 q 122 522 76 473 q 233 599 168 570 q 378 628 298 628 q 514 606 457 628 q 608 545 571 584 q 663 454 646 507 q 681 342 681 402 q 653 201 681 267 q 577 87 625 135 q 467 11 530 39 q 335 -17 404 -17 q 190 7 249 -17 q 95 72 131 31 q 42 167 58 113 q 26 281 26 221 m 236 304 q 245 234 236 265 q 270 180 254 202 q 307 145 286 157 q 351 134 328 134 q 398 145 376 134 q 436 180 420 157 q 461 234 452 202 q 471 304 471 265 q 461 377 471 345 q 436 432 452 410 q 398 467 420 455 q 351 479 376 479 q 307 467 328 479 q 270 432 286 455 q 245 377 254 410 q 236 304 236 345 m 241 747 q 204 754 221 747 q 174 774 186 761 q 153 807 161 787 q 146 852 146 827 q 153 895 146 875 q 172 931 159 916 q 203 955 185 946 q 245 964 222 964 q 281 957 264 964 q 311 937 298 950 q 331 905 323 924 q 338 861 338 886 q 331 818 338 838 q 313 781 325 797 q 282 756 300 766 q 241 747 264 747 m 499 747 q 463 754 480 747 q 433 774 446 761 q 413 807 420 787 q 406 852 406 827 q 412 895 406 875 q 432 931 419 916 q 464 955 446 946 q 506 964 482 964 q 542 957 525 964 q 571 937 558 950 q 590 905 583 924 q 597 861 597 886 q 591 818 597 838 q 572 781 585 797 q 541 756 559 766 q 499 747 522 747 z "},"":{"ha":749,"x_min":56,"x_max":694,"o":"m 694 372 l 56 372 l 56 500 l 694 500 l 694 372 m 256 189 q 264 236 256 216 q 287 268 273 255 q 319 286 301 280 q 357 292 338 292 q 394 286 376 292 q 428 268 413 280 q 451 236 442 255 q 460 189 460 216 q 452 144 460 165 q 430 110 444 124 q 397 87 416 95 q 357 79 378 79 q 317 87 335 79 q 285 110 298 95 q 263 144 271 124 q 256 189 256 165 m 271 681 q 279 727 271 708 q 302 759 288 747 q 334 778 316 772 q 372 783 353 783 q 410 778 391 783 q 443 759 429 772 q 466 727 457 747 q 475 681 475 708 q 467 636 475 656 q 445 601 459 616 q 413 579 431 587 q 372 571 394 571 q 332 579 351 571 q 300 601 314 587 q 278 636 286 616 q 271 681 271 656 z "},"":{"ha":785,"x_min":0,"x_max":757,"o":"m 62 281 q 87 411 62 348 q 158 522 112 473 q 269 599 203 570 q 414 628 334 628 q 522 615 475 628 q 604 578 568 602 l 697 669 l 757 610 l 665 519 q 704 438 691 483 q 717 342 717 393 q 689 201 717 267 q 613 87 661 135 q 503 11 566 39 q 371 -17 440 -17 q 257 -3 306 -17 q 172 35 208 11 l 60 -75 l 0 -16 l 113 96 q 75 181 87 134 q 62 281 62 228 m 507 304 q 501 359 507 333 l 311 172 q 346 143 326 153 q 387 134 366 134 q 435 145 413 134 q 473 180 457 157 q 498 234 489 202 q 507 304 507 265 m 272 304 q 272 279 272 291 q 275 256 273 267 l 465 441 q 430 469 450 459 q 387 479 410 479 q 342 467 363 479 q 306 432 321 455 q 281 377 290 410 q 272 304 272 345 z "},"":{"ha":803,"x_min":12,"x_max":785,"o":"m 681 241 q 708 146 681 178 q 785 110 734 114 l 781 0 l 771 0 q 700 -2 732 0 q 638 -7 667 -3 q 582 -15 610 -10 q 524 -28 554 -20 l 550 114 q 502 67 532 90 q 436 25 473 44 q 359 -5 400 6 q 278 -17 319 -17 q 203 -4 237 -17 q 143 35 168 9 q 103 100 117 61 q 89 192 89 139 q 94 280 89 237 q 98 359 98 323 q 93 399 98 380 q 77 432 87 418 q 50 456 66 447 q 12 468 34 466 l 17 578 q 104 584 62 579 q 184 595 146 589 q 257 611 222 602 q 328 628 293 619 q 314 532 320 584 q 302 429 307 480 q 293 330 296 377 q 290 248 290 282 q 297 208 290 224 q 315 182 304 192 q 343 168 327 172 q 379 164 359 164 q 434 174 408 164 q 479 196 460 184 q 481 234 480 210 q 483 288 482 258 q 485 353 484 318 q 485 422 485 387 q 485 509 485 465 q 481 597 484 553 q 613 607 552 597 q 717 628 674 617 q 699 509 706 568 q 688 398 692 450 q 682 305 684 346 q 681 241 681 264 m 391 741 l 161 951 q 190 975 172 960 q 225 1006 207 989 q 259 1037 243 1022 q 283 1061 275 1053 l 467 808 l 391 741 z "},"":{"ha":803,"x_min":12,"x_max":785,"o":"m 681 241 q 708 146 681 178 q 785 110 734 114 l 781 0 l 771 0 q 700 -2 732 0 q 638 -7 667 -3 q 582 -15 610 -10 q 524 -28 554 -20 l 550 114 q 502 67 532 90 q 436 25 473 44 q 359 -5 400 6 q 278 -17 319 -17 q 203 -4 237 -17 q 143 35 168 9 q 103 100 117 61 q 89 192 89 139 q 94 280 89 237 q 98 359 98 323 q 93 399 98 380 q 77 432 87 418 q 50 456 66 447 q 12 468 34 466 l 17 578 q 104 584 62 579 q 184 595 146 589 q 257 611 222 602 q 328 628 293 619 q 314 532 320 584 q 302 429 307 480 q 293 330 296 377 q 290 248 290 282 q 297 208 290 224 q 315 182 304 192 q 343 168 327 172 q 379 164 359 164 q 434 174 408 164 q 479 196 460 184 q 481 234 480 210 q 483 288 482 258 q 485 353 484 318 q 485 422 485 387 q 485 509 485 465 q 481 597 484 553 q 613 607 552 597 q 717 628 674 617 q 699 509 706 568 q 688 398 692 450 q 682 305 684 346 q 681 241 681 264 m 302 804 l 473 1061 q 500 1037 483 1052 q 535 1006 517 1022 q 572 978 554 991 q 600 960 589 965 l 376 741 l 302 804 z "},"":{"ha":803,"x_min":12,"x_max":785,"o":"m 681 241 q 708 146 681 178 q 785 110 734 114 l 781 0 l 771 0 q 700 -2 732 0 q 638 -7 667 -3 q 582 -15 610 -10 q 524 -28 554 -20 l 550 114 q 502 67 532 90 q 436 25 473 44 q 359 -5 400 6 q 278 -17 319 -17 q 203 -4 237 -17 q 143 35 168 9 q 103 100 117 61 q 89 192 89 139 q 94 280 89 237 q 98 359 98 323 q 93 399 98 380 q 77 432 87 418 q 50 456 66 447 q 12 468 34 466 l 17 578 q 104 584 62 579 q 184 595 146 589 q 257 611 222 602 q 328 628 293 619 q 314 532 320 584 q 302 429 307 480 q 293 330 296 377 q 290 248 290 282 q 297 208 290 224 q 315 182 304 192 q 343 168 327 172 q 379 164 359 164 q 434 174 408 164 q 479 196 460 184 q 481 234 480 210 q 483 288 482 258 q 485 353 484 318 q 485 422 485 387 q 485 509 485 465 q 481 597 484 553 q 613 607 552 597 q 717 628 674 617 q 699 509 706 568 q 688 398 692 450 q 682 305 684 346 q 681 241 681 264 m 262 741 l 194 810 l 425 1061 l 626 810 l 555 741 l 415 864 l 262 741 z "},"":{"ha":803,"x_min":12,"x_max":785,"o":"m 681 241 q 708 146 681 178 q 785 110 734 114 l 781 0 l 771 0 q 700 -2 732 0 q 638 -7 667 -3 q 582 -15 610 -10 q 524 -28 554 -20 l 550 114 q 502 67 532 90 q 436 25 473 44 q 359 -5 400 6 q 278 -17 319 -17 q 203 -4 237 -17 q 143 35 168 9 q 103 100 117 61 q 89 192 89 139 q 94 280 89 237 q 98 359 98 323 q 93 399 98 380 q 77 432 87 418 q 50 456 66 447 q 12 468 34 466 l 17 578 q 104 584 62 579 q 184 595 146 589 q 257 611 222 602 q 328 628 293 619 q 314 532 320 584 q 302 429 307 480 q 293 330 296 377 q 290 248 290 282 q 297 208 290 224 q 315 182 304 192 q 343 168 327 172 q 379 164 359 164 q 434 174 408 164 q 479 196 460 184 q 481 234 480 210 q 483 288 482 258 q 485 353 484 318 q 485 422 485 387 q 485 509 485 465 q 481 597 484 553 q 613 607 552 597 q 717 628 674 617 q 699 509 706 568 q 688 398 692 450 q 682 305 684 346 q 681 241 681 264 m 277 747 q 240 754 257 747 q 210 774 222 761 q 189 807 197 787 q 182 852 182 827 q 189 895 182 875 q 208 931 195 916 q 239 955 221 946 q 281 964 258 964 q 317 957 300 964 q 347 937 334 950 q 367 905 359 924 q 374 861 374 886 q 367 818 374 838 q 349 781 361 797 q 318 756 336 766 q 277 747 300 747 m 535 747 q 499 754 516 747 q 469 774 482 761 q 449 807 456 787 q 441 852 441 827 q 448 895 441 875 q 468 931 455 916 q 500 955 481 946 q 542 964 518 964 q 577 957 561 964 q 607 937 594 950 q 626 905 619 924 q 633 861 633 886 q 627 818 633 838 q 608 781 621 797 q 576 756 595 766 q 535 747 558 747 z "},"":{"ha":708,"x_min":-56,"x_max":664,"o":"m 248 611 q 267 531 256 574 q 292 440 279 487 q 318 347 304 393 q 345 258 332 300 q 369 180 357 216 q 389 122 380 145 q 409 174 398 144 q 429 236 420 203 q 444 302 438 269 q 450 367 450 336 q 438 481 450 427 q 400 575 425 535 q 464 614 433 601 q 534 628 495 628 q 587 620 563 628 q 628 596 610 612 q 654 553 645 579 q 664 492 664 528 q 643 365 664 435 q 584 212 623 294 q 488 37 545 130 q 358 -157 431 -56 q 293 -239 328 -199 q 221 -309 258 -278 q 145 -357 184 -339 q 66 -375 106 -375 q 14 -367 37 -375 q -25 -343 -9 -358 q -48 -307 -40 -328 q -56 -261 -56 -286 q -51 -227 -56 -244 q -38 -195 -46 -210 q -20 -167 -31 -180 q 3 -146 -9 -154 q 49 -171 26 -163 q 98 -179 71 -179 q 149 -170 125 -179 q 192 -146 172 -161 q 226 -114 211 -132 q 252 -78 241 -96 q 133 267 198 91 q 1 611 67 442 l 248 611 m 265 804 l 436 1061 q 463 1037 446 1052 q 498 1006 479 1022 q 534 978 517 991 q 563 960 552 965 l 339 741 l 265 804 z "},"":{"ha":725,"x_min":8,"x_max":692,"o":"m 395 447 q 335 437 365 447 q 282 414 305 427 q 275 322 278 371 q 271 231 273 273 q 267 134 268 182 q 308 126 288 128 q 347 123 328 123 q 399 139 375 123 q 442 182 424 155 q 471 247 460 210 q 482 328 482 284 q 459 416 482 385 q 395 447 435 447 m 244 497 q 306 560 275 534 q 366 600 336 585 q 426 622 396 615 q 484 628 455 628 q 576 608 537 628 q 641 554 616 588 q 679 474 667 519 q 692 379 692 429 q 661 206 692 280 q 579 82 630 132 q 464 8 528 33 q 332 -17 399 -17 q 316 -17 326 -17 q 298 -16 307 -16 q 279 -15 288 -16 q 262 -14 269 -14 q 261 -82 262 -44 q 269 -154 261 -120 q 296 -211 276 -188 q 355 -235 315 -234 l 351 -345 l 336 -345 q 173 -351 246 -345 q 31 -375 99 -358 q 61 -55 49 -208 q 82 240 74 97 q 94 520 90 383 q 97 796 97 658 q 95 835 97 819 q 86 868 94 851 q 60 896 79 885 q 8 908 41 907 l 12 1022 q 92 1028 50 1023 q 175 1039 134 1032 q 254 1053 216 1045 q 319 1069 292 1061 l 244 497 z "},"":{"ha":708,"x_min":-56,"x_max":664,"o":"m 248 611 q 267 531 256 574 q 292 440 279 487 q 318 347 304 393 q 345 258 332 300 q 369 180 357 216 q 389 122 380 145 q 409 174 398 144 q 429 236 420 203 q 444 302 438 269 q 450 367 450 336 q 438 481 450 427 q 400 575 425 535 q 464 614 433 601 q 534 628 495 628 q 587 620 563 628 q 628 596 610 612 q 654 553 645 579 q 664 492 664 528 q 643 365 664 435 q 584 212 623 294 q 488 37 545 130 q 358 -157 431 -56 q 293 -239 328 -199 q 221 -309 258 -278 q 145 -357 184 -339 q 66 -375 106 -375 q 14 -367 37 -375 q -25 -343 -9 -358 q -48 -307 -40 -328 q -56 -261 -56 -286 q -51 -227 -56 -244 q -38 -195 -46 -210 q -20 -167 -31 -180 q 3 -146 -9 -154 q 49 -171 26 -163 q 98 -179 71 -179 q 149 -170 125 -179 q 192 -146 172 -161 q 226 -114 211 -132 q 252 -78 241 -96 q 133 267 198 91 q 1 611 67 442 l 248 611 m 225 747 q 188 754 205 747 q 158 774 171 761 q 138 807 145 787 q 130 852 130 827 q 137 895 130 875 q 157 931 144 916 q 188 955 170 946 q 229 964 206 964 q 265 957 248 964 q 295 937 282 950 q 315 905 308 924 q 322 861 322 886 q 316 818 322 838 q 297 781 309 797 q 267 756 285 766 q 225 747 248 747 m 484 747 q 448 754 465 747 q 418 774 431 761 q 397 807 405 787 q 390 852 390 827 q 397 895 390 875 q 417 931 404 916 q 448 955 430 946 q 490 964 467 964 q 526 957 509 964 q 555 937 543 950 q 575 905 568 924 q 582 861 582 886 q 575 818 582 838 q 556 781 569 797 q 525 756 543 766 q 484 747 507 747 z "},"":{"ha":418,"x_min":18,"x_max":400,"o":"m 396 0 l 380 0 q 217 -5 291 0 q 75 -28 144 -11 q 89 65 82 20 q 102 156 96 111 q 111 245 107 201 q 114 336 114 290 q 91 435 114 404 q 18 471 68 467 l 22 581 q 195 597 115 584 q 345 628 275 610 q 318 431 330 531 q 306 239 306 331 q 332 140 306 171 q 400 110 358 110 l 396 0 z "},"":{"ha":1482,"x_min":52,"x_max":1426,"o":"m 1104 163 q 1170 176 1143 165 q 1213 207 1196 186 q 1241 256 1230 227 q 1261 325 1253 285 l 1423 325 l 1383 -14 q 1151 1 1272 -4 q 900 5 1029 5 q 838 5 867 5 q 783 4 810 5 q 729 2 756 3 q 672 0 703 1 q 598 -21 637 -14 q 519 -28 559 -28 q 312 12 399 -28 q 166 118 224 51 q 80 276 108 186 q 52 467 52 366 q 67 601 52 536 q 113 722 83 666 q 187 824 143 779 q 287 903 231 870 q 410 953 342 935 q 554 971 477 971 q 643 963 601 971 q 722 940 684 955 q 783 936 753 938 q 844 933 812 935 q 911 932 876 932 q 989 932 947 932 q 1199 936 1090 932 q 1426 947 1308 940 l 1406 628 l 1249 628 l 1244 665 q 1234 711 1241 691 q 1214 746 1227 732 q 1181 770 1201 761 q 1131 782 1160 779 l 964 799 l 953 546 l 1223 557 l 1217 389 l 947 407 l 943 151 l 1104 163 m 517 821 q 421 791 462 821 q 353 716 380 762 q 312 612 326 669 q 298 498 298 555 q 315 354 298 422 q 361 235 331 286 q 434 154 391 184 q 530 123 477 123 q 626 152 585 123 q 694 228 667 181 q 735 332 722 274 q 749 447 749 389 q 732 590 749 522 q 686 709 716 658 q 613 790 656 760 q 517 821 570 821 z "},"":{"ha":1117,"x_min":26,"x_max":1061,"o":"m 663 253 q 680 208 667 229 q 712 172 692 187 q 762 147 732 156 q 833 138 792 138 q 910 144 868 138 q 990 165 951 150 l 1034 81 q 908 8 978 34 q 754 -17 839 -17 q 634 2 685 -17 q 545 58 583 22 q 448 3 502 22 q 335 -17 393 -17 q 190 7 249 -17 q 95 72 131 31 q 42 167 58 113 q 26 281 26 221 q 51 411 26 348 q 122 522 76 473 q 233 599 168 570 q 378 628 298 628 q 500 610 448 628 q 589 562 553 593 q 675 610 627 593 q 785 628 724 628 q 903 609 851 628 q 989 557 954 591 q 1043 477 1025 524 q 1061 375 1061 431 q 1059 336 1061 356 q 1055 299 1057 316 q 1050 261 1053 279 q 954 253 1009 255 q 835 250 898 250 q 791 251 814 250 q 745 251 768 251 q 701 252 722 252 q 663 253 680 252 m 236 304 q 245 234 236 265 q 270 180 254 202 q 307 145 286 157 q 351 134 328 134 q 398 145 376 134 q 436 180 420 157 q 461 234 452 202 q 471 304 471 265 q 461 377 471 345 q 436 432 452 410 q 398 467 420 455 q 351 479 376 479 q 307 467 328 479 q 270 432 286 455 q 245 377 254 410 q 236 304 236 345 m 779 479 q 745 473 762 479 q 713 452 728 466 q 687 416 698 437 q 669 366 675 395 q 727 369 696 366 q 785 374 758 372 q 830 379 812 377 q 852 383 849 382 l 852 393 q 834 455 852 431 q 779 479 816 479 z "},"":{"ha":850,"x_min":64,"x_max":793,"o":"m 436 815 q 354 793 385 815 q 323 732 323 772 q 333 693 323 711 q 359 660 342 675 q 398 629 375 644 q 447 600 420 614 l 566 538 q 650 489 609 515 q 722 428 690 462 q 773 350 754 393 q 793 252 793 307 q 772 152 793 202 q 704 62 751 102 q 582 -3 657 22 q 399 -28 507 -28 q 306 -25 353 -28 q 216 -17 259 -22 q 133 -4 172 -12 q 64 11 94 3 l 74 315 l 231 315 l 233 293 q 244 237 236 267 q 274 184 253 208 q 330 143 294 159 q 424 127 366 127 q 513 149 479 127 q 547 208 547 170 q 538 244 547 228 q 513 276 530 261 q 474 306 497 292 q 421 336 450 321 l 289 407 q 209 456 247 429 q 142 515 171 482 q 95 590 113 549 q 78 685 78 632 q 85 753 78 719 q 108 819 92 787 q 151 878 124 850 q 219 927 178 906 q 316 959 260 947 q 447 971 372 971 q 540 968 494 971 q 629 960 586 965 q 710 947 672 954 q 779 932 749 940 l 760 628 l 603 628 l 600 646 q 589 701 596 671 q 564 756 581 730 q 516 798 547 781 q 436 815 486 815 m 612 1331 l 680 1261 l 444 1019 l 248 1261 l 319 1331 l 460 1218 l 612 1331 z "},"":{"ha":625,"x_min":25,"x_max":589,"o":"m 236 232 q 151 271 188 252 q 90 313 115 290 q 54 362 66 335 q 41 427 41 390 q 58 497 41 461 q 112 562 75 532 q 208 609 149 591 q 353 628 267 628 q 448 620 405 628 q 523 594 492 611 q 571 553 554 577 q 589 496 589 528 q 564 419 589 454 q 494 374 539 385 q 452 412 475 391 q 406 449 430 432 q 355 478 381 467 q 301 489 328 489 q 267 479 279 489 q 254 454 254 470 q 264 435 254 444 q 291 418 275 426 q 327 402 307 410 q 366 387 347 395 l 383 380 q 476 338 438 359 q 538 293 514 317 q 572 243 562 270 q 583 182 583 216 q 565 109 583 145 q 507 45 546 73 q 407 0 467 18 q 265 -17 347 -17 q 167 -8 212 -17 q 91 18 123 1 q 42 61 60 35 q 25 119 25 86 q 51 193 25 164 q 123 235 77 222 q 154 200 136 219 q 197 163 172 180 q 251 134 221 146 q 315 122 281 122 q 355 133 338 122 q 371 161 371 144 q 358 181 371 172 q 325 199 345 191 q 281 216 304 208 q 236 232 257 224 m 494 1061 l 562 991 l 332 741 l 130 991 l 201 1061 l 342 937 l 494 1061 z "},"":{"ha":979,"x_min":9,"x_max":1006,"o":"m 639 672 q 667 727 659 705 q 676 765 676 749 q 663 796 676 786 q 627 810 650 806 l 595 815 l 600 947 q 692 939 645 942 q 798 936 740 936 q 908 939 854 936 q 1006 947 962 942 l 1000 817 q 981 813 989 814 q 964 811 972 812 q 948 809 956 810 q 928 808 939 809 l 606 346 q 605 313 605 326 q 604 292 604 301 q 604 276 604 283 q 604 257 604 268 q 610 196 604 219 q 628 160 616 173 q 655 141 639 146 q 692 132 671 135 l 718 127 l 713 -4 q 647 1 683 -1 q 575 5 616 3 q 486 7 534 7 q 381 5 439 7 q 250 -4 323 4 l 256 127 q 292 132 273 130 q 329 135 309 133 q 368 136 349 136 q 370 172 369 151 q 373 218 372 193 q 375 269 374 242 q 378 321 376 295 l 129 729 q 102 768 115 752 q 77 793 89 783 q 53 807 64 802 q 29 812 41 811 l 9 815 l 16 947 q 121 940 60 943 q 244 936 181 936 q 370 940 313 936 q 479 947 428 943 l 472 815 q 411 810 437 811 q 359 807 385 808 l 524 519 l 550 519 l 639 672 m 408 1048 q 371 1055 389 1048 q 341 1075 354 1062 q 321 1108 328 1088 q 313 1154 313 1128 q 320 1197 313 1177 q 340 1232 327 1217 q 371 1256 353 1247 q 412 1265 389 1265 q 448 1259 431 1265 q 478 1239 465 1252 q 498 1206 491 1225 q 505 1162 505 1187 q 499 1119 505 1139 q 480 1082 492 1098 q 450 1058 468 1067 q 408 1048 431 1048 m 667 1048 q 631 1055 648 1048 q 601 1075 614 1062 q 581 1108 588 1088 q 573 1154 573 1128 q 580 1197 573 1177 q 600 1232 587 1217 q 631 1256 613 1247 q 673 1265 650 1265 q 709 1259 692 1265 q 738 1239 726 1252 q 758 1206 751 1225 q 765 1162 765 1187 q 759 1119 765 1139 q 739 1082 752 1098 q 708 1058 726 1067 q 667 1048 690 1048 z "},"":{"ha":935,"x_min":41,"x_max":885,"o":"m 85 608 l 97 947 q 294 939 199 942 q 489 936 389 936 q 586 937 538 936 q 682 939 634 937 q 779 943 730 941 q 879 947 827 945 l 869 785 l 335 151 l 542 165 q 613 176 591 167 q 653 204 635 186 q 685 251 671 222 q 709 325 699 281 l 885 325 l 845 -14 q 654 -1 757 -6 q 449 3 565 2 q 247 3 333 4 q 121 -1 161 1 q 41 -4 81 -3 l 47 144 l 578 793 l 372 779 q 329 769 345 778 q 300 741 312 760 q 280 689 289 721 q 260 608 271 656 l 85 608 m 659 1331 l 726 1261 l 490 1019 l 294 1261 l 366 1331 l 506 1218 l 659 1331 z "},"":{"ha":700,"x_min":28,"x_max":659,"o":"m 28 103 q 124 201 74 148 q 221 306 174 254 q 307 406 268 358 q 370 489 346 454 q 283 479 319 489 q 221 451 248 469 q 177 410 195 434 q 143 359 158 387 q 112 376 129 364 q 81 405 96 388 q 57 444 67 422 q 47 490 47 465 q 59 547 47 522 q 91 590 70 572 q 142 618 112 608 q 210 628 172 628 q 273 625 239 628 q 338 617 306 621 q 400 609 370 612 q 452 606 429 606 q 517 610 482 606 q 589 628 552 614 l 659 496 q 577 418 618 461 q 497 327 537 374 q 417 231 457 280 q 336 136 377 182 q 428 144 390 136 q 492 166 465 152 q 537 202 519 181 q 572 248 556 222 q 604 223 589 237 q 630 191 619 208 q 648 154 642 174 q 654 114 654 135 q 643 60 654 84 q 611 19 632 36 q 560 -8 590 1 q 493 -17 530 -17 q 430 -13 460 -17 q 369 -4 399 -9 q 308 5 339 1 q 243 9 277 9 q 186 5 212 9 q 141 -5 160 1 q 111 -14 122 -10 q 98 -17 100 -18 l 28 103 m 529 1061 l 597 991 l 366 741 l 165 991 l 236 1061 l 376 937 l 529 1061 z "},"":{"ha":571,"x_min":69,"x_max":501,"o":"m 138 741 l 69 810 l 300 1061 l 501 810 l 431 741 l 290 864 l 138 741 z "},"":{"ha":571,"x_min":69,"x_max":501,"o":"m 433 1061 l 501 991 l 271 741 l 69 991 l 140 1061 l 281 937 l 433 1061 z "},"":{"ha":486,"x_min":69,"x_max":416,"o":"m 243 977 q 192 954 210 977 q 175 900 175 932 q 179 874 175 887 q 192 850 183 861 q 213 832 200 839 q 244 825 226 825 q 293 844 276 825 q 311 900 311 863 q 307 926 311 912 q 295 950 303 939 q 274 969 287 962 q 243 977 261 977 m 69 889 q 83 954 69 923 q 121 1009 96 985 q 181 1047 146 1033 q 260 1061 216 1061 q 330 1050 300 1061 q 379 1019 359 1038 q 407 973 398 999 q 416 920 416 947 q 401 849 416 882 q 361 792 387 816 q 301 754 335 768 q 228 741 267 741 q 154 753 184 741 q 105 787 123 766 q 78 834 86 808 q 69 889 69 861 z "},"":{"ha":664,"x_min":68,"x_max":596,"o":"m 443 890 q 474 902 458 890 q 501 926 489 913 q 529 962 515 942 l 596 909 q 565 854 583 884 q 524 799 547 824 q 475 757 501 774 q 418 741 448 741 q 362 752 390 741 q 308 778 334 764 q 260 804 282 792 q 222 815 238 815 q 192 803 207 815 q 165 778 177 791 q 138 741 151 761 l 68 793 q 99 849 81 819 q 141 905 118 880 q 190 948 163 931 q 248 965 217 965 q 303 954 275 965 q 357 928 331 942 q 405 902 383 913 q 443 890 427 890 z "},"":{"ha":771,"x_min":71,"x_max":694,"o":"m 690 278 l 71 278 l 77 406 l 694 406 l 690 278 z "},"":{"ha":1004,"x_min":71,"x_max":928,"o":"m 924 278 l 71 278 l 77 406 l 928 406 l 924 278 z "},"":{"ha":364,"x_min":77,"x_max":325,"o":"m 325 986 q 275 922 294 959 q 257 850 257 885 q 272 799 257 824 q 322 754 288 774 q 314 709 322 731 q 291 670 307 687 q 253 642 276 652 q 201 632 231 632 q 154 641 176 632 q 114 668 132 650 q 87 714 97 686 q 77 779 77 742 q 84 843 77 808 q 112 917 92 879 q 166 995 132 956 q 253 1069 200 1034 l 325 986 z "},"":{"ha":350,"x_min":70,"x_max":318,"o":"m 70 715 q 119 780 101 743 q 138 851 138 817 q 122 903 138 878 q 73 947 107 928 q 80 992 73 970 q 103 1032 88 1015 q 141 1059 119 1049 q 193 1069 164 1069 q 241 1061 218 1069 q 280 1034 263 1052 q 308 987 298 1015 q 318 922 318 960 q 310 858 318 894 q 282 784 302 823 q 229 707 262 746 q 142 632 195 667 l 70 715 z "},"":{"ha":372,"x_min":47,"x_max":296,"o":"m 47 -125 q 97 -61 79 -98 q 115 11 115 -24 q 100 62 115 37 q 50 107 85 87 q 58 152 50 130 q 81 192 66 174 q 119 219 96 209 q 171 229 142 229 q 218 220 196 229 q 258 193 241 212 q 286 147 275 175 q 296 82 296 119 q 288 18 296 54 q 260 -56 280 -18 q 206 -134 240 -94 q 119 -208 172 -173 l 47 -125 z "},"":{"ha":636,"x_min":77,"x_max":597,"o":"m 325 986 q 275 922 294 959 q 257 850 257 884 q 272 799 257 824 q 322 754 288 774 q 314 709 322 730 q 291 670 307 687 q 253 642 276 652 q 201 632 231 632 q 154 641 176 632 q 114 668 132 650 q 87 714 97 686 q 77 779 77 741 q 84 843 77 808 q 112 917 92 879 q 166 995 132 956 q 253 1069 200 1034 l 325 986 m 597 986 q 569 956 582 972 q 547 922 556 939 q 534 885 538 904 q 529 850 529 867 q 545 799 529 824 q 595 754 560 774 q 587 709 595 730 q 563 670 578 687 q 525 642 548 652 q 473 632 503 632 q 426 641 448 632 q 386 668 404 650 q 359 714 369 686 q 349 779 349 741 q 356 843 349 808 q 384 917 364 879 q 438 995 404 956 q 525 1069 472 1034 l 597 986 z "},"":{"ha":623,"x_min":69,"x_max":590,"o":"m 342 715 q 391 780 373 743 q 410 851 410 817 q 394 903 410 878 q 345 947 379 928 q 352 992 345 970 q 375 1032 360 1015 q 413 1059 391 1049 q 465 1069 436 1069 q 513 1061 490 1069 q 552 1034 535 1052 q 580 987 570 1015 q 590 922 590 960 q 582 858 590 894 q 554 784 574 823 q 500 707 534 746 q 414 632 467 667 l 342 715 m 69 715 q 119 780 101 743 q 138 851 138 817 q 122 903 138 878 q 72 947 106 928 q 80 992 72 970 q 103 1032 88 1015 q 141 1059 119 1049 q 193 1069 164 1069 q 241 1061 218 1069 q 280 1034 263 1052 q 308 987 298 1015 q 318 922 318 960 q 310 858 318 894 q 282 784 302 823 q 229 707 262 746 q 142 632 195 667 l 69 715 z "},"":{"ha":644,"x_min":47,"x_max":568,"o":"m 319 -125 q 369 -61 351 -98 q 387 11 387 -24 q 372 62 387 37 q 322 107 357 87 q 330 152 322 130 q 354 192 338 174 q 391 219 369 209 q 443 229 414 229 q 491 220 468 229 q 531 193 513 212 q 558 147 548 175 q 568 82 568 119 q 561 18 568 54 q 533 -56 553 -18 q 478 -134 513 -94 q 392 -208 444 -173 l 319 -125 m 47 -125 q 97 -61 79 -98 q 115 11 115 -24 q 100 62 115 37 q 50 107 85 87 q 58 152 50 130 q 81 192 66 174 q 119 219 96 209 q 171 229 142 229 q 218 220 196 229 q 258 193 241 212 q 286 147 275 175 q 296 82 296 119 q 288 18 296 54 q 260 -56 280 -18 q 206 -134 240 -94 q 119 -208 172 -173 l 47 -125 z "},"":{"ha":484,"x_min":97,"x_max":392,"o":"m 97 478 q 110 545 97 517 q 143 592 122 574 q 190 619 163 610 q 243 628 216 628 q 297 619 271 628 q 345 592 324 610 q 379 545 366 574 q 392 478 392 517 q 380 414 392 443 q 349 365 369 385 q 302 332 329 344 q 243 321 275 321 q 186 332 212 321 q 139 365 159 344 q 108 414 119 385 q 97 478 97 443 z "},"":{"ha":497,"x_min":28,"x_max":453,"o":"m 433 98 l 374 40 l 28 355 l 393 671 l 453 612 l 248 355 l 433 98 z "},"":{"ha":496,"x_min":41,"x_max":467,"o":"m 61 612 l 121 671 l 467 355 l 102 40 l 41 98 l 248 355 l 61 612 z "},"":{"ha":717,"x_min":-24,"x_max":743,"o":"m -24 46 l 656 982 l 743 908 l 64 -28 l -24 46 z "},"":{"ha":532,"x_min":57,"x_max":478,"o":"m 157 774 q 208 774 181 774 q 260 777 234 775 q 260 837 260 807 q 261 888 261 866 l 157 774 m 447 547 q 401 551 423 549 q 359 553 381 552 q 318 554 336 554 q 267 553 300 554 q 191 547 233 553 l 193 627 q 213 629 203 627 q 232 630 222 629 q 253 631 242 631 q 257 693 255 656 l 57 693 l 58 774 l 319 1069 l 400 1043 q 397 996 399 1025 q 394 931 395 966 q 392 856 393 895 q 390 781 391 817 q 426 783 410 782 q 453 785 441 784 q 478 787 467 787 l 453 693 l 389 693 l 389 688 q 392 656 389 668 q 402 638 395 645 q 417 628 408 631 q 436 623 426 625 l 450 619 l 447 547 z "},"":{"ha":1006,"x_min":29,"x_max":929,"o":"m 770 637 q 766 701 770 668 q 748 760 762 733 q 708 804 734 787 q 639 821 682 821 q 575 806 607 821 q 516 765 544 792 q 466 698 488 737 q 431 608 444 659 l 694 608 l 689 492 q 608 491 652 492 q 522 490 571 490 q 415 488 472 489 q 419 415 415 446 l 686 415 l 682 298 q 616 298 652 298 q 545 297 586 297 q 456 296 504 297 q 507 224 477 254 q 573 176 537 195 q 650 148 610 157 q 733 139 691 139 q 776 142 752 139 q 824 149 800 144 q 867 158 847 153 q 897 168 886 163 l 929 31 q 867 8 901 19 q 794 -10 832 -2 q 714 -23 755 -18 q 632 -28 673 -28 q 484 -7 554 -28 q 356 53 414 13 q 257 151 299 92 q 192 288 214 210 q 107 283 148 286 q 29 277 66 280 l 33 415 l 171 415 q 170 434 170 425 q 170 454 170 444 l 170 479 l 36 469 l 41 608 l 186 608 q 251 763 207 696 q 357 877 296 831 q 495 947 418 924 q 659 971 572 971 q 744 968 706 971 q 814 959 782 964 q 874 946 846 954 q 929 932 902 939 l 918 628 l 770 628 l 770 637 z "},"":{"ha":785,"x_min":74,"x_max":713,"o":"m 713 372 l 74 372 l 74 500 l 713 500 l 713 372 z "},"":{"ha":925,"x_min":8,"x_max":981,"o":"m 328 482 q 322 358 325 416 q 319 243 320 300 q 319 128 318 187 q 323 0 320 69 l 313 0 q 192 -8 247 0 q 87 -28 136 -16 q 117 208 106 79 q 131 493 127 337 q 97 496 117 494 q 56 500 76 498 l 8 505 l 12 611 l 136 611 l 138 625 q 165 738 142 686 q 221 833 187 790 q 299 910 256 876 q 388 967 342 944 q 479 1002 433 990 q 564 1014 524 1014 q 623 1003 594 1014 q 672 974 651 993 q 769 1044 719 1019 q 863 1069 820 1069 q 949 1044 918 1069 q 981 966 981 1019 q 977 931 981 947 q 965 904 972 916 q 949 880 958 891 q 929 859 939 869 q 885 880 906 872 q 838 888 863 888 q 757 854 783 888 q 728 755 732 821 l 720 611 q 781 614 749 612 q 840 618 812 616 q 889 623 867 621 q 922 628 911 626 l 895 466 l 820 467 q 789 468 805 467 q 760 469 774 469 q 733 470 745 469 q 713 471 722 471 q 710 420 711 447 q 709 365 709 393 q 708 311 708 338 q 708 262 708 285 q 713 203 708 231 q 730 155 719 176 q 760 123 742 135 q 803 110 778 111 l 799 0 l 783 0 q 622 -6 694 0 q 481 -28 549 -12 q 490 81 486 25 q 499 199 495 137 q 508 329 504 260 q 516 475 512 397 l 328 482 m 521 681 q 534 759 522 720 q 566 835 546 798 q 515 843 540 840 q 475 846 490 846 q 418 839 442 846 q 378 812 395 831 q 351 759 361 793 q 336 669 341 724 l 334 611 l 518 611 l 521 681 z "},"":{"ha":817,"x_min":9,"x_max":799,"o":"m 332 611 q 553 617 452 612 q 743 628 653 621 q 716 431 728 531 q 704 239 704 331 q 711 180 704 205 q 731 140 718 156 q 761 117 743 125 q 799 110 778 110 l 794 0 l 779 0 q 616 -5 690 0 q 473 -28 543 -11 q 500 163 488 68 q 512 342 513 258 q 492 441 512 409 q 423 477 473 474 q 368 480 393 479 q 327 483 342 481 q 321 361 323 416 q 318 248 319 306 q 319 130 317 190 q 325 0 320 69 l 314 0 q 192 -8 248 0 q 87 -28 136 -16 q 103 86 96 25 q 117 215 111 147 q 127 357 123 283 q 132 493 131 431 q 97 496 118 494 q 57 500 77 498 q 9 505 34 503 l 12 611 l 135 611 l 138 681 q 159 794 138 741 q 215 889 180 846 q 293 966 249 932 q 384 1023 337 1000 q 477 1058 431 1046 q 564 1069 524 1069 q 646 1043 616 1069 q 676 966 676 1017 q 672 931 676 947 q 661 904 668 916 q 645 880 654 891 q 625 859 635 869 q 591 871 611 865 q 549 880 570 876 q 508 886 528 884 q 475 888 488 888 q 418 883 442 888 q 377 862 394 878 q 350 812 360 845 q 338 725 340 780 l 332 611 z "},"":{"ha":854,"x_min":8,"x_max":836,"o":"m 742 256 q 747 203 742 229 q 764 156 753 177 q 793 123 776 136 q 836 110 811 110 l 832 0 l 817 0 q 732 -1 772 0 q 655 -6 692 -3 q 583 -14 618 -9 q 514 -28 549 -20 q 540 233 531 100 q 552 473 549 366 q 479 476 517 475 q 409 479 441 478 q 354 481 377 480 q 327 483 332 482 q 322 373 324 433 q 318 252 319 312 q 319 131 317 193 q 325 0 320 69 l 314 0 q 192 -8 248 0 q 87 -28 136 -16 q 103 86 96 25 q 117 215 111 147 q 127 357 123 283 q 131 493 131 431 q 97 496 117 494 q 56 500 76 498 q 8 505 33 503 l 12 611 l 136 611 l 138 681 q 159 794 138 741 q 215 889 180 846 q 293 966 249 932 q 384 1023 337 1000 q 477 1058 431 1046 q 564 1069 524 1069 q 648 1040 620 1069 q 725 1054 689 1046 q 787 1069 762 1061 q 760 799 769 922 q 747 575 751 676 q 742 395 743 475 q 742 256 742 315 m 332 611 l 557 611 q 559 760 558 692 q 559 878 559 827 q 513 885 536 882 q 475 888 490 888 q 418 883 442 888 q 377 862 394 878 q 350 812 360 845 q 338 725 340 780 l 332 611 z "},"":{"ha":1189,"x_min":8,"x_max":1182,"o":"m 328 482 q 322 358 324 416 q 318 243 319 300 q 318 128 317 187 q 323 0 319 69 l 313 0 q 191 -8 247 0 q 87 -28 136 -16 q 116 207 105 78 q 131 490 127 335 q 97 493 117 492 q 56 497 76 495 q 8 503 33 500 l 11 608 l 136 608 l 138 625 q 165 738 142 686 q 222 833 188 790 q 299 910 256 876 q 388 967 342 944 q 479 1002 433 990 q 564 1014 524 1014 q 627 1001 596 1014 q 677 966 658 988 q 744 1011 709 991 q 814 1043 779 1030 q 883 1063 849 1056 q 946 1069 916 1069 q 1029 1043 998 1069 q 1060 966 1060 1017 q 1056 931 1060 947 q 1045 904 1052 916 q 1028 880 1038 891 q 1008 859 1019 869 q 974 871 994 865 q 932 880 954 876 q 890 886 910 884 q 857 888 870 888 q 801 883 825 888 q 760 862 777 878 q 733 812 743 845 q 721 725 724 780 l 715 611 q 936 617 836 612 q 1126 628 1036 621 q 1100 431 1112 531 q 1088 239 1088 331 q 1114 140 1088 171 q 1182 110 1140 110 l 1178 0 l 1162 0 q 999 -5 1073 0 q 857 -28 926 -11 q 884 163 871 68 q 896 350 896 258 q 891 405 896 383 q 877 440 887 427 q 849 459 866 453 q 807 467 832 465 l 711 472 q 705 349 708 406 q 702 238 703 293 q 702 126 701 184 q 708 0 703 69 l 697 0 q 580 -8 631 0 q 481 -28 529 -16 q 491 81 486 25 q 500 199 496 137 q 508 329 505 260 q 515 475 512 397 l 328 482 m 521 681 q 532 762 521 724 q 562 835 544 800 q 513 843 537 840 q 475 846 490 846 q 418 839 442 846 q 377 812 394 831 q 350 759 360 793 q 336 669 340 724 l 334 611 l 518 611 l 521 681 z "},"":{"ha":1236,"x_min":8,"x_max":1218,"o":"m 1124 256 q 1129 203 1124 229 q 1146 157 1135 178 q 1175 125 1158 137 q 1218 113 1193 113 l 1214 0 l 1198 0 q 1114 -1 1154 0 q 1037 -6 1074 -3 q 965 -14 1000 -9 q 896 -28 930 -20 q 922 228 913 98 q 934 463 930 358 q 862 466 899 464 q 792 468 824 467 q 738 470 760 469 q 711 472 715 471 q 705 365 708 424 q 702 248 703 306 q 702 130 701 190 q 708 0 703 69 l 697 0 q 580 -8 631 0 q 481 -28 529 -16 q 489 65 484 16 q 498 177 494 115 q 508 317 503 239 q 515 475 512 395 l 327 482 q 322 373 324 433 q 318 252 319 312 q 318 131 317 193 q 323 0 319 69 l 313 0 q 191 -8 247 0 q 87 -28 136 -16 q 116 216 105 78 q 130 493 127 353 q 96 496 117 494 q 56 500 75 498 q 8 505 33 503 l 12 611 l 136 611 l 138 625 q 165 738 142 686 q 222 833 188 790 q 299 910 256 876 q 388 967 342 944 q 479 1002 433 990 q 564 1014 524 1014 q 627 1001 596 1014 q 677 966 658 988 q 744 1011 709 991 q 814 1043 779 1030 q 883 1063 849 1056 q 946 1069 916 1069 q 1031 1040 1002 1069 q 1107 1054 1072 1046 q 1169 1069 1143 1061 q 1142 799 1151 922 q 1128 575 1133 676 q 1124 395 1124 475 q 1124 256 1124 315 m 715 611 l 939 611 q 941 760 940 692 q 942 878 942 827 q 895 885 918 882 q 857 888 871 888 q 800 883 825 888 q 759 862 776 878 q 733 812 743 845 q 721 725 724 780 l 715 611 m 334 611 l 519 611 q 519 645 519 628 q 521 681 519 662 q 532 762 521 724 q 562 835 544 800 q 513 843 537 840 q 475 846 490 846 q 418 839 442 846 q 377 812 394 831 q 350 759 360 793 q 336 669 340 724 l 334 611 z "}}}
